<svg width="20" height="20" fill="none" xmlns="http://www.w3.org/2000/svg"><circle cx="10" cy="10" r="10" fill="url(#paint0_linear_203_46992)"/><path fill-rule="evenodd" clip-rule="evenodd" d="M10 15.693l.42-.474c.478-.546.907-1.065 1.29-1.558l.315-.416C13.34 11.47 14 10.063 14 9.022 14 6.801 12.21 5 10 5S6 6.8 6 9.022c0 1.04.659 2.449 1.975 4.223l.316.416A36.55 36.55 0 0010 15.693z" fill="url(#paint1_linear_203_46992)" stroke="#fff" stroke-linecap="round" stroke-linejoin="round"/><path d="M10 10.666a1.667 1.667 0 100-3.333 1.667 1.667 0 000 3.333z" fill="url(#paint2_linear_203_46992)" stroke="#fff" stroke-linecap="round" stroke-linejoin="round"/><defs><linearGradient id="paint0_linear_203_46992" x1="0" y1="10" x2="20" y2="10" gradientUnits="userSpaceOnUse"><stop stop-color="#F6929F"/><stop offset="1" stop-color="#FFC0C8"/></linearGradient><linearGradient id="paint1_linear_203_46992" x1="6" y1="10.347" x2="14" y2="10.347" gradientUnits="userSpaceOnUse"><stop stop-color="#F6929F"/><stop offset="1" stop-color="#FFC0C8"/></linearGradient><linearGradient id="paint2_linear_203_46992" x1="8.333" y1="9" x2="11.667" y2="9" gradientUnits="userSpaceOnUse"><stop stop-color="#F6929F"/><stop offset="1" stop-color="#FFC0C8"/></linearGradient></defs></svg>