<svg width="120" height="120" fill="none" xmlns="http://www.w3.org/2000/svg"><path d="M119.517 60.134c0 32.861-26.639 59.5-59.5 59.5-32.86 0-59.5-26.639-59.5-59.5 0-32.86 26.64-59.5 59.5-59.5 32.861 0 59.5 26.64 59.5 59.5z" fill="url(#paint0_linear_707_190)"/><path d="M117.517 60.134c0 31.757-25.744 57.5-57.5 57.5s-57.5-25.743-57.5-57.5c0-31.756 25.744-57.5 57.5-57.5s57.5 25.744 57.5 57.5z" stroke="#fff" stroke-width="4"/><path d="M90.017 73.878a52.735 52.735 0 00-2.297-5.061c-1.29-2.6-2.754-5.324-5.155-7.066a8.088 8.088 0 00-1.876-1.022 2.644 2.644 0 00-2.327-.03 3.622 3.622 0 00-1.334 1.563c-.397.764-.71 1.578-1.032 2.372a64.87 64.87 0 00-.993 2.635 65.69 65.69 0 00-3.17 9.884c-.412 1.761-.81 3.632-.353 5.428a4.674 4.674 0 002.893 3.359 10.31 10.31 0 002.605.53c.89.088 1.787.097 2.68.026a18.93 18.93 0 005.224-1.186 12.102 12.102 0 004.088-2.332 6.157 6.157 0 001.945-4.148 12.043 12.043 0 00-.898-4.952z" fill="#FFBFC6"/><path d="M69.967 54.68a19.122 19.122 0 00-4.029-6.45 10.856 10.856 0 00-6.882-3.314 20.01 20.01 0 00-4.713.308c-1.578.253-3.156.53-4.714.868a24.698 24.698 0 00-7.641 2.942 28.283 28.283 0 00-7.443 6.624 28.278 28.278 0 00-2.153 2.412c-1.732 2.178-3.19 4.694-3.682 7.442-.526 2.977.213 5.954 1.489 8.639a21.528 21.528 0 004.232 5.954 22.471 22.471 0 0012.96 6.45 22.11 22.11 0 0023.434-15.267 25.493 25.493 0 00-.858-16.607z" fill="url(#paint1_linear_707_190)"/><path d="M80.302 56.229a57.471 57.471 0 00-4.912-10.916 27.248 27.248 0 01-2.48-5.423 10.201 10.201 0 010-5.86 20.148 20.148 0 012.584-5.126c.12-.183-.089-.352-.253-.307a11.362 11.362 0 00-3.726-.69 14.3 14.3 0 00-3.92.437c-1.27.322-2.487.824-3.617 1.488a14.978 14.978 0 00-3.27 2.675c-.992 1.062-1.954 2.188-2.977 3.225a30.438 30.438 0 01-3.12 2.754 17.227 17.227 0 01-7.339 3.413c-.342.06-.69.095-1.042.134-.297.01-.583.109-.824.283a1.186 1.186 0 00-.347.824c-.027.36-.027.721 0 1.081.055 1.505.391 2.986.992 4.367.124.293.258.575.407.853a4.276 4.276 0 01-3.473 1.24c-.119 0-.203.11-.213.214a8.54 8.54 0 00.268 2.769c-.323-.05-.626-.204-.948-.239a1.722 1.722 0 00-.992.184 2.322 2.322 0 00-1.196 1.722 4.69 4.69 0 00.496 2.55c.322.744.675 1.489.442 2.312 0 .07-.05.14-.075.204-.025.064-.094 0-.1.084a1.53 1.53 0 01-.103.343c-.3.492-.748.878-1.28 1.101a.099.099 0 00-.035.169c-.548.34-.953.87-1.136 1.488-.343 1.662 1.32 3.067 2.48 3.935 3.111 2.322 6.565 4.332 10.385 5.2 3.414.774 7.155.555 10.31-1.052.342-.175.673-.37.993-.58a5.86 5.86 0 001.87 1.031c-1.646 2.868-2.043 6.213-2.311 9.468-.095 1.14-.179 2.287-.313 3.423l-.566.04c-1.915.114-3.835.144-5.74.422a12.375 12.375 0 00-5.071 1.751 8.148 8.148 0 00-3.022 3.503 5.376 5.376 0 00-.045 4.282 5.607 5.607 0 003.121 2.977c3.206 1.2 6.381-1.126 8.217-3.577a17.254 17.254 0 002.555-4.962c.41-1.328.697-2.692.854-4.074 3.09-.223 6.182-.68 9.06-1.88a16.632 16.632 0 007.596-6.45 21.598 21.598 0 003.196-9.428 28.879 28.879 0 00-1.38-11.382zm-19.35 31.755a17.092 17.092 0 01-2.412 5.542c-1.85 2.774-5.428 5.706-8.896 3.85a5.13 5.13 0 01-2.72-3.969 6.057 6.057 0 011.787-4.59c2.744-2.942 6.946-3.16 10.712-3.334.66-.03 1.325-.07 1.985-.114a25.983 25.983 0 01-.447 2.625l-.01-.01zM80.615 71.05a19.227 19.227 0 01-4.63 8.47c-2.55 2.63-5.904 4.108-9.451 4.832a37.82 37.82 0 01-4.729.62c.065-.526.114-1.052.159-1.572.322-3.628.456-7.359 2.173-10.658.096-.179.195-.358.298-.536a4.649 4.649 0 005.21-2.238c.243-.496.61-1.37.074-1.786-.536-.417-1.29-.1-1.801.154a8.931 8.931 0 00-3.419 3.12c-.07.105-.134.214-.198.318a5.404 5.404 0 01-1.732-.923c2.6-1.82 4.401-4.654 5.517-7.591.69-1.811 1.097-3.836.68-5.76-.317-1.49-1.315-2.978-2.977-3.052-1.553-.055-3.036.918-3.97 2.079a10.367 10.367 0 00-1.944 4.148c-.814 3.383-.705 7.566 1.984 10.107-.133.084-.262.168-.396.243a13.059 13.059 0 01-4.962 1.583c-3.672.416-7.304-.546-10.569-2.198a35.145 35.145 0 01-4.793-2.977 9.89 9.89 0 01-2.099-1.866c-.496-.645-.903-1.489-.526-2.302a4.227 4.227 0 011.355-1.345 2.654 2.654 0 001.37-2.903c-.18-.843-.67-1.582-.864-2.426a2.386 2.386 0 01.496-2.287c.258-.273.613-.434.988-.447.466 0 .878.273 1.354.238a.218.218 0 00.209-.273 8.297 8.297 0 01-.333-2.724 4.665 4.665 0 003.647-1.488.208.208 0 00.035-.248 11.798 11.798 0 01-1.34-4.213c-.04-.367-.064-.739-.074-1.106-.02-.348-.01-.696.03-1.042a.7.7 0 01.684-.61c.328-.05.655-.075.993-.124a16.834 16.834 0 007.115-3.087 36.903 36.903 0 005.954-5.572 18.98 18.98 0 013.155-2.977 13.4 13.4 0 013.444-1.727 14.091 14.091 0 017.591-.302l.72.174a20.248 20.248 0 00-2.526 5.04 10.42 10.42 0 00-.213 5.394c.47 1.8 1.18 3.527 2.114 5.136.918 1.701 1.885 3.369 2.739 5.105 3.264 6.614 5.418 14.255 3.468 21.609l-.01-.01zm-15.932.818a8.971 8.971 0 012.48-2.679c.551-.377 1.31-.898 1.985-.834.958.095.13 1.553-.183 1.985a4.347 4.347 0 01-4.084 1.598l-.198-.07zM61.046 69.1a9.572 9.572 0 01-1.156-5.538 13.719 13.719 0 011.096-4.847 6.797 6.797 0 012.829-3.315 3.473 3.473 0 012.64-.411 2.886 2.886 0 011.592 1.647c.784 1.761.496 3.89-.075 5.666a18.48 18.48 0 01-2.535 5.061 12.684 12.684 0 01-3.195 3.19 6.843 6.843 0 01-1.216-1.453h.02z" fill="#fff" stroke="#fff" stroke-width="1.5"/><path d="M45.456 53.669c-.457-1.132-1.097-2.317-2.273-2.824a.149.149 0 10-.114.273c1.211.447 1.821 1.767 2.258 2.888.375.99.688 2.003.938 3.032a10.633 10.633 0 00-1.295-1.801 9.288 9.288 0 00-.993-.993c-.06-.054-.813-.694-.853-.496-.04.199.164.273.263.357.178.144.347.293.496.447.328.3.638.62.928.958.547.663 1.025 1.38 1.429 2.138a4.51 4.51 0 00-2.431-1.206 4.197 4.197 0 00-3.474 1.032.065.065 0 10.08.105 5.712 5.712 0 011.607-.77 4.289 4.289 0 011.757-.114c1.137.17 2.16.781 2.848 1.702.074.095.243.045.208-.09a33.957 33.957 0 00-1.379-4.638z" fill="#fff" stroke="#fff"/><path d="M75.544 28.746a7.124 7.124 0 00-1.742-1.985 13.693 13.693 0 00-2.218-1.488 18.77 18.77 0 00-5.214-1.89c-3.672-.735-7.765-.477-11.115 1.354-1.424.779-2.758 1.955-3.205 3.572a4.015 4.015 0 00.958 3.8c-.11.181-.205.37-.283.566a4.812 4.812 0 00-.094 2.715 6.406 6.406 0 001.93 3.329c.173.159.431-.094.258-.253a6.008 6.008 0 01-1.985-4.347 3.608 3.608 0 01.427-1.766c.044.035.08.07.124.1a3.3 3.3 0 004.014-.125c.496-.422.962-1.151.74-1.83-.269-.81-1.326-.621-1.986-.497a4.924 4.924 0 00-2.882 1.766 3.638 3.638 0 01-.735-3.473c.457-1.488 1.722-2.506 3.032-3.21 3.047-1.637 6.763-1.985 10.137-1.404 3.26.546 6.544 1.9 8.896 4.282.283.293.556.585.844.873a.074.074 0 00.099-.09zm-21.966 3.16a4.396 4.396 0 011.677-1.25c.333-.146.68-.254 1.037-.322a2.792 2.792 0 011.147-.065c.372.1.436.496.362.809a1.724 1.724 0 01-.496.853 2.907 2.907 0 01-3.662.184 1.412 1.412 0 01-.13-.114l.065-.095z" fill="#fff" stroke="#fff" stroke-width="1.5"/><path d="M69.684 41.284s0-.045-.025-.045a13.163 13.163 0 01-4.361-1.334c-.67-.318-1.335-.65-2.015-.958a4.605 4.605 0 00-2.024-.6 2.085 2.085 0 00-1.637.992c-.05.084-.184 1.136-.338 1.598-.16.529-.4 1.03-.71 1.488-.278.422-.64.783-1.061 1.062a3.3 3.3 0 01-1.255.437l-.199-.159a7.955 7.955 0 01-.382-.333c-.124-.114-.293-.248-.446-.372a.094.094 0 00-.15.053.094.094 0 00.006.062c.073.137.158.268.253.392.109.129.223.252.342.372.24.237.493.459.76.664.526.399 1.087.75 1.676 1.047a15.492 15.492 0 004.005 1.405 5.51 5.51 0 002.525.05.095.095 0 00-.025-.19 13.926 13.926 0 01-2.223-.247 19.518 19.518 0 01-1.984-.576 14.148 14.148 0 01-3.474-1.662 9.75 9.75 0 01-.397-.283 3.567 3.567 0 002.184-1.439c.346-.476.61-1.006.784-1.568.146-.54.265-1.086.357-1.637.382.05.747.194 1.062.417.327.183.655.357.992.545.665.372 1.33.745 2.024 1.062a7.046 7.046 0 003.86.725 3.106 3.106 0 001.891-.839.09.09 0 00-.015-.129zm-3.81.566c-1.424-.293-2.68-1.042-3.97-1.702-.342-.174-.685-.352-1.042-.496a2.135 2.135 0 00-.948-.229 1.781 1.781 0 011.489-.779c.377.028.747.122 1.092.278.332.134.66.278.992.422a29.946 29.946 0 003.756 1.583c.727.23 1.481.358 2.243.382a5.567 5.567 0 01-1.672.62 5.458 5.458 0 01-1.94-.08z" fill="#fff" stroke="#fff"/><defs><linearGradient id="paint0_linear_707_190" x1="21.377" y1="11.531" x2="60.017" y2="119.634" gradientUnits="userSpaceOnUse"><stop stop-color="#706464"/><stop offset="1" stop-color="#4A4141"/></linearGradient><linearGradient id="paint1_linear_707_190" x1="28.539" y1="65.785" x2="71.822" y2="65.785" gradientUnits="userSpaceOnUse"><stop stop-color="#F6929F"/><stop offset="1" stop-color="#FFC0C8"/></linearGradient></defs></svg>