<svg width="50" height="50" fill="none" xmlns="http://www.w3.org/2000/svg"><circle cx="25" cy="25" r="24" fill="url(#paint0_linear_312_7563)" stroke="#fff" stroke-width="2"/><path d="M17.28 14.54L25 22.26l7.68-7.68A1.84 1.84 0 0134 14a2 2 0 012 2 1.799 1.799 0 01-.54 1.32L27.68 25l7.78 7.78c.33.322.523.76.54 1.22a2 2 0 01-2 2 1.84 1.84 0 01-1.38-.54L25 27.74l-7.7 7.7A1.84 1.84 0 0116 36a2 2 0 01-2-2 1.802 1.802 0 01.54-1.32L22.32 25l-7.78-7.78A1.8 1.8 0 0114 16a2 2 0 012-2c.48.006.94.2 1.28.54z" fill="url(#paint1_linear_312_7563)"/><defs><linearGradient id="paint0_linear_312_7563" x1="8.764" y1="4.579" x2="25" y2="50" gradientUnits="userSpaceOnUse"><stop stop-color="#706464"/><stop offset="1" stop-color="#4A4141"/></linearGradient><linearGradient id="paint1_linear_312_7563" x1="13.999" y1="25.001" x2="36" y2="25.001" gradientUnits="userSpaceOnUse"><stop stop-color="#F6929F"/><stop offset="1" stop-color="#FFC0C8"/></linearGradient></defs></svg>