<svg width="32" height="32" fill="none" xmlns="http://www.w3.org/2000/svg"><circle cx="16" cy="16" r="16" fill="#fff"/><path clip-rule="evenodd" d="M16.003 25.822l.7-.79a57.416 57.416 0 002.149-2.598l.525-.693c2.195-2.957 3.292-5.303 3.292-7.038C22.67 11.001 19.685 8 16.003 8c-3.683 0-6.667 3.001-6.667 6.703 0 1.735 1.098 4.081 3.292 7.038l.526.693a60.883 60.883 0 002.849 3.388z" stroke="url(#paint0_linear_16_7122)" stroke-width="1.5" stroke-linecap="round" stroke-linejoin="round"/><path d="M16.004 17.444a2.778 2.778 0 100-5.556 2.778 2.778 0 000 5.556z" stroke="url(#paint1_linear_16_7122)" stroke-width="1.5" stroke-linecap="round" stroke-linejoin="round"/><defs><linearGradient id="paint0_linear_16_7122" x1="9.336" y1="16.911" x2="22.669" y2="16.911" gradientUnits="userSpaceOnUse"><stop stop-color="#F6929F"/><stop offset="1" stop-color="#FFC0C8"/></linearGradient><linearGradient id="paint1_linear_16_7122" x1="13.227" y1="14.666" x2="18.782" y2="14.666" gradientUnits="userSpaceOnUse"><stop stop-color="#F6929F"/><stop offset="1" stop-color="#FFC0C8"/></linearGradient></defs></svg>