<svg width="22" height="22" fill="none" xmlns="http://www.w3.org/2000/svg"><path d="M14.077 11.783C17.9 11.783 21 10.405 21 8.706c0-1.7-3.1-3.077-6.923-3.077-3.824 0-6.923 1.377-6.923 3.077s3.1 3.077 6.923 3.077z" stroke="#fff" stroke-width="1.2" stroke-linecap="round" stroke-linejoin="round"/><path d="M7.154 8.706v9.23c0 1.693 3.077 3.078 6.923 3.078S21 19.628 21 17.937V8.706" stroke="#fff" stroke-width="1.2" stroke-linecap="round" stroke-linejoin="round"/><path d="M21 13.321c0 1.693-3.077 3.077-6.923 3.077s-6.923-1.384-6.923-3.077m6.77-10.769a10.416 10.416 0 00-6-1.538C4.091 1.014 1 2.397 1 4.09c0 .908.892 1.724 2.308 2.308" stroke="#fff" stroke-width="1.2" stroke-linecap="round" stroke-linejoin="round"/><path d="M3.308 15.629C1.892 15.044 1 14.229 1 13.32V4.09m2.308 6.924C1.892 10.428 1 9.614 1 8.706" stroke="#fff" stroke-width="1.2" stroke-linecap="round" stroke-linejoin="round"/></svg>