<svg width="20" height="20" fill="none" xmlns="http://www.w3.org/2000/svg"><circle cx="10" cy="10" r="10" fill="url(#paint0_linear_203_46989)"/><path d="M11.85 10.84a.377.377 0 00-.439.05l-.871.857a.284.284 0 01-.399 0L8.183 9.82a.275.275 0 010-.392l.82-.808a.338.338 0 00.037-.423L7.548 6.112a.262.262 0 00-.18-.11.268.268 0 00-.204.056S6 6.968 6 7.804C6 11.226 8.817 14 12.29 14c.85 0 1.676-1.535 1.676-1.535a.297.297 0 00-.107-.392l-2.01-1.233z" fill="#fff"/><defs><linearGradient id="paint0_linear_203_46989" x1="0" y1="10" x2="20" y2="10" gradientUnits="userSpaceOnUse"><stop stop-color="#F6929F"/><stop offset="1" stop-color="#FFC0C8"/></linearGradient></defs></svg>