<svg width="80" height="80" fill="none" xmlns="http://www.w3.org/2000/svg"><g clip-path="url(#clip0_68_94)"><path d="M80 40c0 22.091-17.909 40-40 40S0 62.091 0 40 17.909 0 40 0s40 17.909 40 40z" fill="#fff"/><path d="M77.189 39.936c0 20.574-16.679 37.253-37.253 37.253S2.684 60.51 2.684 39.936 19.362 2.684 39.936 2.684 77.19 19.362 77.19 39.936z" fill="url(#paint0_linear_68_94)"/><path d="M32.154 17.252c-1.07.2-1.968.502-2.905.976-.7.36-1.041.605-1.732 1.297-1.496 1.486-2.026 2.84-2.026 5.226 0 1.562.161 2.338.72 3.502.482 1.023 1.334 1.941 2.48 2.718l.68.473-.719.265c-2.659.966-4.533 3.02-5.394 5.917-.208.691-.256 1.089-.293 2.32-.057 1.723.047 2.688.444 3.881.568 1.704 1.287 2.869 2.584 4.194 1.42 1.43 2.82 2.225 4.798 2.698 1.741.417 3.35.35 6.057-.236.805-.17 1.704-.341 1.988-.379.284-.028.643-.085.795-.114.274-.047.274-.047-.218-.331-.937-.54-1.495-1.145-1.997-2.196-.255-.53-.511-1.174-.577-1.43-.067-.265-.123-.492-.142-.502-.01-.019-.142.095-.294.256-.672.738-2.66 1.534-3.814 1.543-1.268.01-2.99-.833-3.766-1.837-.53-.69-1.022-1.704-1.212-2.49-.246-.984-.227-3.076.038-4.042.511-1.884 1.609-3.172 3.483-4.07 1.174-.569 2.319-.777 3.965-.711l1.325.057v-3.285l-.851-.057c-1.146-.085-1.931-.284-2.859-.73-1.012-.482-1.902-1.296-2.3-2.11-1.012-2.055-.624-4.753.91-6.277 1.05-1.06 2.11-1.401 3.51-1.136.852.16 1.382.397 1.723.767l.227.246.218-.833c.227-.919.634-1.809 1.145-2.51.189-.245.322-.473.303-.482-.114-.104-1.467-.464-2.206-.578-1.04-.17-3.16-.17-4.088 0z" fill="url(#paint1_linear_68_94)"/><path d="M43.142 17.451c-1.884.313-3.029 1.07-3.672 2.414-.72 1.525-.672.691-.71 12.535-.029 10.963-.01 11.72.36 13.207.501 2.035 1.088 2.84 2.952 4.071 1.448.956 2.877 1.363 4.713 1.344 4.524-.066 7.723-1.96 9.597-5.68.464-.928.87-2.178 1.012-3.143.142-.985.057-3.427-.142-4.242-.747-2.982-2.735-5.245-5.498-6.258l-.729-.265.691-.463c1.136-.748 1.997-1.686 2.49-2.718.557-1.164.718-1.94.718-3.503 0-1.505-.18-2.366-.747-3.53-.871-1.752-2.67-3.087-4.846-3.58-.53-.123-1.306-.17-3.293-.198-1.439-.02-2.735-.01-2.896.01zm4.713 3.427c1.58.739 2.555 2.31 2.678 4.308.142 2.234-.776 3.92-2.678 4.923-1.013.53-1.921.738-3.55.795l-1.4.057v-3.929c0-4.355 0-4.336.615-5.245.795-1.155 2.877-1.59 4.335-.909zm.246 13.548c3.34.985 5.148 3.626 4.893 7.148-.2 2.85-1.514 4.753-3.795 5.51-1.278.426-2.31.303-3.918-.455-1.212-.577-1.837-1.306-2.224-2.622-.133-.445-.152-1.155-.152-5.084V34.36l.218-.038c.113-.019.482-.057.823-.066.34-.01.634-.048.653-.067.029-.019.663-.019 1.42 0 1.07.02 1.542.076 2.082.237z" fill="url(#paint2_linear_68_94)"/><path d="M21.535 54.866l-2.1.019.208.294c.217.293.217.312.217 3.588 0 3.285 0 3.294-.217 3.588l-.218.293h4.893l.246-.757c.132-.417.227-.758.208-.758-.028 0-.199.105-.388.237-.54.36-1.183.464-2.262.37l-.937-.086-.057-2.793h.691c.436 0 .795.057.966.142.151.086.284.133.302.123.01-.018 0-.284-.028-.596l-.047-.568-.937.028-.937.038v-2.187l.34-.066c.578-.104 1.6.01 1.97.227l.34.199-.01-.445c-.009-.246-.037-.55-.075-.682l-.057-.236-2.11.028z" fill="url(#paint3_linear_68_94)"/><path d="M32.353 55.093c-.483.256-.568.796-.19 1.165.303.312.786.322 1.07.019.577-.616-.142-1.59-.88-1.184z" fill="url(#paint4_linear_68_94)"/><path d="M26.485 57.129l-.69.085-.398.047.189.246c.18.228.19.38.19 2.443 0 2.083-.01 2.215-.2 2.452l-.189.246H27.3l-.19-.246c-.18-.237-.198-.379-.198-1.95 0-1.865.076-2.206.54-2.452.34-.18 1.173-.161 1.485.038.511.34.578.615.578 2.49 0 1.562-.02 1.742-.18 1.922l-.18.198h1.95l-.19-.218c-.19-.198-.208-.33-.236-2.149-.038-2.13-.076-2.3-.644-2.773-.35-.303-.833-.446-1.495-.446-.54 0-.956.171-1.363.55l-.265.246v-.398c0-.218-.029-.388-.066-.388-.048.01-.2.038-.36.057z" fill="url(#paint5_linear_68_94)"/><path d="M33.063 57.12c-.076.009-.389.056-.691.085l-.54.056.19.246c.18.228.189.38.189 2.443 0 2.083-.01 2.215-.199 2.452l-.19.246h1.912l-.189-.246c-.19-.246-.199-.37-.199-2.793 0-1.4-.028-2.537-.066-2.537-.047.01-.142.028-.218.047z" fill="url(#paint6_linear_68_94)"/><path d="M34.7 55.169l.255.303v3.304c0 3.38-.018 3.57-.369 3.853-.246.2 3.483.095 4.145-.113.654-.218 1.553-1.06 1.704-1.62.303-1.098-.151-2.016-1.268-2.555l-.445-.209.35-.218c.218-.132.426-.369.53-.605.398-.871.104-1.638-.814-2.093-.568-.284-.577-.284-2.45-.312l-1.884-.038.246.303zm3.076.663c.293.132.444.274.549.53.378.9-.36 1.647-1.619 1.647h-.52v-2.263l.36-.037c.7-.076.832-.057 1.23.123zm.369 3.18c.217.086.53.294.69.474.247.284.285.407.285.852 0 1.023-.53 1.458-1.76 1.458-1.26 0-1.174.114-1.174-1.524v-1.401l.407-.029c.586-.047 1.107.01 1.552.17z" fill="url(#paint7_linear_68_94)"/><path d="M43.69 57.205c-.17.075-.416.236-.539.36l-.227.226-.066-.322c-.047-.283-.085-.321-.265-.274a3.882 3.882 0 01-.7.057H41.4l.19.322c.18.303.189.464.16 2.5-.028 2.158-.028 2.186-.255 2.423l-.227.246h.956c.53 0 .965-.029.965-.076 0-.038-.066-.151-.142-.246-.199-.265-.199-3.228-.01-3.702.209-.483.521-.644 1.155-.596l.52.047-.056-1.06-.331-.02a1.45 1.45 0 00-.634.114z" fill="url(#paint8_linear_68_94)"/><path d="M47.202 57.167c-.578.132-1.363.643-1.713 1.107-.596.786-.748 1.97-.36 2.897.407.976 1.562 1.695 2.745 1.704 1.003 0 1.59-.236 2.28-.927.502-.502.597-.663.748-1.212.199-.739.151-1.26-.151-1.97-.227-.53-.956-1.268-1.477-1.486-.435-.17-1.552-.236-2.072-.113zm1.457.88c.596.313.975.937 1.098 1.78.218 1.486-1.098 2.641-2.375 2.111-.483-.199-.672-.388-.956-.947-.294-.577-.341-1.618-.095-2.082.19-.36.615-.767.927-.89.35-.142 1.108-.123 1.401.028z" fill="url(#paint9_linear_68_94)"/><path d="M52.37 57.157c-.077.048-.398.095-.701.095H51.1l.255.255c.152.17.55 1.042 1.06 2.348.455 1.146.88 2.178.956 2.3.19.285.909.796.994.71.038-.047.426-.965.852-2.053l.776-1.98.596 1.6c.644 1.705.776 1.951 1.268 2.292.275.18.331.19.398.076.047-.085.577-1.326 1.173-2.774.606-1.449 1.117-2.66 1.145-2.708.02-.038-.33-.066-.785-.066h-.833l.218.199c.16.151.198.265.151.454-.085.35-1.22 3.228-1.278 3.228-.075 0-1.324-3.465-1.324-3.682 0-.19-.048-.2-.824-.2-.785 0-.804.01-.662.171.094.095.16.265.16.37 0 .17-1.031 2.982-1.22 3.313-.029.066-.379-.7-.758-1.704a527.691 527.691 0 00-.804-2.074c-.085-.198-.132-.236-.246-.17z" fill="url(#paint10_linear_68_94)"/></g><defs><linearGradient id="paint0_linear_68_94" x1="81.319" y1="66.154" x2="1.099" y2="15.165" gradientUnits="userSpaceOnUse"><stop stop-color="#362E2E"/><stop offset=".766" stop-color="#716565"/><stop offset="1" stop-color="#484242"/></linearGradient><linearGradient id="paint1_linear_68_94" x1="40" y1="0" x2="40" y2="80" gradientUnits="userSpaceOnUse"><stop stop-color="#EC84B0"/><stop offset=".526" stop-color="#FAE8F5"/><stop offset="1" stop-color="#EC84B0"/></linearGradient><linearGradient id="paint2_linear_68_94" x1="58.312" y1="80" x2="58.312" y2=".724" gradientUnits="userSpaceOnUse"><stop stop-color="#BCBCBC"/><stop offset="1" stop-color="#fff"/></linearGradient><linearGradient id="paint3_linear_68_94" x1="40" y1="0" x2="40" y2="80" gradientUnits="userSpaceOnUse"><stop stop-color="#fff"/><stop offset="1" stop-color="#B6B6B6"/></linearGradient><linearGradient id="paint4_linear_68_94" x1="40" y1="0" x2="40" y2="80" gradientUnits="userSpaceOnUse"><stop stop-color="#fff"/><stop offset="1" stop-color="#B6B6B6"/></linearGradient><linearGradient id="paint5_linear_68_94" x1="40" y1="0" x2="40" y2="80" gradientUnits="userSpaceOnUse"><stop stop-color="#fff"/><stop offset="1" stop-color="#B6B6B6"/></linearGradient><linearGradient id="paint6_linear_68_94" x1="40" y1="0" x2="40" y2="80" gradientUnits="userSpaceOnUse"><stop stop-color="#fff"/><stop offset="1" stop-color="#B6B6B6"/></linearGradient><linearGradient id="paint7_linear_68_94" x1="47.514" y1="54.866" x2="47.514" y2="62.875" gradientUnits="userSpaceOnUse"><stop stop-color="#EC84B0"/><stop offset=".526" stop-color="#FAE8F5"/><stop offset="1" stop-color="#EC84B0"/></linearGradient><linearGradient id="paint8_linear_68_94" x1="47.514" y1="54.866" x2="47.514" y2="62.875" gradientUnits="userSpaceOnUse"><stop stop-color="#EC84B0"/><stop offset=".526" stop-color="#FAE8F5"/><stop offset="1" stop-color="#EC84B0"/></linearGradient><linearGradient id="paint9_linear_68_94" x1="47.514" y1="54.866" x2="47.514" y2="62.875" gradientUnits="userSpaceOnUse"><stop stop-color="#EC84B0"/><stop offset=".526" stop-color="#FAE8F5"/><stop offset="1" stop-color="#EC84B0"/></linearGradient><linearGradient id="paint10_linear_68_94" x1="47.514" y1="54.866" x2="47.514" y2="62.875" gradientUnits="userSpaceOnUse"><stop stop-color="#EC84B0"/><stop offset=".526" stop-color="#FAE8F5"/><stop offset="1" stop-color="#EC84B0"/></linearGradient><clipPath id="clip0_68_94"><path fill="#fff" d="M0 0h80v80H0z"/></clipPath></defs></svg>