<svg width="30" height="30" fill="none" xmlns="http://www.w3.org/2000/svg"><circle cx="15" cy="15" r="15" fill="#fff"/><path d="M15.488 15.049c-2.446 0-4.479-2.053-4.479-4.482 0-2.513 2.033-4.567 4.48-4.567 2.53 0 4.479 2.053 4.479 4.567a4.523 4.523 0 01-1.314 3.175 4.429 4.429 0 01-3.151 1.307h-.015zm0-6.41c-1.035 0-1.823.88-1.823 1.929 0 1.046.788 1.842 1.824 1.842 1.078 0 1.824-.796 1.824-1.842.001-1.05-.746-1.928-1.825-1.928zm1.784 10.139l2.53 2.472c.498.543.498 1.34 0 1.843-.538.543-1.368.543-1.783 0l-2.53-2.514-2.447 2.514c-.248.25-.581.376-.955.376-.29 0-.622-.126-.913-.377-.497-.503-.497-1.299 0-1.843l2.572-2.472a11.62 11.62 0 01-2.652-1.172c-.623-.335-.747-1.172-.415-1.801.415-.629 1.161-.796 1.825-.377a5.687 5.687 0 005.972 0c.664-.419 1.451-.252 1.825.377.373.629.206 1.465-.375 1.801-.787.503-1.7.88-2.653 1.174l-.001-.001z" fill="url(#paint0_linear_203_47043)"/><defs><linearGradient id="paint0_linear_203_47043" x1="10.5" y1="14.75" x2="20.5" y2="14.75" gradientUnits="userSpaceOnUse"><stop stop-color="#F6929F"/><stop offset="1" stop-color="#FFC0C8"/></linearGradient></defs></svg>