<svg width="200" height="32" fill="none" xmlns="http://www.w3.org/2000/svg"><path d="M16 0l3.592 11.056h11.625l-9.405 6.833 3.593 11.055L16 22.112l-9.405 6.832 3.593-11.055-9.405-6.833h11.625L16 0z" fill="url(#paint0_linear_220_99601)"/><path d="M58 0l3.592 11.056h11.625l-9.405 6.833 3.593 11.055L58 22.112l-9.405 6.832 3.593-11.055-9.405-6.833h11.625L58 0z" fill="url(#paint1_linear_220_99601)"/><path d="M100 0l3.592 11.056h11.625l-9.405 6.833 3.593 11.055L100 22.112l-9.405 6.832 3.593-11.055-9.405-6.833h11.625L100 0z" fill="url(#paint2_linear_220_99601)"/><path d="M142 0l3.592 11.056h11.625l-9.405 6.833 3.593 11.055L142 22.112l-9.405 6.832 3.593-11.055-9.405-6.833h11.625L142 0z" fill="url(#paint3_linear_220_99601)"/><path d="M184 0l3.592 11.056h11.625l-9.405 6.833 3.593 11.055L184 22.112l-9.405 6.832 3.593-11.055-9.405-6.833h11.625L184 0z" fill="url(#paint4_linear_220_99601)"/><defs><linearGradient id="paint0_linear_220_99601" x1="0" y1="16" x2="32" y2="16" gradientUnits="userSpaceOnUse"><stop stop-color="#F6929F"/><stop offset="1" stop-color="#FFC0C8"/></linearGradient><linearGradient id="paint1_linear_220_99601" x1="42" y1="16" x2="74" y2="16" gradientUnits="userSpaceOnUse"><stop stop-color="#F6929F"/><stop offset="1" stop-color="#FFC0C8"/></linearGradient><linearGradient id="paint2_linear_220_99601" x1="84" y1="16" x2="116" y2="16" gradientUnits="userSpaceOnUse"><stop stop-color="#F6929F"/><stop offset="1" stop-color="#FFC0C8"/></linearGradient><linearGradient id="paint3_linear_220_99601" x1="126" y1="16" x2="158" y2="16" gradientUnits="userSpaceOnUse"><stop stop-color="#F6929F"/><stop offset="1" stop-color="#FFC0C8"/></linearGradient><linearGradient id="paint4_linear_220_99601" x1="168" y1="16" x2="200" y2="16" gradientUnits="userSpaceOnUse"><stop stop-color="#F6929F"/><stop offset="1" stop-color="#FFC0C8"/></linearGradient></defs></svg>