<svg width="184" height="189" fill="none" xmlns="http://www.w3.org/2000/svg"><path d="M159.824 72.413c-.139-.754-.133-1.447.018-2.08.152-.629.427-1.153.827-1.574.399-.42.899-.695 1.501-.824l.362 1.969c-.287.069-.523.21-.708.423a1.735 1.735 0 00-.37.785c-.066.31-.066.646.001 1.006.07.384.199.712.387.985.191.273.422.471.695.596.272.124.565.157.879.098.326-.055.598-.19.814-.405a1.69 1.69 0 00.446-.847c.081-.346.08-.746-.004-1.2l-.174-.947 1.5-.267.175.948c.069.373.193.688.374.944.182.26.404.45.668.568.268.118.557.148.867.09a1.45 1.45 0 00.755-.346c.202-.176.343-.402.423-.675.08-.27.09-.573.028-.908a2.348 2.348 0 00-.346-.88 1.696 1.696 0 00-.633-.585 1.32 1.32 0 00-.827-.134l-.344-1.87a2.786 2.786 0 011.68.237c.52.254.959.637 1.317 1.15.362.513.607 1.117.734 1.811.132.716.112 1.361-.061 1.936-.168.578-.451 1.052-.849 1.422a2.74 2.74 0 01-1.415.7c-.605.111-1.145.024-1.62-.263-.475-.283-.829-.703-1.061-1.26l-.084.014c.033.773-.14 1.4-.521 1.883-.377.485-.901.785-1.573.901a2.755 2.755 0 01-1.711-.225c-.535-.255-.991-.657-1.371-1.206-.378-.545-.638-1.202-.779-1.97zm1.201 7.956l-.038-2.109 10.979 3.646.045 2.439-10.839 4.038-.039-2.109 8.619-3.066-.002-.085-8.725-2.754zm4.279-.007l.105 5.751-1.587.028-.106-5.75 1.588-.029zm4.97 20.801l-10.768-1.739.324-1.934 9.148 1.478.786-4.709-9.148-1.477.324-1.934 10.767 1.739-1.433 8.576zm-1.385 5.45l-.677 1.841-7.002-2.493-.035.095 5.228 7.309-.614 1.666-10.271-3.657.683-1.855 6.997 2.49.031-.085-5.217-7.322.606-1.645 10.271 3.656zm-13.407 19.618l1.02-1.713a2.5 2.5 0 00.913.162c.299-.004.584-.059.854-.166.27-.107.518-.264.744-.47.227-.201.427-.445.597-.733.304-.51.444-1.036.42-1.579-.02-.54-.212-1.065-.574-1.573-.36-.506-.895-.963-1.605-1.372-.723-.416-1.398-.654-2.026-.716-.626-.058-1.182.037-1.667.283-.484.25-.876.629-1.178 1.136a3.153 3.153 0 00-.359.852c-.07.291-.09.577-.058.858a2.316 2.316 0 00.816 1.521l-1.029 1.708a4.213 4.213 0 01-1.016-1.144 4.22 4.22 0 01-.549-1.429 4.375 4.375 0 01.013-1.604c.107-.554.327-1.11.659-1.669.491-.824 1.122-1.45 1.891-1.876.77-.426 1.629-.617 2.577-.572.947.045 1.928.36 2.943.943 1.018.586 1.777 1.275 2.276 2.066.502.794.752 1.624.751 2.493-.001.869-.245 1.712-.732 2.531a5.48 5.48 0 01-1.089 1.329c-.415.364-.87.64-1.365.826a4.073 4.073 0 01-1.558.266 4.506 4.506 0 01-1.669-.358zm-9.148.066l1.387-1.593 5.813 9.916-1.603 1.842-10.866-4.113 1.386-1.592 8.544 3.378.056-.065-4.717-7.773zm3.224 2.803l-3.782 4.344-1.213-1.021 3.782-4.344 1.213 1.021zm-3.667 11.28l1.082 1.252-6.686 5.587-1.082-1.252 2.59-2.164-6.045-6.991 1.506-1.259 6.045 6.992 2.59-2.165zm-12.372 6.303l-2.389 1.407c-.72.423-1.408.67-2.065.74-.658.075-1.253-.018-1.785-.276-.532-.259-.972-.673-1.319-1.243-.349-.572-.518-1.158-.508-1.757.012-.595.202-1.168.57-1.718.365-.549.907-1.035 1.627-1.459l3.525-2.075 5.669 9.307-1.709 1.007-4.828-7.926-1.815 1.069c-.38.224-.658.484-.835.782a1.705 1.705 0 00.002 1.795c.24.394.597.639 1.071.734.473.1.994-.017 1.564-.353l2.389-1.407.836 1.373zm-18.627 9.29l1.868-.699c.171.285.373.517.608.699.235.184.491.319.768.405.277.086.569.119.873.099.303-.015.611-.081.924-.198.556-.208.995-.532 1.316-.97.323-.436.503-.965.539-1.589.038-.62-.091-1.313-.387-2.077-.301-.777-.677-1.387-1.126-1.829-.452-.437-.943-.711-1.474-.823a2.927 2.927 0 00-1.629.15 3.142 3.142 0 00-.812.441 2.462 2.462 0 00-.584.633 2.27 2.27 0 00-.317.789c-.06.288-.06.591-.002.91l-1.871.69a4.242 4.242 0 01-.072-1.53c.065-.51.222-.996.469-1.46a4.383 4.383 0 011.015-1.244c.43-.366.95-.663 1.559-.891.899-.337 1.781-.43 2.647-.281.866.149 1.653.538 2.361 1.167.709.629 1.275 1.489 1.698 2.581.424 1.095.583 2.108.475 3.038-.107.934-.433 1.74-.979 2.418-.545.678-1.263 1.184-2.155 1.518a5.5 5.5 0 01-1.68.357 4.419 4.419 0 01-1.579-.21 4.062 4.062 0 01-1.379-.768 4.518 4.518 0 01-1.074-1.326zm-14.016-4.392l1.95-.354 1.71 9.093 1.783-.324c.482-.088.866-.231 1.15-.431.281-.195.472-.443.571-.742.096-.295.109-.633.037-1.013-.071-.38-.205-.688-.401-.923a1.45 1.45 0 00-.793-.467c-.336-.076-.744-.071-1.223.016l-2.611.475-.303-1.612 2.874-.522c.825-.15 1.546-.14 2.163.029.618.173 1.122.483 1.51.932.385.453.642 1.023.771 1.711.129.683.098 1.308-.092 1.872a2.988 2.988 0 01-1.053 1.436c-.509.389-1.175.657-1.996.807l-4.032.733-2.015-10.716zm6.466 3.846l-2.124.386 1.698-5.33 2.171-.394-1.745 5.338zm-44.205-10.03c.701.312 1.27.708 1.707 1.188.433.48.709 1.002.829 1.568a2.81 2.81 0 01-.175 1.698l-1.833-.813c.107-.275.125-.548.054-.82a1.723 1.723 0 00-.437-.747 2.563 2.563 0 00-.83-.567 2.555 2.555 0 00-1.035-.238 1.75 1.75 0 00-.888.235 1.433 1.433 0 00-.582.668 1.447 1.447 0 00-.13.897c.054.3.202.581.445.844.24.262.57.486.993.673l.882.392-.635 1.383-.882-.391a2.377 2.377 0 00-.993-.225 1.642 1.642 0 00-.85.228c-.25.153-.44.374-.568.663-.132.279-.18.55-.145.814.03.266.136.509.317.729.177.218.422.397.733.535.306.135.614.206.924.212.31.005.591-.058.844-.191a1.32 1.32 0 00.582-.603l1.74.771a2.792 2.792 0 01-1.154 1.247 3.47 3.47 0 01-1.7.434c-.63.008-1.267-.132-1.913-.418-.666-.296-1.188-.676-1.564-1.142-.381-.464-.612-.964-.69-1.5a2.716 2.716 0 01.228-1.558c.253-.559.633-.953 1.14-1.182.505-.231 1.054-.284 1.646-.161l.036-.078c-.657-.408-1.077-.904-1.258-1.489-.186-.583-.135-1.184.152-1.802a2.77 2.77 0 011.162-1.278c.515-.295 1.107-.444 1.776-.446.667-.003 1.357.153 2.072.47zm-7.371-3.528l1.77 1.153-9.315 6.937-2.046-1.333 2.87-11.139 1.768 1.153-2.401 8.776.072.047 7.282-5.594zm-2.447 3.505l-4.824-3.144.887-1.315 4.824 3.144-.887 1.315zm-20.078-7.467l7.576-7.835 1.434 1.34-6.437 6.657 3.49 3.261 6.437-6.657 1.433 1.34-7.576 7.836-6.357-5.942zm-3.902-4.282l-1.16-1.582 6.06-4.296-.06-.082-9.097.157-1.05-1.432 8.893-6.303 1.17 1.595-6.058 4.293.054.073 9.103-.141 1.037 1.415-8.892 6.303zm-8.956-21.997l.86 1.799a2.458 2.458 0 00-.651.647 2.294 2.294 0 00-.37 1.657c.04.298.133.598.277.9.256.535.618.947 1.086 1.235.466.29 1.014.432 1.644.426.627-.004 1.313-.178 2.057-.522.757-.35 1.339-.762 1.746-1.236.402-.475.637-.979.704-1.512.063-.534-.032-1.067-.287-1.599a3.205 3.205 0 00-.511-.774 2.566 2.566 0 00-.687-.534 2.412 2.412 0 00-1.736-.201l-.85-1.803a4.33 4.33 0 011.533-.174c.518.03 1.02.152 1.508.365.484.215.93.522 1.337.92.404.401.746.894 1.027 1.481.414.866.582 1.731.504 2.597-.077.866-.402 1.67-.976 2.412-.573.743-1.39 1.36-2.454 1.851-1.066.493-2.072.718-3.018.673-.949-.042-1.787-.31-2.515-.804-.727-.493-1.297-1.17-1.707-2.029a5.401 5.401 0 01-.5-1.636 4.273 4.273 0 01.079-1.575c.12-.505.339-.977.657-1.413a4.426 4.426 0 011.243-1.151zm5.077-7.349l.556 2.035-11.556-.927-.642-2.354 9.532-6.492.556 2.036-7.616 5.022.023.082 9.148.598zm-4.152 1.023l-1.514-5.553 1.534-.404 1.514 5.552-1.534.405zm-7.394-9.392l-1.648.163-.89-8.659 1.649-.164.344 3.355 9.207-.915.2 1.95-9.206.915.344 3.354zm1.671-13.702l.172-2.764c.052-.833.233-1.538.543-2.117.307-.583.717-1.019 1.23-1.308.512-.29 1.102-.414 1.768-.374.67.04 1.25.236 1.741.586.487.349.856.832 1.106 1.448.25.613.349 1.335.297 2.168l-.254 4.077-10.892-.657.123-1.977 9.275.559.131-2.1c.028-.439-.032-.816-.18-1.13a1.73 1.73 0 00-1.49-1.023 1.537 1.537 0 00-1.208.46c-.348.33-.543.826-.584 1.485l-.172 2.764-1.606-.097zm2.789-20.6l-.482 1.932a2.503 2.503 0 00-.92.101 2.362 2.362 0 00-1.347 1.061c-.16.257-.28.548-.36.871-.144.576-.126 1.12.054 1.634.175.514.51.963 1.003 1.349.49.384 1.134.673 1.932.865.812.196 1.527.235 2.146.118.616-.122 1.12-.369 1.514-.741.39-.377.657-.851.8-1.423a3.16 3.16 0 00.097-.918c-.017-.3-.08-.58-.191-.84a2.356 2.356 0 00-1.22-1.23l.492-1.93c.486.193.92.464 1.303.812.382.344.695.75.937 1.217.239.467.389.981.45 1.543a5.176 5.176 0 01-.15 1.788c-.231.93-.654 1.708-1.268 2.334-.614.626-1.381 1.05-2.301 1.274-.92.224-1.95.198-3.09-.077-1.143-.276-2.067-.723-2.774-1.342-.709-.62-1.189-1.348-1.438-2.182-.25-.834-.26-1.713-.03-2.636a5.44 5.44 0 01.66-1.582 4.378 4.378 0 011.068-1.178c.416-.319.888-.55 1.414-.693a4.515 4.515 0 011.701-.127zm11.334-8.438l-.812 1.807-8.496-3.695-.743 1.65c-.2.447-.3.844-.295 1.19.002.341.099.637.29.886.19.245.463.445.818.6.355.154.686.217.991.187a1.46 1.46 0 00.837-.391c.253-.234.48-.573.679-1.016l1.087-2.418 1.506.655-1.197 2.66c-.343.764-.76 1.353-1.25 1.766-.493.413-1.036.653-1.627.72-.594.063-1.211-.044-1.853-.324-.64-.277-1.138-.653-1.498-1.127a2.962 2.962 0 01-.592-1.673c-.033-.637.122-1.336.464-2.097l1.68-3.732 10.011 4.353zm-6.848 3.17l.884-1.966 3.45 4.39-.905 2.01-3.429-4.434zm26.588-26.648c-.595.484-1.209.813-1.841.988-.63.173-1.228.189-1.797.047a2.886 2.886 0 01-1.472-.898l1.555-1.262c.203.214.445.35.724.406.277.054.57.034.876-.06.306-.093.601-.255.885-.485.303-.247.529-.517.676-.81.145-.297.205-.592.18-.887a1.399 1.399 0 00-.35-.807 1.49 1.49 0 00-.761-.507 1.752 1.752 0 00-.968.024c-.345.098-.697.292-1.055.583l-.748.608-.98-1.166.748-.608c.295-.24.51-.5.646-.78a1.57 1.57 0 00.169-.85 1.409 1.409 0 00-.352-.791 1.472 1.472 0 00-.679-.485 1.438 1.438 0 00-.805-.039c-.278.061-.55.2-.814.414-.259.21-.46.452-.603.723-.143.272-.21.548-.2.83.006.277.104.537.292.777l-1.476 1.2c-.382-.477-.59-.998-.626-1.565a3.323 3.323 0 01.36-1.691c.271-.56.681-1.062 1.23-1.508.565-.459 1.143-.753 1.736-.882.592-.133 1.15-.118 1.674.047.523.165.963.46 1.32.883.398.468.589.977.572 1.525-.014.547-.208 1.055-.584 1.524l.055.066c.664-.402 1.303-.556 1.917-.46.614.091 1.14.399 1.576.923a2.7 2.7 0 01.65 1.585c.041.584-.086 1.172-.381 1.765-.293.59-.742 1.13-1.349 1.623zm6.466-4.888l-1.828 1.053-2.253-11.29 2.114-1.216 8.915 7.454-1.828 1.053-6.962-5.998-.074.043 1.916 8.901zm-2.129-3.71l4.986-2.869.813 1.364-4.987 2.87-.812-1.364zM69.548 6.625l3.81 10.222-1.844.664-3.237-8.685-4.49 1.618 3.236 8.685-1.844.664-3.81-10.222 8.18-2.946zm5.653-1.551l1.935-.317 1.243 7.331.1-.016 3.819-8.161 1.75-.287 1.825 10.755-1.95.32-1.243-7.326-.09.014-3.835 8.159-1.729.284-1.825-10.756zM99.06 6.983l-1.992-.038c-.05-.328-.15-.62-.297-.875a2.33 2.33 0 00-1.326-1.074 3.033 3.033 0 00-.93-.157 2.827 2.827 0 00-1.585.417c-.464.286-.831.713-1.102 1.28-.27.562-.414 1.254-.43 2.074-.017.835.099 1.54.346 2.117.252.573.602 1.01 1.05 1.309.453.296.973.45 1.563.461.326.007.633-.03.918-.11.29-.083.55-.208.78-.374a2.375 2.375 0 00.94-1.463l1.992.049c-.085.517-.256 1-.513 1.45-.255.45-.584.845-.989 1.185a4.448 4.448 0 01-1.411.783 5.205 5.205 0 01-1.78.253c-.958-.018-1.81-.256-2.553-.714-.744-.459-1.324-1.11-1.74-1.957-.417-.846-.613-1.855-.59-3.027.024-1.175.262-2.176.716-3.002.453-.83 1.06-1.459 1.822-1.888.762-.43 1.618-.635 2.57-.617.607.012 1.17.108 1.688.288.519.18.979.44 1.38.778.403.334.73.742.983 1.223.257.477.42 1.02.49 1.629zm4.988 7.893l-2.426-.475 5.86-9.97 2.917.571 1.527 11.415-2.426-.475-1.012-8.773-.084-.017-4.356 7.724zm.699-4.233l5.729 1.12-.357 1.766-5.729-1.121.357-1.765zm11.807-2.455l.591-1.548 8.165 3.014-.591 1.548-3.163-1.168-3.301 8.644-1.839-.68 3.301-8.643-3.163-1.167zm11.75 7.575l2.41 1.365c.726.412 1.28.882 1.66 1.412.386.529.593 1.085.622 1.668.028.584-.127 1.164-.464 1.74-.34.578-.778 1.01-1.314 1.293-.535.281-1.136.397-1.804.35-.665-.046-1.36-.275-2.086-.686l-3.555-2.014 5.517-9.412 1.724.977-4.698 8.015 1.831 1.037c.383.217.75.329 1.1.335.35.007.662-.07.936-.228a1.75 1.75 0 00.659-.65c.233-.398.277-.824.132-1.278-.141-.455-.499-.845-1.073-1.17l-2.41-1.366.813-1.388zm17.316 11.388l-1.536-1.268a2.44 2.44 0 00.321-.86 2.304 2.304 0 00-.017-.857 2.329 2.329 0 00-.341-.799 3.003 3.003 0 00-.629-.699 2.859 2.859 0 00-1.506-.663c-.545-.067-1.103.034-1.674.303-.569.268-1.12.713-1.653 1.337-.542.634-.898 1.252-1.07 1.851-.166.6-.168 1.155-.007 1.666.167.51.477.953.932 1.328a3.2 3.2 0 00.789.486c.28.116.563.18.849.196a2.413 2.413 0 001.664-.546l1.529 1.276a4.352 4.352 0 01-1.322.801 4.41 4.41 0 01-1.525.302 4.544 4.544 0 01-1.602-.273 5.25 5.25 0 01-1.555-.91c-.739-.61-1.255-1.324-1.547-2.14-.293-.818-.334-1.683-.124-2.596.21-.913.696-1.815 1.457-2.706.763-.894 1.584-1.52 2.463-1.876.881-.359 1.756-.468 2.625-.326.869.142 1.671.515 2.404 1.121.469.387.849.811 1.141 1.273.292.462.488.948.588 1.46a3.903 3.903 0 01-.005 1.556 4.415 4.415 0 01-.649 1.563zm2.798 13.785l-1.286-1.507 7.143-5.89-1.176-1.378c-.318-.373-.635-.633-.953-.78a1.492 1.492 0 00-.938-.132c-.307.06-.611.214-.909.46-.299.247-.503.511-.611.794-.106.28-.111.584-.015.91.101.326.309.674.625 1.044l1.721 2.018-1.265 1.044-1.895-2.22c-.544-.638-.896-1.264-1.055-1.878-.157-.616-.135-1.2.066-1.752.206-.552.579-1.05 1.118-1.495.537-.443 1.102-.72 1.694-.83a3.087 3.087 0 011.788.209c.596.25 1.165.692 1.706 1.327l2.659 3.116-8.417 6.94zm.153-7.436l1.4 1.641-5.536 1.127-1.431-1.678 5.567-1.09z" fill="#fff"/><g filter="url(#filter0_dii_79_863)"><path d="M151.039 82.09c0 32.023-26.407 57.997-59 57.997s-59-25.974-59-57.996c0-32.022 26.407-57.996 59-57.996s59 25.974 59 57.996z" stroke="url(#paint0_linear_79_863)"/></g><path d="M151.517 81.731c0 32.307-26.639 58.496-59.5 58.496-32.86 0-59.5-26.189-59.5-58.496 0-32.306 26.64-58.496 59.5-58.496 32.861 0 59.5 26.19 59.5 58.496z" fill="url(#paint1_linear_79_863)"/><path d="M149.517 81.731c0 31.17-25.711 56.496-57.5 56.496-31.788 0-57.5-25.326-57.5-56.496s25.711-56.496 57.5-56.496 57.5 25.326 57.5 56.496z" stroke="#fff" stroke-width="4"/><path d="M122.017 95.243a51.402 51.402 0 00-2.297-4.975c-1.29-2.557-2.754-5.235-5.155-6.947a8.116 8.116 0 00-1.876-1.005 2.678 2.678 0 00-2.327-.029 3.575 3.575 0 00-1.334 1.537c-.397.75-.71 1.55-1.032 2.331a62.788 62.788 0 00-.993 2.59 63.736 63.736 0 00-3.17 9.718c-.412 1.731-.809 3.57-.353 5.336a4.568 4.568 0 001.023 2.01 4.693 4.693 0 001.87 1.293 10.51 10.51 0 002.605.521c.891.087 1.787.095 2.679.025a19.204 19.204 0 005.225-1.166 12.173 12.173 0 004.089-2.293 6.014 6.014 0 001.945-4.078 11.671 11.671 0 00-.899-4.868z" fill="#FFBFC6"/><path d="M101.967 76.37a18.762 18.762 0 00-4.029-6.342 10.93 10.93 0 00-6.882-3.258 20.343 20.343 0 00-4.713.303 89.777 89.777 0 00-4.714.853 24.951 24.951 0 00-7.641 2.893 28.13 28.13 0 00-7.443 6.512 28.06 28.06 0 00-2.153 2.37c-1.732 2.142-3.19 4.615-3.682 7.318-.526 2.926.213 5.853 1.489 8.492a21.174 21.174 0 004.232 5.854 22.617 22.617 0 0012.96 6.341 22.403 22.403 0 0014.438-3.399c4.27-2.735 7.448-6.836 8.996-11.61a24.663 24.663 0 00-.858-16.327z" fill="url(#paint2_linear_79_863)"/><path d="M112.302 77.892a56.032 56.032 0 00-4.912-10.732 26.567 26.567 0 01-2.481-5.331 9.868 9.868 0 010-5.761 19.688 19.688 0 012.585-5.04c.12-.18-.089-.346-.253-.302a11.529 11.529 0 00-3.726-.678c-1.32-.035-2.64.109-3.92.43a14.01 14.01 0 00-3.617 1.463 14.932 14.932 0 00-3.27 2.63c-.992 1.043-1.954 2.15-2.977 3.17a30.27 30.27 0 01-3.12 2.707 17.36 17.36 0 01-7.339 3.356c-.342.059-.69.093-1.042.132a1.51 1.51 0 00-.824.278 1.156 1.156 0 00-.347.81c-.027.354-.027.71 0 1.063.055 1.48.391 2.935.992 4.293.124.288.258.566.407.839-.45.445-.995.785-1.596.997a4.347 4.347 0 01-1.877.222c-.119 0-.203.108-.213.21a8.26 8.26 0 00.268 2.722c-.323-.049-.626-.2-.948-.234a1.748 1.748 0 00-.992.18 2.31 2.31 0 00-.804.706 2.26 2.26 0 00-.392.987 4.548 4.548 0 00.496 2.507c.322.732.675 1.464.442 2.273 0 .069-.05.137-.075.2-.025.064-.094 0-.1.083a1.485 1.485 0 01-.103.337c-.3.484-.748.863-1.28 1.083a.1.1 0 00-.067.073.096.096 0 00.032.093 2.596 2.596 0 00-1.136 1.463c-.343 1.634 1.32 3.015 2.48 3.868 3.111 2.283 6.565 4.259 10.385 5.113 3.414.76 7.155.546 10.31-1.035.342-.172.673-.362.993-.57.555.448 1.19.792 1.87 1.014-1.646 2.82-2.043 6.108-2.311 9.308-.095 1.122-.179 2.248-.313 3.365l-.566.039c-1.915.113-3.835.142-5.74.415-1.798.203-3.53.79-5.071 1.722a8.052 8.052 0 00-3.022 3.444 5.209 5.209 0 00-.045 4.21 5.512 5.512 0 001.263 1.77 5.623 5.623 0 001.858 1.156c3.206 1.181 6.381-1.107 8.217-3.517a16.844 16.844 0 002.555-4.878 21.68 21.68 0 00.854-4.004c3.09-.22 6.182-.669 9.06-1.849a16.558 16.558 0 007.596-6.342 20.996 20.996 0 003.196-9.268 27.952 27.952 0 00-1.38-11.19zm-19.35 31.219a16.658 16.658 0 01-2.412 5.449c-1.85 2.727-5.428 5.61-8.896 3.785a5.102 5.102 0 01-1.854-1.618 4.993 4.993 0 01-.865-2.284A5.87 5.87 0 0179.33 112a5.946 5.946 0 011.38-2.069c2.745-2.893 6.947-3.108 10.713-3.278.66-.03 1.325-.069 1.985-.112a25.145 25.145 0 01-.447 2.58l-.01-.01zm19.663-16.648a18.811 18.811 0 01-4.629 8.326c-2.551 2.586-5.905 4.039-9.453 4.752-1.561.3-3.14.504-4.728.609a41.75 41.75 0 00.159-1.546c.322-3.566.456-7.234 2.173-10.478.096-.176.195-.351.298-.527.993.25 2.043.17 2.985-.229a4.622 4.622 0 002.225-1.97c.243-.489.61-1.347.074-1.757-.536-.41-1.29-.097-1.801.151a8.877 8.877 0 00-3.419 3.069c-.07.102-.134.21-.198.312a5.432 5.432 0 01-1.732-.908c2.6-1.79 4.401-4.575 5.518-7.463.689-1.78 1.096-3.77.679-5.663-.317-1.464-1.315-2.927-2.977-3-1.553-.054-3.036.902-3.97 2.044a10.116 10.116 0 00-1.944 4.078c-.814 3.326-.705 7.439 1.984 9.936-.133.083-.262.166-.396.24a13.222 13.222 0 01-4.962 1.555c-3.672.41-7.304-.536-10.569-2.16a35.245 35.245 0 01-4.793-2.928 9.842 9.842 0 01-2.099-1.834c-.496-.634-.903-1.463-.526-2.263a4.193 4.193 0 011.355-1.322 2.63 2.63 0 001.173-1.2 2.57 2.57 0 00.197-1.654c-.18-.829-.67-1.556-.864-2.385a2.307 2.307 0 01.496-2.249c.258-.268.613-.426.988-.439.466 0 .878.269 1.354.234a.222.222 0 00.17-.084.213.213 0 00.039-.184 8.028 8.028 0 01-.333-2.678 4.735 4.735 0 001.989-.335 4.667 4.667 0 001.658-1.128.203.203 0 00.035-.244 11.46 11.46 0 01-1.34-4.142c-.04-.36-.064-.727-.074-1.087a5.85 5.85 0 01.03-1.025.684.684 0 01.228-.426.707.707 0 01.456-.174c.328-.049.655-.073.993-.122a16.984 16.984 0 007.115-3.034 36.659 36.659 0 005.954-5.478 18.847 18.847 0 013.156-2.927 13.488 13.488 0 013.443-1.697 14.32 14.32 0 017.591-.298l.72.17a19.787 19.787 0 00-2.526 4.957 10.083 10.083 0 00-.213 5.302 20.087 20.087 0 002.114 5.05c.918 1.672 1.885 3.311 2.739 5.019 3.264 6.502 5.418 14.014 3.468 21.243l-.01-.01zm-15.932.804a8.88 8.88 0 012.48-2.634c.551-.37 1.311-.883 1.985-.82.958.093.129 1.528-.183 1.952a4.343 4.343 0 01-1.826 1.329 4.416 4.416 0 01-2.258.242l-.198-.069zm-3.637-2.721a9.278 9.278 0 01-1.156-5.444 13.292 13.292 0 011.096-4.766 6.715 6.715 0 012.828-3.259 3.508 3.508 0 012.64-.405c.364.15.693.37.967.648.274.279.487.61.626.972.784 1.732.496 3.824-.075 5.57a18.05 18.05 0 01-2.535 4.976 12.579 12.579 0 01-3.195 3.137c-.471-.419-.88-.9-1.216-1.43h.02z" fill="#fff" stroke="#fff" stroke-width="1.5"/><path d="M77.456 75.375c-.457-1.112-1.097-2.278-2.273-2.776a.15.15 0 00-.22.132.145.145 0 00.052.108.15.15 0 00.054.029c1.211.439 1.821 1.736 2.258 2.839.374.973.688 1.969.938 2.98a10.463 10.463 0 00-1.295-1.77 9.216 9.216 0 00-.993-.976c-.06-.054-.813-.683-.853-.488-.04.195.164.268.263.351.178.142.347.288.496.44.328.295.638.609.928.94a12.619 12.619 0 011.429 2.103 4.54 4.54 0 00-2.431-1.185 4.266 4.266 0 00-1.854.12 4.218 4.218 0 00-1.62.894.064.064 0 00-.012.09.066.066 0 00.092.013 5.757 5.757 0 011.607-.756 4.358 4.358 0 011.757-.112 4.365 4.365 0 012.848 1.673c.074.092.243.043.208-.088a32.959 32.959 0 00-1.379-4.561z" fill="#fff" stroke="#fff"/><path d="M107.544 50.873a7.034 7.034 0 00-1.742-1.952 13.706 13.706 0 00-2.217-1.463 18.993 18.993 0 00-5.215-1.859c-3.672-.721-7.765-.468-11.115 1.332-1.424.766-2.758 1.922-3.205 3.512a3.883 3.883 0 00-.016 1.991c.167.654.503 1.255.974 1.746-.11.177-.205.363-.283.556a4.655 4.655 0 00-.094 2.668 6.275 6.275 0 001.93 3.273c.173.157.431-.092.258-.248a5.915 5.915 0 01-1.443-1.935 5.824 5.824 0 01-.542-2.339 3.499 3.499 0 01.427-1.736c.044.034.08.068.124.097a3.34 3.34 0 004.014-.121c.496-.415.963-1.132.74-1.8-.269-.796-1.326-.61-1.986-.488a4.936 4.936 0 00-2.882 1.736 3.554 3.554 0 01-.82-1.613 3.517 3.517 0 01.085-1.801c.457-1.464 1.722-2.464 3.032-3.156 3.047-1.61 6.763-1.952 10.137-1.38 3.26.536 6.544 1.867 8.896 4.209.283.288.556.575.844.858a.075.075 0 00.077-.013.07.07 0 00.022-.034.069.069 0 000-.04zM85.578 53.98a4.391 4.391 0 011.677-1.23c.333-.143.68-.25 1.037-.316.374-.1.764-.12 1.147-.064.372.098.436.488.362.795a1.694 1.694 0 01-.496.84 2.942 2.942 0 01-3.662.18 1.392 1.392 0 01-.13-.112l.065-.093z" fill="#fff" stroke="#fff" stroke-width="1.5"/><path d="M101.684 63.2s0-.045-.025-.045a13.33 13.33 0 01-4.361-1.312c-.67-.312-1.335-.639-2.014-.941a4.663 4.663 0 00-2.025-.59 2.11 2.11 0 00-.94.291c-.284.17-.523.405-.697.684-.05.083-.184 1.117-.338 1.57a5.36 5.36 0 01-.71 1.464c-.278.415-.64.77-1.061 1.044a3.336 3.336 0 01-1.255.43l-.199-.157a7.877 7.877 0 01-.382-.327c-.124-.112-.293-.243-.446-.365a.095.095 0 00-.15.051.092.092 0 00.006.06c.073.136.158.265.253.386.109.127.223.249.342.366.24.233.493.452.76.654a11.09 11.09 0 001.676 1.029 15.67 15.67 0 004.005 1.38 5.594 5.594 0 002.525.05.095.095 0 00.063-.037.092.092 0 00-.017-.13.096.096 0 00-.07-.02 14.166 14.166 0 01-2.224-.243 19.805 19.805 0 01-1.984-.566 14.26 14.26 0 01-3.474-1.634 9.686 9.686 0 01-.396-.278 3.571 3.571 0 002.183-1.415 5.23 5.23 0 00.784-1.541c.146-.53.265-1.068.357-1.61.382.05.747.19 1.062.41.327.18.655.351.992.536.665.366 1.33.732 2.024 1.044a7.15 7.15 0 003.86.712 3.132 3.132 0 001.891-.824.077.077 0 00.017-.031.07.07 0 00.003-.035.085.085 0 00-.035-.06zm-3.81.555c-1.424-.287-2.68-1.024-3.97-1.673-.342-.17-.685-.346-1.042-.488a2.163 2.163 0 00-.947-.224c.164-.238.386-.433.646-.566a1.81 1.81 0 01.842-.2c.377.028.747.12 1.092.273.332.132.66.273.992.415a30.248 30.248 0 003.756 1.556 8.462 8.462 0 002.243.376 5.628 5.628 0 01-1.672.61 5.55 5.55 0 01-1.94-.079z" fill="#fff" stroke="#fff"/><ellipse cx="33.377" cy="36.898" rx="5" ry="4.916" fill="url(#paint3_linear_79_863)"/><ellipse cx="160.377" cy="50.661" rx="5" ry="4.916" fill="url(#paint4_linear_79_863)"/><ellipse cx="83.377" cy="155.856" rx="5" ry="4.916" fill="url(#paint5_linear_79_863)"/><defs><linearGradient id="paint0_linear_79_863" x1="92.039" y1="23.595" x2="92.039" y2="140.587" gradientUnits="userSpaceOnUse"><stop stop-color="#fff"/><stop offset="1" stop-color="#D6D6D6"/></linearGradient><linearGradient id="paint1_linear_79_863" x1="53.377" y1="33.948" x2="90.866" y2="140.632" gradientUnits="userSpaceOnUse"><stop stop-color="#706464"/><stop offset="1" stop-color="#4A4141"/></linearGradient><linearGradient id="paint2_linear_79_863" x1="60.539" y1="87.287" x2="103.822" y2="87.287" gradientUnits="userSpaceOnUse"><stop stop-color="#F6929F"/><stop offset="1" stop-color="#FFC0C8"/></linearGradient><linearGradient id="paint3_linear_79_863" x1="28.377" y1="36.898" x2="38.377" y2="36.898" gradientUnits="userSpaceOnUse"><stop stop-color="#F6929F"/><stop offset="1" stop-color="#FFC0C8"/></linearGradient><linearGradient id="paint4_linear_79_863" x1="155.377" y1="50.661" x2="165.377" y2="50.661" gradientUnits="userSpaceOnUse"><stop stop-color="#F6929F"/><stop offset="1" stop-color="#FFC0C8"/></linearGradient><linearGradient id="paint5_linear_79_863" x1="78.377" y1="155.856" x2="88.377" y2="155.856" gradientUnits="userSpaceOnUse"><stop stop-color="#F6929F"/><stop offset="1" stop-color="#FFC0C8"/></linearGradient><filter id="filter0_dii_79_863" x=".806" y="7.728" width="182.467" height="180.459" filterUnits="userSpaceOnUse" color-interpolation-filters="sRGB"><feFlood flood-opacity="0" result="BackgroundImageFix"/><feColorMatrix in="SourceAlpha" values="0 0 0 0 0 0 0 0 0 0 0 0 0 0 0 0 0 0 127 0" result="hardAlpha"/><feOffset dy="15.867"/><feGaussianBlur stdDeviation="15.867"/><feColorMatrix values="0 0 0 0 0.2 0 0 0 0 0.2 0 0 0 0 0.2 0 0 0 0.25 0"/><feBlend in2="BackgroundImageFix" result="effect1_dropShadow_79_863"/><feBlend in="SourceGraphic" in2="effect1_dropShadow_79_863" result="shape"/><feColorMatrix in="SourceAlpha" values="0 0 0 0 0 0 0 0 0 0 0 0 0 0 0 0 0 0 127 0" result="hardAlpha"/><feOffset dy="5.289"/><feGaussianBlur stdDeviation="2.644"/><feComposite in2="hardAlpha" operator="arithmetic" k2="-1" k3="1"/><feColorMatrix values="0 0 0 0 1 0 0 0 0 1 0 0 0 0 1 0 0 0 1 0"/><feBlend in2="shape" result="effect2_innerShadow_79_863"/><feColorMatrix in="SourceAlpha" values="0 0 0 0 0 0 0 0 0 0 0 0 0 0 0 0 0 0 127 0" result="hardAlpha"/><feOffset dy="-2.644"/><feGaussianBlur stdDeviation="1.322"/><feComposite in2="hardAlpha" operator="arithmetic" k2="-1" k3="1"/><feColorMatrix values="0 0 0 0 0.8 0 0 0 0 0.8 0 0 0 0 0.8 0 0 0 1 0"/><feBlend in2="effect2_innerShadow_79_863" result="effect3_innerShadow_79_863"/></filter></defs></svg>