<svg width="36" height="36" fill="none" xmlns="http://www.w3.org/2000/svg"><path d="M18 0C8.056 0 0 8.057 0 18s8.057 18 18 18c9.944 0 18-8.057 18-18S27.943 0 18 0zm8.84 12.332l-2.953 13.921c-.219.987-.806 1.227-1.626.762l-4.5-3.317-2.17 2.09c-.24.24-.443.443-.908.443l.32-4.58 8.339-7.534c.363-.32-.08-.5-.56-.182l-10.306 6.489-4.442-1.387c-.965-.304-.987-.965.203-1.43l17.354-6.692c.806-.29 1.51.196 1.249 1.416z" fill="url(#paint0_linear_212_98013)"/><defs><linearGradient id="paint0_linear_212_98013" x1="6.31" y1="3.297" x2="18" y2="36" gradientUnits="userSpaceOnUse"><stop stop-color="#706464"/><stop offset="1" stop-color="#4A4141"/></linearGradient></defs></svg>