<svg width="20" height="18" fill="none" xmlns="http://www.w3.org/2000/svg"><path fill-rule="evenodd" clip-rule="evenodd" d="M14.454 3.427a7.726 7.726 0 012.259 6.332.6.6 0 001.192.126 8.927 8.927 0 00-2.61-7.314C11.773-.904 6.089-.848 2.6 2.69c-3.488 3.536-3.465 9.22.06 12.696a8.908 8.908 0 006.115 2.57 9.028 9.028 0 002.567-.325.6.6 0 00-.319-1.157 7.83 7.83 0 01-2.226.282 7.708 7.708 0 01-5.295-2.224C.453 11.524.428 6.6 3.454 3.53c3.026-3.069 7.95-3.11 11-.104z" fill="#fff"/><path fill-rule="evenodd" clip-rule="evenodd" d="M16.865 10.521a.6.6 0 00.847.048l2.064-1.836a.6.6 0 10-.797-.895l-2.064 1.836a.6.6 0 00-.05.847z" fill="#fff"/><path fill-rule="evenodd" clip-rule="evenodd" d="M17.794 10.445a.599.599 0 01-.84.12l-2.4-1.8a.6.6 0 01.72-.96l2.4 1.8a.6.6 0 01.12.84zM9.179 4.687a.6.6 0 00-.6.6v4.199a.6.6 0 101.2 0v-4.2a.6.6 0 00-.6-.6z" fill="#fff"/><path fill-rule="evenodd" clip-rule="evenodd" d="M4.98 9.486a.6.6 0 00.6.6h3.6a.6.6 0 000-1.2h-3.6a.6.6 0 00-.6.6z" fill="#fff"/></svg>