<svg width="119" height="119" fill="none" xmlns="http://www.w3.org/2000/svg"><path d="M118.243 59.794c0 32.579-26.41 58.989-58.99 58.989-32.578 0-58.988-26.41-58.988-58.99C.265 27.216 26.675.806 59.254.806c32.578 0 58.989 26.41 58.989 58.989z" fill="url(#paint0_linear_719_370)"/><path d="M65.19 63.072a49.006 49.006 0 00-7.248-5.495 37.153 37.153 0 00-7.404-3.603 24.602 24.602 0 00-7.9-1.432c-2.739 0-6.249.336-7.834 2.908a3.733 3.733 0 00-.29 3.579c.42.711.93 1.366 1.515 1.95.5.591.94 1.233 1.308 1.915 1.525 2.79 1.905 6.067 1.975 9.197.074 3.051-.134 6.112.172 9.153.138 1.502.445 2.984.914 4.418l.064.168a16.472 16.472 0 001.264 4.349 12.455 12.455 0 002.468 3.609 13.944 13.944 0 003.456 2.508 21.658 21.658 0 008.303 2.29 20.152 20.152 0 008.491-1.032 14.889 14.889 0 006.585-4.62 16.513 16.513 0 003.175-6.764c.545-2.5.614-5.081.202-7.607a23.202 23.202 0 00-3.08-8.145 33.726 33.726 0 00-6.137-7.346z" fill="#FFBFC6"/><path d="M50.684 64.134a23.201 23.201 0 00-4.098-8.985c-.493-.676-.987-1.337-1.545-1.974a9.383 9.383 0 00-1.688-1.679 2.916 2.916 0 00-2.162-.592c-.864.143-1.63.75-2.345 1.22a69.066 69.066 0 00-8.58 6.654c-.85.984-1.615 2.04-2.286 3.154a10.795 10.795 0 00-1.155 4.937 35.877 35.877 0 00.311 4.986 18.67 18.67 0 00.84 4.073 7.776 7.776 0 002.038 3.278c1.21 1.086 2.76 1.48 4.35 1.584 1.773.123 3.555.08 5.32-.128a13.79 13.79 0 004.888-1.456 12.282 12.282 0 005.366-6.31 15.545 15.545 0 00.746-8.762z" fill="url(#paint1_linear_719_370)"/><path d="M40.666 59.875a3.856 3.856 0 002.25-1.54c.105-.178-.123-.316-.26-.203A5.895 5.895 0 0137.94 59.5a13.83 13.83 0 01-2.962-.76 23.122 23.122 0 00-2.893-.988 4.177 4.177 0 00-2.962.45s0 .049.025.039c.923-.494 2.028-.286 2.986 0 .958.286 1.975.74 2.962 1.096 1.753.661 3.698 1.086 5.569.538z" fill="#fff" stroke="#fff"/><path d="M96.03 55.753c-1.288-3.337-4.443-5.648-7.854-6.482.543-.227 1.086-.46 1.624-.706a27.796 27.796 0 003.456-1.772 4.704 4.704 0 002.004-2.231c.434-1.225-.153-2.424-.706-3.505a16.785 16.785 0 00-2.824-4.133c.173-.187.35-.365.519-.552a25.343 25.343 0 003.564-4.986.232.232 0 00.025-.158 3.426 3.426 0 00.172-2.558 2.72 2.72 0 00-3.001-1.821 2.833 2.833 0 00-2.385 2.517c-.046.377-.022.758.07 1.126a3.653 3.653 0 00-1.644 2.103 3.565 3.565 0 00-.134 1.21h-.024a1.615 1.615 0 00-1.481.69l-.06.1a6.083 6.083 0 00-.844-.065 5.924 5.924 0 00-3.199.988c-.237.153-.469.32-.696.493a9.47 9.47 0 00-.395-1.817 10.175 10.175 0 00-4.077-5.272 12.287 12.287 0 00-6.472-2.014 7.193 7.193 0 00-3.599.74 4.27 4.27 0 00-2.093 2.498 3.486 3.486 0 00.523 2.933c.593.918 1.422 1.663 2.03 2.567a8.354 8.354 0 011.144 3.456c.149 1.274.433 2.528.85 3.742a27.86 27.86 0 011.308 3.598c.108.596.183 1.198.227 1.802v.277a4.824 4.824 0 01-.326-.287 8.022 8.022 0 01-.963-1.155c-1.184-1.723-1.752-3.771-2.508-5.702-.755-1.93-1.708-3.771-3.455-4.936a6.98 6.98 0 00-6.418-.647 4.596 4.596 0 00-2.468 2.345 12.168 12.168 0 00-.74 3.49 8.584 8.584 0 00.167 3.668c.185.57.471 1.102.844 1.57.415.47.8.965 1.156 1.48.617.988 1.021 2.138 2.019 2.825.943.571 2.04.835 3.14.755.035.129.078.256.128.38a3.95 3.95 0 002.591 2.113 8.771 8.771 0 01-.824 2.606 9.162 9.162 0 01-4.245 4.231 5.924 5.924 0 01-2.962.568 5.737 5.737 0 01-2.849-1.086c-1.777-1.254-2.794-3.293-3.303-5.361a19.693 19.693 0 01-.276-7.292 29.77 29.77 0 012.858-9.335 6.339 6.339 0 01-.153-.42l-.237.198a19.713 19.713 0 01-5.183 2.75c-1.777.676-3.747 1.17-5.653.804a5.974 5.974 0 01-1.372-.454c.353-.946.52-1.952.494-2.962a7.06 7.06 0 00-.598-2.735c-.34-.755-.893-1.688-1.777-1.86-.795-.154-1.377.448-1.614 1.15a4.571 4.571 0 000 2.418 6.24 6.24 0 002.962 4.024l.079.044c-.14.362-.305.713-.494 1.052a10.442 10.442 0 01-9.054 4.837 5.671 5.671 0 01-4.3-2.33 5.056 5.056 0 01-.582-1.046.06.06 0 10-.118.03 4.32 4.32 0 001.263 2.127 5.925 5.925 0 002.192 1.294c1.975.651 4.132.271 5.988-.519a10.204 10.204 0 005.475-5.272c1.644.75 3.54.686 5.277.261a19.191 19.191 0 002.962-1.031 24.384 24.384 0 002.854-1.422c.415-.242.816-.51 1.2-.8a30.278 30.278 0 00-2.657 8.432 21.087 21.087 0 00.094 7.83c.494 2.191 1.51 4.354 3.342 5.736a6.205 6.205 0 002.898 1.234 6.101 6.101 0 003.19-.494 9.35 9.35 0 004.566-4.398 9.03 9.03 0 00.883-2.75 5.485 5.485 0 001.575.129c.203 0 .405-.045.602-.08a7.346 7.346 0 00-.158 3.54c.182 1.089.538 2.14 1.057 3.115a7.123 7.123 0 002.029 2.468c.357.26.747.473 1.16.632.044.69.044 1.38 0 2.069a16.994 16.994 0 01-.795 3.998c-.859 2.622-2.409 4.937-3.989 7.168-3.065 4.32-6.521 8.393-10.638 11.755-1.081.883-2.33 1.974-3.787 2.108a2.241 2.241 0 01-1.377-.297 2.379 2.379 0 00.257-1.831.172.172 0 00-.198-.114 1.046 1.046 0 00-.814.938 1.247 1.247 0 00.281.958c-.034.035-.064.074-.099.104a.721.721 0 01-1.283-.222 4.27 4.27 0 01-.207-1.748c0-.785 0-1.575.054-2.36.054-.785.138-1.693.138-2.547.245-.083.484-.182.716-.296 1.303-.662 2.355-1.689 3.48-2.602a10.367 10.367 0 012.108-1.372c.78-.282 1.58-.5 2.395-.652a.139.139 0 000-.257c-.366-.079-.75-.064-1.121-.133a6.024 6.024 0 01-1.145-.346 7.035 7.035 0 01-1.881-1.219c-.988-.844-2.084-2.024-3.48-1.975a2.131 2.131 0 00-1.566.845 28.705 28.705 0 01.065-3.125c.03-.36.059-.73.103-1.096a1.85 1.85 0 00.933-1.723.217.217 0 00-.212-.212c-.77.044-.987.849-1.106 1.6a.77.77 0 01-.548-.193c.319-.2.571-.488.726-.83a1.354 1.354 0 00-.193-1.426.222.222 0 00-.266-.035 1.866 1.866 0 00-1.027 1.382c-.027.223.002.448.084.657a5.879 5.879 0 01-.425.173 7.258 7.258 0 01-3.15.355 6.212 6.212 0 01-1.56-.346c-.211-.079-.32-.182-.305-.42.026-.21.093-.412.197-.596a25.08 25.08 0 001.205-2.651 22.505 22.505 0 001.11-11.537 20.005 20.005 0 00-.81-3.214 13.185 13.185 0 00-1.135-2.577 4.378 4.378 0 01-.128-.434 22.74 22.74 0 00-1.91-.563 11.043 11.043 0 00-3.48-.36 7.118 7.118 0 00-3.145.947 18.015 18.015 0 00-2.508 2.118 5.67 5.67 0 01-1.59 1.1 2.156 2.156 0 01-1.061.134 7.57 7.57 0 01-1.11-.202.064.064 0 00-.085.07.063.063 0 00.026.043.065.065 0 00.024.01c.197.08.602.287.631.301 1.012.558 2.232-.088 3.21-.424a14.499 14.499 0 013.687-.884 7.405 7.405 0 013.619.603c.572.261 1.105.597 1.673.863.536.26 1.09.482 1.659.662a3.659 3.659 0 001.57.148c.108.494.207.958.29 1.441a22.86 22.86 0 01.198 6.285 21.72 21.72 0 01-1.565 6.052c-.207.494-.434.987-.676 1.442a2.63 2.63 0 00-.444 1.273c0 .494.4.716.83.864.552.188 1.126.31 1.707.365a7.168 7.168 0 003.619-.572l.079-.04c.091.096.196.177.31.242.174.104.371.16.573.163 0 .163-.024.316-.039.444a27.425 27.425 0 00-.123 3.713 3.061 3.061 0 00-1.299-.963 2.543 2.543 0 00-2.374.277 10.962 10.962 0 00-1.817 1.826 9.832 9.832 0 01-1.925 1.807c-.6.417-1.3.664-2.03.716h-.212a2.655 2.655 0 01-.493-.06c-.198-.039-.286.262-.084.307.025.098 1.649-.055 4.023 2.127a8.886 8.886 0 003.723 2.084 5.775 5.775 0 003.238-.055 15.468 15.468 0 00-.33 2.572c-.06.938-.085 1.881-.07 2.824a2.755 2.755 0 00.494 1.748 1.126 1.126 0 001.644.034 1.74 1.74 0 00.192-.192c1.042.74 2.468.3 3.495-.272a14.079 14.079 0 001.669-1.195 51.424 51.424 0 001.604-1.342 48.372 48.372 0 003.08-2.962 68.941 68.941 0 005.431-6.487c1.723-2.315 3.456-4.705 4.596-7.405.954-2.3 1.397-4.78 1.298-7.267.45.114.914.153 1.373.247.295.045.574.166.81.35.223.209.392.468.493.756a7.41 7.41 0 00.686 1.48 4.828 4.828 0 002.469 1.852c2.256.755 4.556-.494 5.874-2.31a10.318 10.318 0 001.535-3.486c.346-1.208.475-2.468.38-3.722a5.959 5.959 0 00-.923-2.68 5.357 5.357 0 011.792 2.646c.405 1.155.692 2.33 1.205 3.455a12.79 12.79 0 002.044 3.234 1.833 1.833 0 001.441.691 3.235 3.235 0 001.55-.592c3.323-2.143 4.468-6.877 3.056-10.535zM40.676 41.437a5.923 5.923 0 01-2.962-4.522c-.07-.726-.04-1.615.469-2.197.661-.756 1.56-.124 1.999.533.47.741.776 1.575.898 2.444a7.494 7.494 0 01-.404 3.742zm8.392 29.9a1.27 1.27 0 01.4-.799c-.047.324-.19.627-.41.869a.328.328 0 01.025-.054l-.015-.015zM41.875 54.06a12.192 12.192 0 01-1.614-.687c-.543-.281-1.066-.607-1.634-.849-2.113-.903-4.497-.577-6.63.09-.434.132-.864.29-1.293.439l.069-.04c.898-.637 1.634-1.481 2.468-2.147a6.418 6.418 0 013.066-1.363 9.658 9.658 0 013.455.133 17.83 17.83 0 012.034.558l.41.143c.316.889.676 1.758.953 2.661.138.438.261.882.37 1.333a4.266 4.266 0 01-1.639-.262l-.015-.01zm5.86 16.927a1.031 1.031 0 01-.035-.459 1.343 1.343 0 01.627-.884 1.13 1.13 0 01-.197.988 1.656 1.656 0 01-.38.365l-.015-.01zm-5.43 7.484c.597-.597 1.125-1.259 1.703-1.87.577-.613 1.283-1.23 2.226-1.186.485.036.95.207 1.343.494.29.22.557.47.795.745 0 .025.434-.03.434-.078.188-.168.35-.356.543-.519.302-.262.692-.4 1.091-.385.718.066 1.399.35 1.95.815.543.41 1.027.893 1.55 1.323a6.785 6.785 0 001.718 1.061c.294.12.596.217.904.291-.4-.034-.805-.064-1.2-.108l-1.728-.213a34.785 34.785 0 00-3.51-.28 24.459 24.459 0 00-3.505.152 26.696 26.696 0 00-3.342.672c-.622.157-1.249.32-1.876.444-.3.064-.602.113-.903.163l-.632.079a6.122 6.122 0 002.468-1.61l-.03.01zm6.309 5.593a5.238 5.238 0 01-2.316 0 9.344 9.344 0 01-3.914-2.093 13.705 13.705 0 00-2.217-1.703c.306-.025.617-.074.908-.123a22.655 22.655 0 001.625-.356c1.12-.276 2.231-.563 3.376-.73 2.34-.317 4.711-.33 7.055-.04.666.074 1.333.168 1.999.242.38.044.765.094 1.15.128a2.466 2.466 0 00-.256.07 7.375 7.375 0 00-1.91.987c-1.235.854-2.287 1.945-3.55 2.755a6.468 6.468 0 01-1.92.873l-.03-.01zm2.295 6.71a.83.83 0 01-.079-.104.87.87 0 01.346-1.195c.063.45-.031.91-.267 1.298zM93.804 40.39c.316.563.627 1.136.893 1.728.311.608.431 1.296.346 1.974-.208 1.067-1.081 1.842-1.975 2.41a26.179 26.179 0 01-3.456 1.777c-.661.3-1.328.587-1.999.864a11.346 11.346 0 00-1.723-.213c-2.76-.133-5.46.588-8.18.904a14.106 14.106 0 01-4.078 0l-.113-.025c1.604-1.051 3.258-2.034 4.892-3.04 1.763-1.087 3.52-2.173 5.238-3.318a47.437 47.437 0 007.81-6.29 14.61 14.61 0 012.345 3.229zm-6.65 8.945c-.464.188-.928.375-1.397.548a37.979 37.979 0 01-3.87 1.244 11.054 11.054 0 01-4.063.35.118.118 0 00-.124.05c-.706-.188-1.412-.36-2.098-.617-.56-.205-1.105-.45-1.629-.736 2.72.321 5.43-.33 8.096-.715a19.354 19.354 0 014.137-.237c.321.024.637.064.948.113zm.355-14.37c.357.06.707.152 1.047.276a7.53 7.53 0 012.557 1.575 34.422 34.422 0 01-2.68 2.468 47.222 47.222 0 01-2.074 1.634c.264-.477.45-.994.553-1.53.267-1.303.133-2.666.44-3.95.037-.162.09-.32.157-.473zm2.237.296a2.167 2.167 0 01-.578-1.18c.204.047.4.127.578.237.229.142.419.339.553.573.088.172.138.493-.084.577-.222.084-.356-.099-.47-.207zm.582-4.26c.13-.113.271-.214.42-.302.06.172.135.337.227.494a1.48 1.48 0 001.565.785.93.93 0 00.632-1.274c-.287-.533-1.022-.622-1.56-.548a2.466 2.466 0 00-.598.163 2.96 2.96 0 01-.059-.582 2.557 2.557 0 011.684-2.404 2.325 2.325 0 012.932 1.357 3.278 3.278 0 01-.064 2.345.227.227 0 00-.094.089 26.86 26.86 0 01-4.053 5.43 8.218 8.218 0 00-1.11-.859.535.535 0 00.32-.316.86.86 0 00-.212-.824 2.098 2.098 0 00-1.224-.736A3.41 3.41 0 0190.328 31zm.726-.455c.254-.111.527-.175.805-.187.493 0 1.48.291 1.11.987-.37.696-1.155.4-1.53-.044-.18-.223-.31-.48-.385-.756zm-2.755 3.58c.198-.076.41-.108.622-.094a2.635 2.635 0 00.454 1.175 7.02 7.02 0 00-1.713-.583c.156-.228.378-.402.637-.499zm-5.628 2.285a7.33 7.33 0 012.36-1.323 5.193 5.193 0 012.167-.173 5.38 5.38 0 00-.335 1.624c-.144 1.54-.055 3.234-.988 4.547a2.962 2.962 0 01-.765.74.178.178 0 00-.059.08c-2.029 1.431-4.147 2.744-6.255 4.048a141.89 141.89 0 00-5.726 3.717 1.48 1.48 0 01-.42-.262 3.683 3.683 0 01-.104-.33 1.42 1.42 0 001.24-.035 7.898 7.898 0 001.48-1.19l1.674-1.451c1.88-1.63 3.979-3.258 5.035-5.588.602-1.386.841-2.9.697-4.404zM71.2 51.37c.493-.267 1.041-.494 1.57-.736a18.37 18.37 0 01-.86 1.017 7.871 7.871 0 00-.71-.28zm.493.518a8.434 8.434 0 01-3.233 2.192l-.193.06a5.075 5.075 0 011.644-1.975c.3-.216.614-.414.938-.593.282.09.56.196.83.316h.014zm.672-.385c.222-.266.434-.543.642-.824 1.308 1.624 3.613 2.236 5.514 2.814 1.718.523 3.599 1.135 4.99 2.32-1.554-.553-3.327-.617-4.936-.938a10.99 10.99 0 01-3.456-1.377c-.987-.588-1.974-1.244-3.001-1.743l.247-.252zm.735-1.283c-.049-.07-.103-.133-.148-.203a.167.167 0 00.045.04c.05.035.103.06.158.094a.664.664 0 00-.07.069h.015zm8.679-9.77c-.987 2.395-3.09 4.083-4.976 5.732l-1.664 1.456-.834.71c-.242.241-.53.432-.844.564a1.225 1.225 0 01-.988-.119 6.646 6.646 0 01-.093-.7c.034-.293.084-.583.148-.87a10.441 10.441 0 013.653-5.88c1.071-.848 2.305-1.48 3.396-2.285.899-.671 1.698-1.48 2.548-2.192l.246-.207a8.63 8.63 0 01-.592 3.791zm-9.987 4.764a38.919 38.919 0 01-1.392-3.658c-.316-1.21-.39-2.468-.662-3.678a7.675 7.675 0 00-.587-1.727 7.405 7.405 0 00-.923-1.358c-.676-.825-1.481-1.6-1.88-2.612a3.203 3.203 0 01.626-3.238 4.976 4.976 0 013.17-1.614 11.419 11.419 0 016.91 1.338 10.045 10.045 0 014.626 5.02 9.77 9.77 0 01.642 2.592c-.543.44-1.061.913-1.585 1.382-.434.39-.873.78-1.342 1.13-.47.351-1.116.77-1.684 1.136a14.019 14.019 0 00-2.893 2.27 10.63 10.63 0 00-2.552 4.883v-.064a8.424 8.424 0 00-.474-1.822v.02zm-9.345 6.418a6.268 6.268 0 01-1.92-.237 3.407 3.407 0 01-1.53-.928 7.476 7.476 0 01-.988-1.536 8.912 8.912 0 00-.987-1.505 9.002 9.002 0 01-1.136-1.481c-.612-1.126-.617-2.469-.493-3.708.057-1.24.276-2.468.651-3.653a4.374 4.374 0 012.627-2.562 6.754 6.754 0 016.555 1.052c1.625 1.347 2.44 3.366 3.155 5.292.716 1.925 1.353 3.885 2.66 5.465.299.372.644.704 1.028.987.023.24.114.47.261.661.07.227.164.446.282.652l.153.232c-.657.267-1.323.538-1.975.869a8.333 8.333 0 00-2.355-.306 23.096 23.096 0 00-3.135.35v-.04a2.927 2.927 0 00-.735-1.322 1.161 1.161 0 00-1.21-.163 1.609 1.609 0 00-.908 1.846v.035zm.46-1.165a1.071 1.071 0 011.243-.44c.494.213.681.844.835 1.304v.04l-.677.098a17.68 17.68 0 01-1.624.153 1.481 1.481 0 01.222-1.19v.035zm2.359 3.722a4.019 4.019 0 01-1.693-.987 3.347 3.347 0 01-.805-1.279 21.732 21.732 0 002.315-.262c.217.813.28 1.658.183 2.493v.035zm.311.084a7.09 7.09 0 00-.183-2.656c1.674-.257 3.357-.523 5.011-.123-.253.15-.497.315-.73.493a5.39 5.39 0 00-1.847 2.316 5.328 5.328 0 01-2.251-.065v.035zM85.5 60.98a12.585 12.585 0 01-.888 3.8c-.884 2.203-2.839 4.36-5.43 4.212a4.444 4.444 0 01-2.923-1.402 4.118 4.118 0 01-.84-1.358 3.455 3.455 0 00-.77-1.48 2.8 2.8 0 00-1.525-.558 4.981 4.981 0 01-1.57-.45 5.875 5.875 0 01-2.26-2.137 9.673 9.673 0 01-1.274-3.086 7.69 7.69 0 01-.045-3.594c.04-.157.09-.312.148-.464a8.19 8.19 0 003.792-2.468c1.777.825 3.322 2.142 5.178 2.809 2.271.815 4.863.528 7.035 1.62.24.263.451.551.632.858a6.339 6.339 0 01.74 3.663v.035zm8.462 4.156a6.765 6.765 0 01-1.185.988 2.4 2.4 0 01-1.807.493c-.622-.158-1.032-.79-1.387-1.278a14.327 14.327 0 01-.987-1.59 19.153 19.153 0 01-1.388-3.599 6.961 6.961 0 00-1.619-3.06 5.072 5.072 0 00-1.244-.884 8.391 8.391 0 00-2.582-1.846 26.187 26.187 0 00-3.836-1.353 13.9 13.9 0 01-3.352-1.377 5.114 5.114 0 01-1.357-1.205l.108-.143c.688.39 1.408.721 2.153.987a9.283 9.283 0 002.276.548c.022.019.05.03.079.035 1.393.136 2.799.012 4.146-.365a38.26 38.26 0 004-1.304 64.057 64.057 0 001.786-.7c.56.116 1.111.273 1.649.468a11.172 11.172 0 015.243 3.826 8.955 8.955 0 011.668 5.875 8.61 8.61 0 01-2.364 5.45v.034z" fill="#fff" stroke="#fff"/><defs><linearGradient id="paint0_linear_719_370" x1="20.945" y1="11.608" x2="59.254" y2="118.783" gradientUnits="userSpaceOnUse"><stop stop-color="#706464"/><stop offset="1" stop-color="#4A4141"/></linearGradient><linearGradient id="paint1_linear_719_370" x1="26.824" y1="65.869" x2="50.999" y2="65.869" gradientUnits="userSpaceOnUse"><stop stop-color="#F6929F"/><stop offset="1" stop-color="#FFC0C8"/></linearGradient></defs></svg>