<svg width="354" height="91" fill="none" xmlns="http://www.w3.org/2000/svg"><path d="M353.059 43.715c.519 0 .941.798.941 1.78s-.422 1.779-.941 1.779c-.519 0-.944-.796-.944-1.78 0-.982.422-1.779.944-1.779zm-9.446-2.644c.519 0 .941 1.826.941 4.078 0 2.252-.422 4.077-.941 4.077-.519 0-.944-1.825-.944-4.078 0-2.251.423-4.077.944-4.077zm-9.589-2.279c.833 0 1.51 2.924 1.51 6.533 0 3.61-.677 6.534-1.51 6.534-.832 0-1.509-2.924-1.509-6.534s.677-6.533 1.509-6.533zm-9.517 21.958c-1.39 0-2.518-6.945-2.518-15.512s1.128-15.512 2.518-15.512 2.518 6.945 2.518 15.512-1.128 15.511-2.518 15.511zm-9.515-42.673c1.389 0 2.518 12.267 2.518 27.397 0 15.132-1.129 27.398-2.518 27.398-1.388 0-2.517-12.267-2.517-27.398 0-15.13 1.126-27.397 2.517-27.397zm-9.517-6.365c1.702 0 3.083 15.03 3.083 33.57s-1.381 33.57-3.083 33.57c-1.702 0-3.086-15.03-3.086-33.57s1.381-33.57 3.086-33.57zm-9.517-1.921c1.801 0 3.261 15.888 3.261 35.489 0 19.6-1.46 35.488-3.261 35.488-1.801 0-3.262-15.888-3.262-35.488s1.461-35.489 3.262-35.489zm-9.517 4.56c1.578 0 2.858 13.921 2.858 31.096s-1.28 31.095-2.858 31.095c-1.579 0-2.857-13.921-2.857-31.095s1.278-31.096 2.857-31.096zm-9.518-1.321c1.579 0 2.859 14.466 2.859 32.313 0 17.846-1.28 32.311-2.859 32.311-1.578 0-2.856-14.467-2.856-32.311 0-17.845 1.28-32.313 2.856-32.313zm-9.514 3.002c1.576 0 2.856 13.122 2.856 29.31 0 16.187-1.28 29.31-2.856 29.31-1.577 0-2.859-13.123-2.859-29.31 0-16.188 1.28-29.31 2.859-29.31zm-9.537-2.217c1.578 0 2.858 13.87 2.858 30.977 0 17.109-1.28 30.977-2.858 30.977-1.579 0-2.856-13.872-2.856-30.982 0-17.109 1.277-30.972 2.856-30.972zm-9.498-4.084c1.579 0 2.859 15.829 2.859 35.354 0 19.526-1.28 35.353-2.859 35.353s-2.858-15.828-2.858-35.353c0-19.524 1.279-35.354 2.858-35.354zm-9.517-7.029c1.579 0 2.859 19.119 2.859 42.704 0 23.586-1.28 42.702-2.859 42.702s-2.856-19.118-2.856-42.702c0-23.583 1.28-42.704 2.856-42.704zM229.342 0c1.68 0 3.044 20.37 3.044 45.5S231.022 91 229.342 91s-3.046-20.37-3.046-45.5S227.66 0 229.342 0zm-9.517 8.586c1.579 0 2.856 16.436 2.856 36.704s-1.277 36.701-2.856 36.701-2.859-16.435-2.859-36.701c0-20.266 1.28-36.704 2.859-36.704z" fill="#A5A5A5"/><path d="M210.295 12.43c1.579 0 2.859 14.802 2.859 33.057 0 18.254-1.28 33.057-2.859 33.057-1.578 0-2.858-14.803-2.858-33.057 0-18.255 1.292-33.057 2.858-33.057z" fill="url(#paint0_linear_220_99548)"/><path d="M200.761 18.073c1.576 0 2.856 12.367 2.856 27.622 0 15.254-1.28 27.622-2.856 27.622-1.576 0-2.859-12.367-2.859-27.622 0-15.256 1.275-27.622 2.859-27.622z" fill="url(#paint1_linear_220_99548)"/><path d="M191.313 19.274c1.421 0 2.569 11.8 2.569 26.355s-1.148 26.353-2.569 26.353-2.57-11.8-2.57-26.353c0-14.555 1.152-26.355 2.57-26.355z" fill="url(#paint2_linear_220_99548)"/><path d="M181.759 16.933c1.576 0 2.856 12.597 2.856 28.136 0 15.54-1.28 28.137-2.856 28.137-1.577 0-2.859-12.598-2.859-28.137 0-15.54 1.28-28.136 2.859-28.136z" fill="url(#paint3_linear_220_99548)"/><path d="M172.246 17.233c1.419 0 2.57 12.58 2.57 28.098 0 15.517-1.156 28.101-2.57 28.101-1.413 0-2.569-12.58-2.569-28.097 0-15.518 1.146-28.102 2.569-28.102z" fill="url(#paint4_linear_220_99548)"/><path d="M162.724 12.97c1.579 0 2.859 14.53 2.859 32.453 0 17.924-1.28 32.454-2.859 32.454s-2.856-14.53-2.856-32.454c0-17.923 1.277-32.453 2.856-32.453z" fill="url(#paint5_linear_220_99548)"/><path d="M153.21 8.226c1.576 0 2.856 16.662 2.856 37.217s-1.28 37.216-2.856 37.216c-1.577 0-2.859-16.662-2.859-37.216 0-20.554 1.28-37.217 2.859-37.217z" fill="url(#paint6_linear_220_99548)"/><path d="M143.692 14.111c1.418 0 2.57 14 2.57 31.272 0 17.271-1.152 31.27-2.57 31.27s-2.569-14-2.569-31.27 1.149-31.272 2.569-31.272z" fill="url(#paint7_linear_220_99548)"/><path d="M134.175 11.528c1.418 0 2.57 15.202 2.57 33.954 0 18.751-1.152 33.952-2.57 33.952s-2.57-15.202-2.57-33.952c0-18.751 1.149-33.954 2.57-33.954z" fill="url(#paint8_linear_220_99548)"/><path d="M124.611 14.263c1.418 0 2.569 13.832 2.569 30.895s-1.151 30.895-2.569 30.895-2.57-13.833-2.57-30.895c0-17.062 1.152-30.895 2.57-30.895z" fill="url(#paint9_linear_220_99548)"/><path d="M115.141 17.145c1.42 0 2.569 12.575 2.569 28.086 0 15.512-1.149 28.086-2.569 28.086-1.421 0-2.57-12.575-2.57-28.085 0-15.511 1.151-28.087 2.57-28.087z" fill="url(#paint10_linear_220_99548)"/><path d="M105.626 18.946c1.418 0 2.567 11.848 2.567 26.463 0 14.616-1.149 26.462-2.567 26.462-1.418 0-2.57-11.847-2.57-26.462 0-14.614 1.149-26.463 2.57-26.463z" fill="url(#paint11_linear_220_99548)"/><path d="M96.109 20.207c1.418 0 2.57 11.341 2.57 25.332 0 13.99-1.152 25.33-2.57 25.33-1.419 0-2.57-11.34-2.57-25.33 0-13.99 1.149-25.332 2.57-25.332z" fill="url(#paint12_linear_220_99548)"/><path d="M86.591 16.664c1.604 0 2.903 12.81 2.903 28.613 0 15.803-1.3 28.611-2.903 28.611s-2.903-12.81-2.903-28.61c0-15.802 1.3-28.614 2.903-28.614z" fill="url(#paint13_linear_220_99548)"/><path d="M77.074 14.819c1.604 0 2.903 13.788 2.903 30.797 0 17.008-1.3 30.795-2.903 30.795s-2.9-13.787-2.9-30.795c0-17.009 1.297-30.797 2.9-30.797z" fill="url(#paint14_linear_220_99548)"/><path d="M67.557 16.71c1.603 0 2.903 12.88 2.903 28.77 0 15.89-1.3 28.77-2.903 28.77-1.604 0-2.9-12.88-2.9-28.77 0-15.89 1.299-28.77 2.9-28.77z" fill="url(#paint15_linear_220_99548)"/><path d="M58.042 16.598c1.601 0 2.9 12.879 2.9 28.766 0 15.887-1.299 28.765-2.9 28.765-1.6 0-2.908-12.879-2.908-28.765 0-15.886 1.305-28.766 2.908-28.766z" fill="url(#paint16_linear_220_99548)"/><path d="M48.525 18.156c1.604 0 2.9 12.194 2.9 27.236s-1.296 27.236-2.9 27.236c-1.603 0-2.903-12.194-2.903-27.236s1.3-27.236 2.903-27.236z" fill="url(#paint17_linear_220_99548)"/><path d="M39.008 25.162c1.418 0 2.57 8.991 2.57 20.082 0 11.09-1.152 20.082-2.57 20.082s-2.57-8.99-2.57-20.082 1.154-20.082 2.57-20.082z" fill="url(#paint18_linear_220_99548)"/><path d="M29.424 29.944c1.42 0 2.57 6.967 2.57 15.56s-1.15 15.559-2.57 15.559-2.57-6.967-2.57-15.559c0-8.592 1.152-15.56 2.57-15.56z" fill="url(#paint19_linear_220_99548)"/><path d="M10.459 40.996c.518 0 .941 1.825.941 4.077s-.423 4.078-.941 4.078c-.52 0-.942-1.826-.942-4.078 0-2.252.42-4.077.942-4.077z" fill="url(#paint20_linear_220_99548)"/><path d="M19.976 38.372c.832 0 1.507 2.924 1.507 6.533 0 3.609-.675 6.533-1.507 6.533-.833 0-1.51-2.923-1.51-6.533 0-3.61.675-6.533 1.51-6.533z" fill="url(#paint21_linear_220_99548)"/><path d="M.941 43.595c.522 0 .942.797.942 1.78 0 .984-.42 1.78-.942 1.78-.52 0-.941-.797-.941-1.78 0-.981.42-1.78.941-1.78z" fill="url(#paint22_linear_220_99548)"/><defs><linearGradient id="paint0_linear_220_99548" x1="213.154" y1="45.487" x2="207.437" y2="45.487" gradientUnits="userSpaceOnUse"><stop stop-color="#F6929F"/><stop offset="1" stop-color="#FFC0C8"/></linearGradient><linearGradient id="paint1_linear_220_99548" x1="203.617" y1="45.695" x2="197.902" y2="45.695" gradientUnits="userSpaceOnUse"><stop stop-color="#F6929F"/><stop offset="1" stop-color="#FFC0C8"/></linearGradient><linearGradient id="paint2_linear_220_99548" x1="193.882" y1="45.628" x2="188.743" y2="45.628" gradientUnits="userSpaceOnUse"><stop stop-color="#F6929F"/><stop offset="1" stop-color="#FFC0C8"/></linearGradient><linearGradient id="paint3_linear_220_99548" x1="184.615" y1="45.069" x2="178.9" y2="45.069" gradientUnits="userSpaceOnUse"><stop stop-color="#F6929F"/><stop offset="1" stop-color="#FFC0C8"/></linearGradient><linearGradient id="paint4_linear_220_99548" x1="174.816" y1="45.333" x2="169.677" y2="45.333" gradientUnits="userSpaceOnUse"><stop stop-color="#F6929F"/><stop offset="1" stop-color="#FFC0C8"/></linearGradient><linearGradient id="paint5_linear_220_99548" x1="165.583" y1="45.423" x2="159.868" y2="45.423" gradientUnits="userSpaceOnUse"><stop stop-color="#F6929F"/><stop offset="1" stop-color="#FFC0C8"/></linearGradient><linearGradient id="paint6_linear_220_99548" x1="156.066" y1="45.442" x2="150.351" y2="45.442" gradientUnits="userSpaceOnUse"><stop stop-color="#F6929F"/><stop offset="1" stop-color="#FFC0C8"/></linearGradient><linearGradient id="paint7_linear_220_99548" x1="146.262" y1="45.382" x2="141.123" y2="45.382" gradientUnits="userSpaceOnUse"><stop stop-color="#F6929F"/><stop offset="1" stop-color="#FFC0C8"/></linearGradient><linearGradient id="paint8_linear_220_99548" x1="136.745" y1="45.481" x2="131.605" y2="45.481" gradientUnits="userSpaceOnUse"><stop stop-color="#F6929F"/><stop offset="1" stop-color="#FFC0C8"/></linearGradient><linearGradient id="paint9_linear_220_99548" x1="127.18" y1="45.158" x2="122.041" y2="45.158" gradientUnits="userSpaceOnUse"><stop stop-color="#F6929F"/><stop offset="1" stop-color="#FFC0C8"/></linearGradient><linearGradient id="paint10_linear_220_99548" x1="117.71" y1="45.231" x2="112.571" y2="45.231" gradientUnits="userSpaceOnUse"><stop stop-color="#F6929F"/><stop offset="1" stop-color="#FFC0C8"/></linearGradient><linearGradient id="paint11_linear_220_99548" x1="108.193" y1="45.409" x2="103.056" y2="45.409" gradientUnits="userSpaceOnUse"><stop stop-color="#F6929F"/><stop offset="1" stop-color="#FFC0C8"/></linearGradient><linearGradient id="paint12_linear_220_99548" x1="98.678" y1="45.539" x2="93.539" y2="45.539" gradientUnits="userSpaceOnUse"><stop stop-color="#F6929F"/><stop offset="1" stop-color="#FFC0C8"/></linearGradient><linearGradient id="paint13_linear_220_99548" x1="89.494" y1="45.276" x2="83.688" y2="45.276" gradientUnits="userSpaceOnUse"><stop stop-color="#F6929F"/><stop offset="1" stop-color="#FFC0C8"/></linearGradient><linearGradient id="paint14_linear_220_99548" x1="79.977" y1="45.615" x2="74.174" y2="45.615" gradientUnits="userSpaceOnUse"><stop stop-color="#F6929F"/><stop offset="1" stop-color="#FFC0C8"/></linearGradient><linearGradient id="paint15_linear_220_99548" x1="70.46" y1="45.479" x2="64.656" y2="45.479" gradientUnits="userSpaceOnUse"><stop stop-color="#F6929F"/><stop offset="1" stop-color="#FFC0C8"/></linearGradient><linearGradient id="paint16_linear_220_99548" x1="60.943" y1="45.364" x2="55.134" y2="45.364" gradientUnits="userSpaceOnUse"><stop stop-color="#F6929F"/><stop offset="1" stop-color="#FFC0C8"/></linearGradient><linearGradient id="paint17_linear_220_99548" x1="51.426" y1="45.392" x2="45.622" y2="45.392" gradientUnits="userSpaceOnUse"><stop stop-color="#F6929F"/><stop offset="1" stop-color="#FFC0C8"/></linearGradient><linearGradient id="paint18_linear_220_99548" x1="41.577" y1="45.244" x2="36.438" y2="45.244" gradientUnits="userSpaceOnUse"><stop stop-color="#F6929F"/><stop offset="1" stop-color="#FFC0C8"/></linearGradient><linearGradient id="paint19_linear_220_99548" x1="31.993" y1="45.504" x2="26.854" y2="45.504" gradientUnits="userSpaceOnUse"><stop stop-color="#F6929F"/><stop offset="1" stop-color="#FFC0C8"/></linearGradient><linearGradient id="paint20_linear_220_99548" x1="11.4" y1="45.073" x2="9.517" y2="45.073" gradientUnits="userSpaceOnUse"><stop stop-color="#F6929F"/><stop offset="1" stop-color="#FFC0C8"/></linearGradient><linearGradient id="paint21_linear_220_99548" x1="21.483" y1="44.905" x2="18.466" y2="44.905" gradientUnits="userSpaceOnUse"><stop stop-color="#F6929F"/><stop offset="1" stop-color="#FFC0C8"/></linearGradient><linearGradient id="paint22_linear_220_99548" x1="1.883" y1="45.375" x2="0" y2="45.375" gradientUnits="userSpaceOnUse"><stop stop-color="#F6929F"/><stop offset="1" stop-color="#FFC0C8"/></linearGradient></defs></svg>