<svg width="450" height="486" fill="none" xmlns="http://www.w3.org/2000/svg"><path d="M0 20C0 8.954 8.954 0 20 0h410c11.046 0 20 8.954 20 20v446c0 11.046-8.954 20-20 20H20c-11.046 0-20-8.954-20-20V20z" fill="url(#paint0_linear_220_99544)"/><path d="M10.5 30c0-10.77 8.73-19.5 19.5-19.5h390c10.77 0 19.5 8.73 19.5 19.5v426c0 10.77-8.73 19.5-19.5 19.5H30c-10.77 0-19.5-8.73-19.5-19.5V30z" stroke="#A5A5A5"/><defs><linearGradient id="paint0_linear_220_99544" x1="0" y1="243" x2="450" y2="243" gradientUnits="userSpaceOnUse"><stop stop-color="#FDFBFB"/><stop offset="1" stop-color="#EBEDEE"/></linearGradient></defs></svg>