<svg width="36" height="36" fill="none" xmlns="http://www.w3.org/2000/svg"><path d="M18 7.296c-5.842 0-10.591 4.75-10.6 10.591 0 2.001.563 3.954 1.624 5.633l.25.402-1.07 3.906 4.01-1.053.386.233a10.563 10.563 0 005.392 1.479H18c5.834 0 10.712-4.75 10.712-10.591 0-2.829-1.222-5.489-3.223-7.49A10.51 10.51 0 0018 7.296zm6.228 15.14c-.266.747-1.535 1.422-2.146 1.51-1.012.153-1.8.073-3.817-.795-3.19-1.382-5.28-4.596-5.44-4.805-.16-.21-1.302-1.728-1.302-3.295s.82-2.338 1.117-2.66a1.16 1.16 0 01.852-.402c.209 0 .426 0 .61.008.194.008.459-.072.716.547.265.635.9 2.201.98 2.362.08.161.137.346.024.555-.61 1.221-1.261 1.173-.932 1.735 1.23 2.114 2.46 2.845 4.331 3.785.322.161.507.137.692-.08.184-.209.795-.932 1.004-1.246.209-.321.426-.265.715-.16.29.104 1.856.875 2.178 1.036.321.161.53.241.61.37.073.153.073.795-.192 1.535zM32.143 0H3.857A3.858 3.858 0 000 3.857v28.286A3.858 3.858 0 003.857 36h28.286A3.858 3.858 0 0036 32.143V3.857A3.858 3.858 0 0032.143 0zM17.992 30.632a12.73 12.73 0 01-6.091-1.55l-6.758 1.775 1.808-6.605a12.698 12.698 0 01-1.704-6.372c.008-7.024 5.722-12.737 12.745-12.737a12.66 12.66 0 019.016 3.736c2.403 2.411 3.85 5.61 3.85 9.016 0 7.024-5.843 12.737-12.866 12.737z" fill="url(#paint0_linear_212_98014)"/><defs><linearGradient id="paint0_linear_212_98014" x1="0" y1="18" x2="36" y2="18" gradientUnits="userSpaceOnUse"><stop stop-color="#F6929F"/><stop offset="1" stop-color="#FFC0C8"/></linearGradient></defs></svg>