<svg width="30" height="30" fill="none" xmlns="http://www.w3.org/2000/svg"><path d="M15 0c8.285 0 15 6.715 15 15s-6.715 15-15 15a14.931 14.931 0 01-7.545-2.032L.006 30l2.028-7.452A14.93 14.93 0 010 15C0 6.715 6.716 0 15 0zM9.888 7.95l-.3.012a1.442 1.442 0 00-.558.15 1.94 1.94 0 00-.441.342c-.18.17-.282.316-.391.459a4.095 4.095 0 00-.85 2.517c.004.735.196 1.45.496 2.12.613 1.352 1.623 2.785 2.955 4.113.32.319.636.64.975.939a14.173 14.173 0 005.76 3.069l.852.13c.277.015.555-.006.834-.02.436-.022.863-.14 1.249-.346.196-.101.388-.211.575-.33 0 0 .064-.042.187-.135.202-.15.327-.256.495-.432a1.69 1.69 0 00.315-.453c.117-.245.234-.711.282-1.1.036-.296.026-.459.021-.559-.006-.16-.14-.327-.285-.397l-.873-.392s-1.305-.569-2.103-.931a.745.745 0 00-.264-.062.721.721 0 00-.567.19c-.008-.003-.108.083-1.192 1.397a.526.526 0 01-.552.195 2.15 2.15 0 01-.287-.099c-.186-.078-.25-.108-.378-.162a9.038 9.038 0 01-2.363-1.505c-.189-.165-.364-.345-.544-.518a9.448 9.448 0 01-1.53-1.902l-.088-.143a1.388 1.388 0 01-.153-.307c-.057-.221.091-.398.091-.398s.364-.399.534-.615a6.35 6.35 0 00.395-.56c.176-.285.232-.577.139-.803-.42-1.027-.855-2.048-1.302-3.062-.088-.201-.351-.345-.59-.374a6.604 6.604 0 00-.242-.024 5.08 5.08 0 00-.605.006l.302-.012.001.002z" fill="url(#paint0_linear_203_46987)"/><defs><linearGradient id="paint0_linear_203_46987" x1="0" y1="15" x2="30" y2="15" gradientUnits="userSpaceOnUse"><stop stop-color="#F6929F"/><stop offset="1" stop-color="#FFC0C8"/></linearGradient></defs></svg>