<svg width="30" height="30" fill="none" xmlns="http://www.w3.org/2000/svg"><circle cx="15" cy="15" r="15" fill="#fff"/><path d="M17.774 16.26a.566.566 0 00-.658.075L15.81 17.62a.426.426 0 01-.597 0l-2.937-2.892a.413.413 0 010-.589l1.23-1.211a.507.507 0 00.056-.635l-2.24-3.126a.394.394 0 00-.43-.154.398.398 0 00-.144.073S9 10.452 9 11.707C9 16.838 13.225 21 18.436 21c1.274 0 2.513-2.303 2.513-2.303a.446.446 0 00-.16-.587l-3.015-1.85z" fill="url(#paint0_linear_203_47031)"/><defs><linearGradient id="paint0_linear_203_47031" x1="9" y1="15" x2="21" y2="15" gradientUnits="userSpaceOnUse"><stop stop-color="#F6929F"/><stop offset="1" stop-color="#FFC0C8"/></linearGradient></defs></svg>