<svg width="120" height="120" viewBox="0 0 120 120" fill="none" xmlns="http://www.w3.org/2000/svg">
<path d="M119.517 60.1341C119.517 92.995 92.878 119.634 60.017 119.634C27.1561 119.634 0.517029 92.995 0.517029 60.1341C0.517029 27.2732 27.1561 0.634094 60.017 0.634094C92.878 0.634094 119.517 27.2732 119.517 60.1341Z" fill="url(#paint0_linear_707_190)"/>
<path d="M117.517 60.1341C117.517 91.8905 91.7734 117.634 60.0171 117.634C28.2607 117.634 2.51706 91.8905 2.51706 60.1341C2.51706 28.3777 28.2607 2.63409 60.0171 2.63409C91.7734 2.63409 117.517 28.3777 117.517 60.1341Z" stroke="white" stroke-width="4"/>
<path d="M90.0175 73.8778C89.3412 72.1516 88.5744 70.4623 87.7202 68.8169C86.4301 66.2169 84.9664 63.4929 82.5649 61.7513C81.9877 61.3292 81.357 60.9855 80.6894 60.7292C80.3294 60.5471 79.9326 60.4497 79.5293 60.4446C79.1259 60.4394 78.7268 60.5266 78.3623 60.6994C77.7758 61.0806 77.3123 61.6234 77.0276 62.2624C76.6307 63.0265 76.3181 63.8402 75.9956 64.6341C75.6449 65.5074 75.3141 66.3856 75.0032 67.2688C73.6873 70.4746 72.6271 73.7795 71.8326 77.1526C71.4208 78.914 71.0239 80.7846 71.4804 82.5807C71.6468 83.3363 71.9983 84.0388 72.5031 84.6251C73.008 85.2113 73.6505 85.6631 74.3731 85.9399C75.2149 86.2281 76.0905 86.4066 76.978 86.4708C77.8686 86.5584 78.7652 86.5667 79.6573 86.4956C81.4463 86.35 83.2055 85.9507 84.8821 85.3097C86.3844 84.8074 87.7735 84.0151 88.9705 82.9777C90.1283 81.8967 90.8249 80.411 90.9155 78.8297C90.9683 77.1342 90.6622 75.4468 90.0175 73.8778Z" fill="#FFBFC6"/>
<path d="M69.967 54.6808C69.0695 52.2827 67.6994 50.0892 65.9381 48.2305C64.1214 46.3285 61.6759 45.1508 59.0561 44.9161C57.4783 44.8322 55.896 44.9354 54.3425 45.2237C52.7646 45.4768 51.1868 45.7546 49.6288 46.092C46.9358 46.6408 44.3533 47.6352 41.9877 49.0343C39.1344 50.7845 36.6144 53.0273 34.5451 55.6583C33.7819 56.4204 33.0629 57.2255 32.3917 58.0697C30.66 60.2479 29.2013 62.7635 28.7101 65.5123C28.1841 68.4894 28.9234 71.4664 30.1986 74.1507C31.2599 76.362 32.6913 78.3757 34.431 80.1048C37.9212 83.6257 42.4778 85.8935 47.3911 86.5551C52.4584 87.1012 57.5588 85.8799 61.8291 83.0978C66.0995 80.3157 69.2775 76.1437 70.8254 71.2878C72.4035 65.8118 72.1013 59.9649 69.967 54.6808Z" fill="url(#paint1_linear_707_190)"/>
<path d="M80.3024 56.2289C79.0494 52.4292 77.4031 48.7708 75.3902 45.3131C74.3673 43.6015 73.5354 41.7829 72.9094 39.8899C72.3363 37.9786 72.3363 35.9413 72.9094 34.03C73.522 32.2069 74.3925 30.4809 75.4944 28.9045C75.6135 28.721 75.4051 28.5523 75.2414 28.5969C74.0467 28.16 72.7871 27.9269 71.5151 27.9072C70.1946 27.871 68.8755 28.018 67.5953 28.3439C66.3253 28.6665 65.1075 29.1677 63.9782 29.8324C62.7674 30.5649 61.6666 31.4653 60.7084 32.5068C59.7161 33.5686 58.7535 34.6949 57.7314 35.7319C56.7551 36.72 55.7124 37.64 54.6104 38.4857C52.4701 40.1902 49.9545 41.3604 47.272 41.8994C46.9296 41.9589 46.5823 41.9936 46.23 42.0333C45.9334 42.0434 45.6466 42.1419 45.4064 42.3162C45.1876 42.5349 45.063 42.8305 45.0591 43.1398C45.0318 43.4998 45.0318 43.8614 45.0591 44.2215C45.1138 45.7262 45.4504 47.2072 46.0514 48.5878C46.1754 48.8806 46.3094 49.1634 46.4583 49.4412C46.0086 49.894 45.4632 50.2404 44.8622 50.455C44.2612 50.6697 43.6198 50.7471 42.985 50.6817C42.866 50.6817 42.7816 50.7908 42.7717 50.895C42.7091 51.8263 42.7996 52.7616 43.0396 53.6637C42.7171 53.6141 42.4144 53.4602 42.0919 53.4255C41.7502 53.3862 41.4046 53.4502 41.0996 53.6091C40.7792 53.7822 40.5041 54.0283 40.2963 54.3274C40.0886 54.6264 39.9542 54.9702 39.9038 55.3308C39.8259 56.2107 39.9979 57.0947 40.4 57.8812C40.7225 58.6254 41.0748 59.3697 40.8416 60.1933C40.8416 60.2628 40.792 60.3323 40.7671 60.3968C40.7423 60.4613 40.6729 60.3968 40.6679 60.4811C40.6467 60.5989 40.6117 60.7138 40.5637 60.8235C40.2637 61.3163 39.8157 61.7018 39.2836 61.925C39.267 61.9304 39.2521 61.9402 39.2405 61.9532C39.2288 61.9663 39.2208 61.9822 39.2173 61.9993C39.2138 62.0164 39.2148 62.0341 39.2204 62.0507C39.2259 62.0673 39.2357 62.0821 39.2488 62.0937C38.7006 62.434 38.2963 62.9636 38.1126 63.5822C37.7702 65.2444 39.4324 66.6486 40.5935 67.5169C43.7045 69.839 47.1579 71.8485 50.9784 72.7168C54.3921 73.4908 58.1333 73.2725 61.2889 71.6649C61.63 71.4896 61.9613 71.2958 62.2813 71.0844C62.8363 71.5401 63.4704 71.8899 64.1519 72.1164C62.5046 74.9843 62.1076 78.3285 61.8397 81.5835C61.7454 82.7247 61.6611 83.8708 61.5271 85.0071L60.9615 85.0467C59.0462 85.1609 57.126 85.1906 55.2207 85.4685C53.4227 85.6745 51.6917 86.2724 50.1498 87.22C48.8253 88.0712 47.7757 89.2879 47.1281 90.723C46.8278 91.3956 46.6689 92.1228 46.6613 92.8594C46.6536 93.5959 46.7973 94.3262 47.0834 95.005C47.3814 95.6827 47.8105 96.2947 48.3462 96.8056C48.8819 97.3166 49.5134 97.7164 50.2044 97.982C53.4097 99.1828 56.5852 96.8557 58.4211 94.4046C59.5365 92.9004 60.3995 91.2245 60.9764 89.4429C61.3869 88.1145 61.6726 86.7507 61.8298 85.3693C64.9209 85.146 68.0121 84.6895 70.8899 83.4888C74.0218 82.1657 76.673 79.9145 78.4864 77.0385C80.271 74.1877 81.3652 70.9595 81.6817 67.6112C81.9873 63.763 81.5183 59.8927 80.3024 56.2289ZM60.9515 87.9841C60.4833 89.9601 59.6668 91.8369 58.5401 93.5264C56.6894 96.3 53.112 99.2324 49.6437 97.3767C48.9005 96.9878 48.2641 96.4225 47.79 95.7305C47.316 95.0385 47.0189 94.2408 46.9247 93.4073C46.8844 92.5599 47.0227 91.7134 47.3304 90.9228C47.6381 90.1322 48.1084 89.415 48.7109 88.8177C51.4548 85.8754 55.6574 85.657 59.4233 85.4834C60.0832 85.4536 60.7481 85.4139 61.408 85.3693C61.3041 86.2513 61.1551 87.1273 60.9615 87.994L60.9515 87.9841ZM80.615 71.0497C79.8172 74.2206 78.2238 77.1357 75.9856 79.5194C73.4353 82.1491 70.0812 83.6277 66.5335 84.3521C64.9719 84.6581 63.3926 84.8653 61.805 84.9723C61.8695 84.4464 61.9191 83.9204 61.9637 83.3995C62.2863 79.7724 62.4202 76.0412 64.137 72.7416C64.2329 72.563 64.3321 72.3844 64.4347 72.2057C65.4283 72.4596 66.478 72.3777 67.4202 71.973C68.3625 71.5683 69.1445 70.8634 69.6445 69.968C69.8877 69.4718 70.2548 68.5985 69.719 68.1818C69.1831 67.765 68.4289 68.0825 67.9178 68.3356C66.5238 69.0574 65.3447 70.1338 64.4992 71.4565C64.4297 71.5607 64.3652 71.6699 64.3007 71.7741C63.672 71.5747 63.0851 71.2619 62.5691 70.8512C65.169 69.0302 66.9701 66.1971 68.0865 63.2597C68.7762 61.4487 69.1831 59.4243 68.7663 57.4991C68.4487 56.0106 67.4514 54.5221 65.7892 54.4476C64.2362 54.3931 62.7527 55.3656 61.8198 56.5266C60.8702 57.7469 60.2057 59.1642 59.8748 60.6746C59.0611 64.0585 59.1703 68.2413 61.8595 70.7817C61.7256 70.8661 61.5966 70.9504 61.4626 71.0248C59.9317 71.8802 58.2443 72.4185 56.5009 72.6076C52.8292 73.0244 49.1972 72.0618 45.9323 70.4096C44.2574 69.5473 42.6546 68.5517 41.1393 67.4325C40.3545 66.9136 39.6478 66.2854 39.0405 65.5669C38.5443 64.9219 38.1374 64.0784 38.5145 63.2647C38.8576 62.7191 39.3209 62.2591 39.8691 61.92C40.3829 61.652 40.7949 61.2232 41.0421 60.6991C41.2894 60.175 41.3584 59.5844 41.2385 59.0174C41.0599 58.1739 40.5687 57.4346 40.3752 56.5911C40.2544 56.1993 40.2367 55.7831 40.3236 55.3824C40.4105 54.9818 40.5991 54.6103 40.8713 54.3037C41.1288 54.0306 41.4836 53.8701 41.8587 53.8572C42.3251 53.8572 42.737 54.1301 43.2133 54.0953C43.2464 54.0949 43.2789 54.0869 43.3084 54.0721C43.338 54.0572 43.3637 54.0358 43.3838 54.0096C43.4039 53.9833 43.4177 53.9528 43.4243 53.9204C43.4308 53.888 43.4299 53.8545 43.4217 53.8225C43.1604 52.9392 43.0481 52.0186 43.0892 51.0985C43.7689 51.1314 44.4475 51.0152 45.0775 50.7581C45.7075 50.5009 46.2736 50.109 46.7361 49.6099C46.768 49.5779 46.7887 49.5364 46.7949 49.4917C46.8012 49.4469 46.7927 49.4014 46.7709 49.3618C46.0629 48.0546 45.6084 46.6253 45.4312 45.1493C45.3915 44.7821 45.3667 44.41 45.3568 44.0428C45.3369 43.6953 45.3468 43.3467 45.3865 43.0009C45.408 42.8337 45.4891 42.68 45.6149 42.5679C45.7407 42.4557 45.9028 42.3928 46.0713 42.3906C46.3987 42.341 46.7262 42.3162 47.0636 42.2665C49.6432 41.8056 52.0795 40.7488 54.1788 39.1803C56.3632 37.5487 58.3601 35.6799 60.1329 33.6083C61.0675 32.4986 62.1263 31.4997 63.2885 30.6312C64.3472 29.8928 65.507 29.3112 66.732 28.9045C69.187 28.1105 71.813 28.0058 74.3235 28.6019L75.0429 28.7755C73.9701 30.3299 73.12 32.0267 72.5174 33.8167C71.9738 35.5645 71.9002 37.4248 72.304 39.2101C72.7736 41.0094 73.4847 42.7369 74.4177 44.3455C75.3357 46.0474 76.3032 47.7145 77.1566 49.4512C80.4215 56.0652 82.5749 63.7063 80.6249 71.0596L80.615 71.0497ZM64.6828 71.8683C65.3173 70.8146 66.1618 69.9026 67.1637 69.189C67.7144 68.8119 68.4736 68.2909 69.1484 68.3554C70.106 68.4497 69.2774 69.9084 68.9648 70.3401C68.4868 70.9445 67.8568 71.4109 67.1393 71.6917C66.4217 71.9724 65.6424 72.0573 64.8812 71.9378L64.6828 71.8683ZM61.0458 69.0997C60.1114 67.4125 59.7084 65.4825 59.8897 63.5624C59.9569 61.8932 60.3286 60.2503 60.9863 58.7147C61.5398 57.3295 62.5336 56.1649 63.8145 55.4003C64.2055 55.1608 64.6401 55.0011 65.0931 54.9304C65.5462 54.8597 66.0087 54.8795 66.4541 54.9885C66.818 55.1398 67.147 55.3641 67.4209 55.6474C67.6948 55.9307 67.9078 56.267 68.0468 56.6358C68.8308 58.3972 68.543 60.5258 67.9724 62.3021C67.3922 64.1093 66.537 65.8163 65.437 67.3631C64.5713 68.6091 63.489 69.6897 62.2416 70.5535C61.7709 70.1276 61.3618 69.6383 61.026 69.0997H61.0458Z" fill="white" stroke="white" stroke-width="1.5"/>
<path d="M45.456 53.6686C44.9995 52.5374 44.3594 51.3515 43.1835 50.8454C43.1652 50.8352 43.1449 50.8289 43.124 50.8271C43.1031 50.8252 43.0821 50.8278 43.0623 50.8347C43.0425 50.8415 43.0243 50.8525 43.009 50.8668C42.9937 50.8812 42.9817 50.8986 42.9736 50.9179C42.9655 50.9373 42.9616 50.9581 42.9621 50.9791C42.9626 51 42.9676 51.0206 42.9766 51.0396C42.9856 51.0585 42.9986 51.0753 43.0146 51.0888C43.0306 51.1024 43.0492 51.1124 43.0694 51.1183C44.28 51.5649 44.8903 52.8847 45.327 54.006C45.7015 54.9964 46.0146 56.0088 46.2647 57.0377C45.897 56.3938 45.463 55.7902 44.9697 55.2366C44.6644 54.8812 44.3327 54.5495 43.9774 54.2442C43.9178 54.1896 43.1636 53.5496 43.1239 53.748C43.0842 53.9465 43.2877 54.0209 43.3869 54.1053C43.5655 54.2492 43.7342 54.398 43.8831 54.5518C44.211 54.8524 44.5208 55.1722 44.8109 55.5095C45.3576 56.1727 45.8363 56.8891 46.2399 57.648C45.5725 57.006 44.7236 56.585 43.8087 56.4423C43.1894 56.344 42.556 56.3856 41.955 56.5642C41.3539 56.7428 40.8005 57.0538 40.3354 57.4743C40.3216 57.4848 40.3125 57.5004 40.3102 57.5176C40.3079 57.5348 40.3125 57.5523 40.323 57.5661C40.3336 57.5799 40.3491 57.589 40.3664 57.5913C40.3836 57.5936 40.401 57.589 40.4148 57.5785C40.9071 57.2396 41.4496 56.9801 42.0224 56.8094C42.5937 56.6503 43.1918 56.6115 43.7789 56.6953C44.9157 56.8642 45.9396 57.476 46.6269 58.3972C46.7014 58.4915 46.8701 58.4418 46.8353 58.3079C46.4865 56.7306 46.0255 55.1803 45.456 53.6686Z" fill="white" stroke="white"/>
<path d="M75.544 28.7458C75.0922 27.9815 74.5016 27.3083 73.8025 26.7611C73.1134 26.1938 72.3706 25.6952 71.5845 25.2725C69.9495 24.3876 68.192 23.7505 66.3697 23.3821C62.698 22.6478 58.6046 22.9058 55.2554 24.7367C53.8314 25.5157 52.4967 26.6916 52.0501 28.3091C51.8716 28.9717 51.8659 29.6689 52.0335 30.3343C52.2012 30.9997 52.5366 31.611 53.0077 32.1098C52.8978 32.2901 52.8032 32.4793 52.7249 32.6755C52.4336 33.5523 52.4009 34.4946 52.6307 35.3895C52.9176 36.6709 53.5914 37.8332 54.5608 38.7189C54.7344 38.8776 54.9924 38.6246 54.8188 38.4658C54.2083 37.9156 53.7172 37.246 53.3758 36.4983C53.0344 35.7507 52.8501 34.941 52.8341 34.1193C52.8233 33.5038 52.9702 32.8957 53.2608 32.3529C53.3055 32.3877 53.3402 32.4224 53.3848 32.4522C53.9743 32.876 54.6872 33.0936 55.4129 33.0712C56.1386 33.0487 56.8367 32.7876 57.3989 32.3281C57.8951 31.9064 58.3615 31.177 58.1382 30.4972C57.8703 29.6885 56.8134 29.877 56.1535 30.0011C55.0142 30.231 53.9929 30.8568 53.2707 31.7675C52.8618 31.2995 52.5796 30.7346 52.451 30.1265C52.3224 29.5185 52.3518 28.8877 52.5364 28.2942C52.9929 26.8057 54.2581 25.7885 55.568 25.084C58.6145 23.4466 62.3309 23.0993 65.7049 23.6798C68.9647 24.2256 72.2494 25.5802 74.6013 27.9618C74.8841 28.2545 75.157 28.5473 75.4448 28.8351C75.4577 28.8402 75.4718 28.8417 75.4855 28.8392C75.4991 28.8368 75.5119 28.8306 75.5222 28.8213C75.5325 28.812 75.54 28.8 75.5439 28.7866C75.5477 28.7733 75.5478 28.7591 75.544 28.7458ZM53.5783 31.9064C54.0286 31.3607 54.6039 30.9318 55.2554 30.656C55.5879 30.5099 55.9357 30.4017 56.2924 30.3335C56.6659 30.233 57.0562 30.2111 57.4386 30.269C57.8107 30.3682 57.8752 30.7652 57.8008 31.0778C57.7225 31.4047 57.55 31.7014 57.3046 31.9312C56.8081 32.3776 56.1731 32.6395 55.5063 32.6729C54.8395 32.7063 54.1815 32.5092 53.6429 32.1148C53.5976 32.0794 53.5545 32.0413 53.5139 32.0007L53.5783 31.9064Z" fill="white" stroke="white" stroke-width="1.5"/>
<path d="M69.6842 41.2841C69.6842 41.2841 69.6842 41.2394 69.6594 41.2394C68.139 41.0517 66.6631 40.6 65.298 39.9047C64.6282 39.5872 63.9633 39.2547 63.2835 38.9471C62.6643 38.5929 61.9713 38.3873 61.2591 38.3467C60.9268 38.3692 60.6046 38.4711 60.3197 38.6437C60.0348 38.8164 59.7955 39.0548 59.6218 39.3391C59.5721 39.4234 59.4382 40.4753 59.2844 40.9368C59.1241 41.4658 58.8849 41.9676 58.5748 42.4253C58.296 42.8471 57.9348 43.2082 57.513 43.4871C57.1285 43.7163 56.7014 43.8648 56.2577 43.9237L56.0592 43.765C55.9302 43.6608 55.8012 43.5466 55.6772 43.4325C55.5531 43.3184 55.3844 43.1844 55.2306 43.0604C55.2139 43.0471 55.1933 43.0399 55.172 43.0399C55.1507 43.0399 55.13 43.0471 55.1133 43.0603C55.0967 43.0735 55.0849 43.092 55.0801 43.1128C55.0753 43.1335 55.0776 43.1553 55.0867 43.1745C55.1599 43.312 55.2446 43.4432 55.3398 43.5665C55.4489 43.6955 55.563 43.8195 55.6821 43.9386C55.9211 44.1758 56.1746 44.3979 56.4413 44.6035C56.9678 45.002 57.5291 45.3524 58.1184 45.6504C59.3824 46.2999 60.7297 46.7724 62.1225 47.0546C62.9491 47.2668 63.8137 47.2837 64.648 47.1042C64.673 47.1009 64.6957 47.0878 64.711 47.0678C64.7264 47.0478 64.7332 47.0225 64.7299 46.9975C64.7266 46.9725 64.7135 46.9499 64.6935 46.9345C64.6735 46.9192 64.6482 46.9124 64.6232 46.9157C63.8768 46.8927 63.1334 46.8098 62.4003 46.6676C61.7206 46.5138 61.0557 46.3103 60.4156 46.092C59.1876 45.6988 58.019 45.1396 56.9424 44.4298C56.8084 44.3405 56.6794 44.2462 56.5455 44.147C57.4291 43.961 58.2092 43.4467 58.7286 42.7081C59.0745 42.2322 59.3394 41.7024 59.5126 41.1402C59.6591 40.6007 59.7783 40.0543 59.8699 39.5028C60.2523 39.5539 60.6166 39.6969 60.9317 39.9196C61.2591 40.1032 61.5866 40.2768 61.924 40.4654C62.5889 40.8375 63.2538 41.2097 63.9484 41.5272C65.1405 42.1297 66.4793 42.3809 67.8087 42.2516C68.5161 42.1963 69.1832 41.9003 69.6991 41.4131C69.7069 41.4038 69.7127 41.393 69.7162 41.3813C69.7197 41.3697 69.7208 41.3575 69.7194 41.3454C69.718 41.3333 69.7142 41.3216 69.7081 41.3111C69.7021 41.3006 69.6939 41.2914 69.6842 41.2841ZM65.8736 41.8497C64.4495 41.557 63.1942 40.8078 61.9042 40.1478C61.5618 39.9742 61.2194 39.7956 60.8622 39.6517C60.5681 39.5035 60.2438 39.4254 59.9145 39.4234C60.0794 39.1811 60.3015 38.9833 60.5612 38.8474C60.8208 38.7115 61.11 38.6418 61.403 38.6444C61.7804 38.6722 62.1499 38.7663 62.4946 38.9223C62.8271 39.0563 63.1545 39.2001 63.487 39.344C64.7016 39.9563 65.9565 40.4851 67.243 40.9268C67.9696 41.1561 68.7242 41.2847 69.4857 41.3089C68.9653 41.6041 68.4007 41.8136 67.8136 41.9291C67.1674 42.0188 66.5103 41.9919 65.8736 41.8497Z" fill="white" stroke="white"/>
<defs>
<linearGradient id="paint0_linear_707_190" x1="21.3765" y1="11.5311" x2="60.017" y2="119.634" gradientUnits="userSpaceOnUse">
<stop stop-color="#706464"/>
<stop offset="1" stop-color="#4A4141"/>
</linearGradient>
<linearGradient id="paint1_linear_707_190" x1="28.5389" y1="65.7851" x2="71.8223" y2="65.7851" gradientUnits="userSpaceOnUse">
<stop stop-color="#F6929F"/>
<stop offset="1" stop-color="#FFC0C8"/>
</linearGradient>
</defs>
</svg>
