<svg width="20" height="20" viewBox="0 0 20 20" fill="none" xmlns="http://www.w3.org/2000/svg">
<circle cx="10" cy="10" r="10" fill="url(#paint0_linear_203_47006)"/>
<path d="M12.2861 14.2865C12.1575 14.2865 12.029 14.2579 11.9147 14.1865L8.34293 12.0434C8.23714 11.9799 8.14983 11.8897 8.08967 11.7819C8.02952 11.6742 7.99862 11.5525 8.00005 11.4291V5.71435C8.00005 5.31431 8.31436 5 8.71439 5C9.11443 5 9.42874 5.31431 9.42874 5.71435V11.0291L12.6576 12.9578C12.7906 13.0393 12.8934 13.162 12.9504 13.3072C13.0074 13.4524 13.0155 13.6122 12.9735 13.7624C12.9315 13.9126 12.8417 14.0451 12.7176 14.1396C12.5936 14.2342 12.4421 14.2858 12.2861 14.2865Z" fill="white"/>
<defs>
<linearGradient id="paint0_linear_203_47006" x1="0" y1="10" x2="20" y2="10" gradientUnits="userSpaceOnUse">
<stop stop-color="#F6929F"/>
<stop offset="1" stop-color="#FFC0C8"/>
</linearGradient>
</defs>
</svg>
