<svg width="50" height="50" viewBox="0 0 50 50" fill="none" xmlns="http://www.w3.org/2000/svg">
<circle cx="25" cy="25" r="24" fill="url(#paint0_linear_312_7563)" stroke="white" stroke-width="2"/>
<path d="M17.2798 14.54L24.9998 22.26L32.6798 14.58C32.8495 14.3994 33.0538 14.255 33.2807 14.1553C33.5075 14.0557 33.7521 14.0028 33.9998 14C34.5303 14 35.039 14.2107 35.414 14.5858C35.7891 14.9609 35.9998 15.4696 35.9998 16C36.0045 16.2452 35.959 16.4888 35.8661 16.7158C35.7733 16.9428 35.635 17.1484 35.4598 17.32L27.6798 25L35.4598 32.78C35.7895 33.1025 35.9828 33.5392 35.9998 34C35.9998 34.5304 35.7891 35.0391 35.414 35.4142C35.039 35.7893 34.5303 36 33.9998 36C33.7449 36.0106 33.4906 35.968 33.2531 35.8751C33.0155 35.7821 32.7999 35.6408 32.6198 35.46L24.9998 27.74L17.2998 35.44C17.1308 35.6145 16.929 35.7539 16.7058 35.85C16.4827 35.9461 16.2428 35.9971 15.9998 36C15.4694 36 14.9607 35.7893 14.5856 35.4142C14.2106 35.0391 13.9998 34.5304 13.9998 34C13.9952 33.7548 14.0407 33.5112 14.1335 33.2842C14.2264 33.0572 14.3647 32.8516 14.5398 32.68L22.3198 25L14.5398 17.22C14.2102 16.8975 14.0169 16.4608 13.9998 16C13.9998 15.4696 14.2106 14.9609 14.5856 14.5858C14.9607 14.2107 15.4694 14 15.9998 14C16.4798 14.006 16.9398 14.2 17.2798 14.54Z" fill="url(#paint1_linear_312_7563)"/>
<defs>
<linearGradient id="paint0_linear_312_7563" x1="8.7645" y1="4.57858" x2="25" y2="50" gradientUnits="userSpaceOnUse">
<stop stop-color="#706464"/>
<stop offset="1" stop-color="#4A4141"/>
</linearGradient>
<linearGradient id="paint1_linear_312_7563" x1="13.9995" y1="25.0008" x2="36.0002" y2="25.0008" gradientUnits="userSpaceOnUse">
<stop stop-color="#F6929F"/>
<stop offset="1" stop-color="#FFC0C8"/>
</linearGradient>
</defs>
</svg>
