<svg width="32" height="32" viewBox="0 0 32 32" fill="none" xmlns="http://www.w3.org/2000/svg">
<circle cx="16" cy="16" r="16" fill="white"/>
<path d="M18.8578 22.8583C18.6521 22.8583 18.4463 22.8125 18.2635 22.6983L12.5487 19.2694C12.3794 19.1677 12.2397 19.0234 12.1435 18.851C12.0472 18.6785 11.9978 18.4839 12.0001 18.2865V9.14283C12.0001 8.50278 12.503 7.99988 13.143 7.99988C13.7831 7.99988 14.286 8.50278 14.286 9.14283V17.6464L19.4521 20.7324C19.6649 20.8628 19.8294 21.059 19.9206 21.2913C20.0118 21.5236 20.0248 21.7794 19.9576 22.0197C19.8904 22.2601 19.7467 22.472 19.5482 22.6233C19.3498 22.7746 19.1074 22.8571 18.8578 22.8583Z" fill="url(#paint0_linear_16_7125)"/>
<defs>
<linearGradient id="paint0_linear_16_7125" x1="12" y1="15.4291" x2="20" y2="15.4291" gradientUnits="userSpaceOnUse">
<stop stop-color="#F6929F"/>
<stop offset="1" stop-color="#FFC0C8"/>
</linearGradient>
</defs>
</svg>
