<svg width="22" height="22" viewBox="0 0 22 22" fill="none" xmlns="http://www.w3.org/2000/svg">
<path d="M14.0769 11.7828C17.9004 11.7828 21 10.4052 21 8.70583C21 7.00649 17.9004 5.62891 14.0769 5.62891C10.2534 5.62891 7.15381 7.00649 7.15381 8.70583C7.15381 10.4052 10.2534 11.7828 14.0769 11.7828Z" stroke="white" stroke-width="1.2" stroke-linecap="round" stroke-linejoin="round"/>
<path d="M7.15381 8.70581V17.9366C7.15381 19.6289 10.2307 21.0135 14.0769 21.0135C17.923 21.0135 21 19.6289 21 17.9366V8.70581" stroke="white" stroke-width="1.2" stroke-linecap="round" stroke-linejoin="round"/>
<path d="M21 13.3212C21 15.0135 17.9231 16.3981 14.0769 16.3981C10.2308 16.3981 7.15385 15.0135 7.15385 13.3212M13.9231 2.55196C12.1254 1.44254 10.0328 0.905988 7.92308 1.0135C4.09231 1.0135 1 2.39812 1 4.09043C1 4.99812 1.89231 5.8135 3.30769 6.39812" stroke="white" stroke-width="1.2" stroke-linecap="round" stroke-linejoin="round"/>
<path d="M3.30769 15.6289C1.89231 15.0443 1 14.2289 1 13.3212V4.09041" stroke="white" stroke-width="1.2" stroke-linecap="round" stroke-linejoin="round"/>
<path d="M3.30769 11.0135C1.89231 10.4289 1 9.6135 1 8.70581" stroke="white" stroke-width="1.2" stroke-linecap="round" stroke-linejoin="round"/>
</svg>
