<svg width="20" height="20" viewBox="0 0 20 20" fill="none" xmlns="http://www.w3.org/2000/svg">
<circle cx="10" cy="10" r="10" fill="url(#paint0_linear_203_46989)"/>
<path d="M11.8493 10.84C11.7178 10.7596 11.5206 10.7818 11.411 10.89L10.5395 11.7472C10.4867 11.7992 10.4151 11.8284 10.3404 11.8284C10.2657 11.8284 10.194 11.7992 10.1412 11.7472L8.18328 9.81915C8.13048 9.76713 8.10081 9.69658 8.10081 9.62302C8.10081 9.54947 8.13048 9.47892 8.18328 9.4269L9.00381 8.61908C9.11367 8.51089 9.12972 8.32086 9.04043 8.1963L7.54754 6.11212C7.52689 6.08267 7.50028 6.05774 7.46939 6.0389C7.43849 6.02006 7.40397 6.00771 7.368 6.00263C7.33203 5.99755 7.29538 5.99985 7.26035 6.00938C7.22532 6.01891 7.19267 6.03548 7.16446 6.05803C7.16446 6.05803 6 6.96793 6 7.80432C6 11.2262 8.81678 14 12.2907 14C13.14 14 13.9661 12.4648 13.9661 12.4648C14.0009 12.3981 14.0093 12.321 13.9895 12.2486C13.9697 12.1762 13.9232 12.1136 13.8591 12.0731L11.8493 10.84Z" fill="white"/>
<defs>
<linearGradient id="paint0_linear_203_46989" x1="0" y1="10" x2="20" y2="10" gradientUnits="userSpaceOnUse">
<stop stop-color="#F6929F"/>
<stop offset="1" stop-color="#FFC0C8"/>
</linearGradient>
</defs>
</svg>
