<svg width="20" height="20" viewBox="0 0 20 20" fill="none" xmlns="http://www.w3.org/2000/svg">
<rect width="20" height="20" rx="6" fill="white"/>
<path d="M5.5 10C5.5 8.89493 5.93899 7.83512 6.72039 7.05372C7.50179 6.27232 8.5616 5.83333 9.66667 5.83333C10.7717 5.83333 11.8315 6.27232 12.6129 7.05372C13.3943 7.83512 13.8333 8.89493 13.8333 10C13.8333 11.1051 13.3943 12.1649 12.6129 12.9463C11.8315 13.7277 10.7717 14.1667 9.66667 14.1667C8.5616 14.1667 7.50179 13.7277 6.72039 12.9463C5.93899 12.1649 5.5 11.1051 5.5 10ZM15.1667 4.5V4.83333H14.8333V4.5H15.1667Z" stroke="#666666"/>
</svg>
