<svg width="80" height="80" viewBox="0 0 80 80" fill="none" xmlns="http://www.w3.org/2000/svg">
<g clip-path="url(#clip0_68_94)">
<path d="M80 40C80 62.0914 62.0914 80 40 80C17.9086 80 0 62.0914 0 40C0 17.9086 17.9086 0 40 0C62.0914 0 80 17.9086 80 40Z" fill="white"/>
<path d="M77.1885 39.9361C77.1885 60.51 60.51 77.1885 39.9361 77.1885C19.3622 77.1885 2.68372 60.51 2.68372 39.9361C2.68372 19.3622 19.3622 2.68372 39.9361 2.68372C60.51 2.68372 77.1885 19.3622 77.1885 39.9361Z" fill="url(#paint0_linear_68_94)"/>
<path d="M32.154 17.2524C31.0846 17.4512 30.1856 17.7541 29.2486 18.2276C28.5483 18.5873 28.2076 18.8335 27.5167 19.5246C26.0214 21.011 25.4914 22.3647 25.4914 24.7505C25.4914 26.3126 25.6523 27.0889 26.2106 28.2534C26.6933 29.2759 27.5451 30.1942 28.6902 30.9706L29.3716 31.444L28.6524 31.709C25.993 32.6746 24.1191 34.7291 23.2579 37.6261C23.0497 38.3172 23.0023 38.7149 22.9645 39.9456C22.9078 41.6686 23.0118 42.6342 23.4093 43.8272C23.9771 45.5312 24.6964 46.6958 25.993 48.0212C27.4125 49.4507 28.8133 50.246 30.7912 50.7194C32.5325 51.136 34.1415 51.0696 36.8482 50.4827C37.6525 50.3123 38.5517 50.1419 38.8356 50.104C39.1195 50.0757 39.4791 50.0188 39.6306 49.9904C39.9051 49.9431 39.9051 49.9431 39.4129 49.659C38.4759 49.1194 37.9176 48.5135 37.416 47.4626C37.1605 46.9325 36.9049 46.2887 36.8387 46.0331C36.7724 45.7681 36.7157 45.5408 36.6968 45.5312C36.6873 45.5123 36.5548 45.6259 36.4033 45.787C35.7314 46.5254 33.7439 47.3206 32.5894 47.3301C31.3212 47.3396 29.5987 46.497 28.8228 45.4934C28.2927 44.8023 27.8007 43.7893 27.6113 43.0036C27.3653 42.0189 27.3842 39.9266 27.6492 38.961C28.1603 37.0769 29.258 35.7894 31.1319 34.8901C32.3055 34.322 33.4506 34.1137 35.0973 34.1799L36.4223 34.2368V30.9516L35.5705 30.8948C34.4253 30.8096 33.6399 30.6109 32.7124 30.1659C31.6997 29.6831 30.8101 28.8688 30.4127 28.0546C29.4 26.0003 29.788 23.302 31.3212 21.7778C32.3717 20.7174 33.4317 20.3766 34.8324 20.6417C35.6841 20.8027 36.2141 21.0394 36.5548 21.4086L36.7819 21.6547L36.9996 20.8216C37.2267 19.9033 37.6336 19.0133 38.1447 18.3127C38.334 18.0666 38.4665 17.8394 38.4476 17.8299C38.334 17.7258 36.9807 17.366 36.2424 17.2524C35.2014 17.082 33.0816 17.082 32.154 17.2524Z" fill="url(#paint1_linear_68_94)"/>
<path d="M43.1417 17.4511C41.2584 17.7636 40.1132 18.521 39.4697 19.8653C38.7504 21.3895 38.7977 20.5564 38.7599 32.4C38.7315 43.3632 38.7504 44.1207 39.1195 45.607C39.6211 47.6424 40.2078 48.4472 42.0722 49.678C43.5203 50.6341 44.9493 51.0413 46.7853 51.0223C51.3092 50.9561 54.5079 49.0625 56.3817 45.3419C56.8455 44.4141 57.2524 43.1644 57.3944 42.1987C57.5364 41.2142 57.4513 38.7716 57.2524 37.9573C56.5048 34.9752 54.5173 32.7125 51.7539 31.6994L51.0252 31.4344L51.7161 30.9705C52.8518 30.2226 53.713 29.2854 54.2051 28.2534C54.7635 27.089 54.9244 26.3126 54.9244 24.7504C54.9244 23.2451 54.7446 22.3837 54.1766 21.2192C53.306 19.4677 51.5079 18.1328 49.3311 17.6405C48.8012 17.5175 48.0251 17.47 46.0377 17.4417C44.5991 17.4228 43.3026 17.4322 43.1417 17.4511ZM47.8547 20.8784C49.4353 21.6168 50.41 23.1884 50.5331 25.186C50.675 27.4202 49.757 29.1054 47.8547 30.109C46.8421 30.6391 45.9336 30.8474 44.3057 30.9043L42.9051 30.961V27.0321C42.9051 22.6771 42.9051 22.6961 43.5203 21.7872C44.3153 20.6322 46.3973 20.1967 47.8547 20.8784ZM48.1009 34.4261C51.4416 35.4106 53.2492 38.052 52.9936 41.5739C52.7949 44.4235 51.4795 46.3265 49.1986 47.0838C47.921 47.5099 46.8895 47.3869 45.2805 46.6294C44.0692 46.0519 43.4445 45.323 43.0565 44.007C42.924 43.5621 42.9051 42.852 42.9051 38.9231V34.3598L43.1228 34.3219C43.2363 34.303 43.6054 34.2652 43.9461 34.2557C44.2868 34.2461 44.5802 34.2083 44.5991 34.1894C44.6275 34.1705 45.2616 34.1705 46.0188 34.1894C47.0882 34.2083 47.5614 34.2652 48.1009 34.4261Z" fill="url(#paint2_linear_68_94)"/>
<path d="M21.5353 54.8661L19.4344 54.885L19.6426 55.1785C19.8603 55.472 19.8603 55.491 19.8603 58.7667C19.8603 62.0518 19.8603 62.0612 19.6426 62.3548L19.4249 62.6482H24.3178L24.5638 61.8909C24.6964 61.4743 24.7911 61.1334 24.772 61.1334C24.7436 61.1334 24.5733 61.2376 24.384 61.3701C23.8446 61.7298 23.201 61.834 22.1222 61.7394L21.1852 61.6542L21.1284 58.8613H21.8193C22.2547 58.8613 22.6143 58.9181 22.7847 59.0033C22.9361 59.0886 23.0685 59.1359 23.0875 59.1264C23.097 59.1075 23.0875 58.8423 23.059 58.53L23.0118 57.9619L22.0749 57.9903L21.1379 58.0281V55.8413L21.4786 55.775C22.0559 55.6708 23.078 55.7844 23.4472 56.0022L23.7879 56.201L23.7784 55.756C23.769 55.5099 23.7405 55.2069 23.7026 55.0744L23.6459 54.8377L21.5353 54.8661Z" fill="url(#paint3_linear_68_94)"/>
<path d="M32.3527 55.0933C31.87 55.3489 31.7849 55.8886 32.1634 56.2578C32.4663 56.5702 32.9489 56.5797 33.2328 56.2767C33.8102 55.6614 33.0908 54.6863 32.3527 55.0933Z" fill="url(#paint4_linear_68_94)"/>
<path d="M26.485 57.1288C26.3337 57.1477 26.0213 57.1856 25.7941 57.2139L25.3967 57.2613L25.5859 57.5075C25.7657 57.7347 25.7752 57.8861 25.7752 59.95C25.7752 62.0329 25.7657 62.1654 25.5765 62.4021L25.3872 62.6482H27.2989L27.1096 62.4021C26.9298 62.1654 26.9109 62.0234 26.9109 60.4518C26.9109 58.5867 26.9866 58.2459 27.4503 57.9998C27.791 57.8199 28.6239 57.8389 28.9362 58.0377C29.4473 58.3784 29.5135 58.653 29.5135 60.5275C29.5135 62.0897 29.4946 62.2695 29.3337 62.4495L29.1539 62.6482H31.1035L30.9141 62.4304C30.7248 62.2317 30.7059 62.0992 30.6776 60.2814C30.6397 58.1513 30.6019 57.9808 30.034 57.5075C29.6838 57.2045 29.2011 57.0625 28.5388 57.0625C27.9992 57.0625 27.5829 57.233 27.176 57.6116L26.9109 57.8578V57.4602C26.9109 57.2424 26.8825 57.072 26.8447 57.072C26.7973 57.0814 26.6459 57.1099 26.485 57.1288Z" fill="url(#paint5_linear_68_94)"/>
<path d="M33.0625 57.1194C32.9868 57.1288 32.6745 57.1761 32.3716 57.2045L31.8322 57.2614L32.0215 57.5075C32.2013 57.7347 32.2107 57.8861 32.2107 59.95C32.2107 62.0329 32.2013 62.1654 32.012 62.4021L31.8228 62.6482H33.7344L33.5452 62.4021C33.3559 62.1559 33.3465 62.0329 33.3465 59.6092C33.3465 58.2081 33.3181 57.072 33.2801 57.072C33.2328 57.0814 33.1383 57.1003 33.0625 57.1194Z" fill="url(#paint6_linear_68_94)"/>
<path d="M34.6998 55.169L34.9554 55.472V58.7761C34.9554 62.1559 34.9365 62.3452 34.5863 62.6293C34.3402 62.8281 38.069 62.724 38.7315 62.5157C39.3845 62.2979 40.2836 61.4554 40.435 60.8968C40.7379 59.7985 40.2836 58.8801 39.1669 58.3406L38.722 58.1323L39.0722 57.9145C39.2898 57.782 39.4981 57.5453 39.6022 57.3086C39.9996 56.4376 39.7063 55.6708 38.7882 55.2164C38.2204 54.9323 38.211 54.9323 36.3371 54.9039L34.4538 54.8661L34.6998 55.169ZM37.7756 55.8317C38.069 55.9642 38.2204 56.1063 38.3246 56.3619C38.7031 57.2614 37.965 58.0092 36.7062 58.0092H36.1857V55.7465L36.5453 55.7086C37.2456 55.6329 37.3781 55.6519 37.7756 55.8317ZM38.1448 59.0128C38.3624 59.0979 38.6748 59.3062 38.8356 59.4862C39.0817 59.7701 39.1195 59.8932 39.1195 60.3382C39.1195 61.3607 38.5895 61.7962 37.3592 61.7962C36.1006 61.7962 36.1857 61.9098 36.1857 60.272V58.8707L36.5926 58.8423C37.1794 58.795 37.6999 58.8518 38.1448 59.0128Z" fill="url(#paint7_linear_68_94)"/>
<path d="M43.6906 57.2045C43.5203 57.2802 43.2743 57.4411 43.1512 57.5642L42.9241 57.7914L42.8578 57.4695C42.8105 57.1856 42.7727 57.1476 42.5929 57.195C42.4793 57.2234 42.1669 57.2517 41.8925 57.2517H41.4004L41.5897 57.5737C41.7695 57.8767 41.7789 58.0376 41.7506 60.0731C41.7222 62.2316 41.7222 62.2601 41.495 62.4967L41.2679 62.7429H42.2237C42.7538 62.7429 43.189 62.7145 43.189 62.6671C43.189 62.6293 43.1228 62.5156 43.0471 62.421C42.8483 62.1559 42.8483 59.1926 43.0376 58.7192C43.2458 58.2364 43.5581 58.0754 44.1922 58.1228L44.7127 58.1701L44.656 57.1098L44.3248 57.0909C44.1449 57.0719 43.8515 57.1287 43.6906 57.2045Z" fill="url(#paint8_linear_68_94)"/>
<path d="M47.2018 57.1666C46.6244 57.2992 45.839 57.8104 45.4888 58.2743C44.8925 59.0601 44.7411 60.2435 45.1292 61.1712C45.5361 62.1465 46.6907 62.8659 47.8737 62.8754C48.8769 62.8754 49.4636 62.6387 50.1545 61.9476C50.6561 61.4459 50.7508 61.2849 50.9021 60.7358C51.1009 59.9973 51.0535 59.4767 50.7508 58.7665C50.5236 58.2364 49.7949 57.498 49.2744 57.2803C48.839 57.1098 47.7223 57.0436 47.2018 57.1666ZM48.6591 58.047C49.2554 58.3595 49.634 58.9843 49.757 59.827C49.9747 61.3134 48.6591 62.4682 47.3816 61.9381C46.8989 61.7393 46.7096 61.55 46.4257 60.9914C46.1322 60.4139 46.085 59.3725 46.3311 58.9086C46.5204 58.5489 46.9462 58.1417 47.2585 58.0187C47.6087 57.8767 48.3659 57.8956 48.6591 58.047Z" fill="url(#paint9_linear_68_94)"/>
<path d="M52.3691 57.1572C52.2934 57.2045 51.9716 57.2518 51.6688 57.2518H51.101L51.3564 57.5075C51.5079 57.6778 51.9053 58.5489 52.4164 59.8553C52.8707 61.0009 53.2966 62.0328 53.3723 62.1559C53.5615 62.4399 54.2808 62.9512 54.366 62.8659C54.4038 62.8185 54.7918 61.9003 55.2178 60.8115L55.9937 58.8328L56.59 60.4328C57.2336 62.137 57.366 62.3831 57.8581 62.724C58.1326 62.9038 58.1894 62.9132 58.2557 62.7996C58.303 62.7145 58.833 61.4742 59.4293 60.0257C60.0349 58.5772 60.5459 57.3654 60.5743 57.3181C60.5932 57.2803 60.2431 57.2518 59.7889 57.2518H58.956L59.1737 57.4506C59.3346 57.602 59.3724 57.7156 59.3251 57.905C59.2399 58.2553 58.1043 61.1334 58.0474 61.1334C57.9718 61.1334 56.7226 57.6684 56.7226 57.4506C56.7226 57.2612 56.6751 57.2518 55.8992 57.2518C55.1136 57.2518 55.0947 57.2612 55.2367 57.4222C55.3312 57.5169 55.3976 57.6873 55.3976 57.7914C55.3976 57.9618 54.366 60.7737 54.1767 61.105C54.1484 61.1712 53.7981 60.4045 53.4195 59.4009C53.0316 58.3973 52.6719 57.4695 52.6152 57.3275C52.53 57.1287 52.4827 57.0909 52.3691 57.1572Z" fill="url(#paint10_linear_68_94)"/>
</g>
<defs>
<linearGradient id="paint0_linear_68_94" x1="81.3187" y1="66.1539" x2="1.0989" y2="15.1649" gradientUnits="userSpaceOnUse">
<stop stop-color="#362E2E"/>
<stop offset="0.765625" stop-color="#716565"/>
<stop offset="1" stop-color="#484242"/>
</linearGradient>
<linearGradient id="paint1_linear_68_94" x1="40" y1="1.43324e-06" x2="40" y2="80" gradientUnits="userSpaceOnUse">
<stop stop-color="#EC84B0"/>
<stop offset="0.526042" stop-color="#FAE8F5"/>
<stop offset="1" stop-color="#EC84B0"/>
</linearGradient>
<linearGradient id="paint2_linear_68_94" x1="58.3118" y1="80" x2="58.3118" y2="0.723975" gradientUnits="userSpaceOnUse">
<stop stop-color="#BCBCBC"/>
<stop offset="1" stop-color="white"/>
</linearGradient>
<linearGradient id="paint3_linear_68_94" x1="40" y1="3.03444e-05" x2="40" y2="80" gradientUnits="userSpaceOnUse">
<stop stop-color="white"/>
<stop offset="1" stop-color="#B6B6B6"/>
</linearGradient>
<linearGradient id="paint4_linear_68_94" x1="40" y1="6.91565e-05" x2="40" y2="80" gradientUnits="userSpaceOnUse">
<stop stop-color="white"/>
<stop offset="1" stop-color="#B6B6B6"/>
</linearGradient>
<linearGradient id="paint5_linear_68_94" x1="40" y1="4.17284e-05" x2="40" y2="80" gradientUnits="userSpaceOnUse">
<stop stop-color="white"/>
<stop offset="1" stop-color="#B6B6B6"/>
</linearGradient>
<linearGradient id="paint6_linear_68_94" x1="40" y1="5.38808e-05" x2="40" y2="80" gradientUnits="userSpaceOnUse">
<stop stop-color="white"/>
<stop offset="1" stop-color="#B6B6B6"/>
</linearGradient>
<linearGradient id="paint7_linear_68_94" x1="47.5145" y1="54.866" x2="47.5145" y2="62.8754" gradientUnits="userSpaceOnUse">
<stop stop-color="#EC84B0"/>
<stop offset="0.526042" stop-color="#FAE8F5"/>
<stop offset="1" stop-color="#EC84B0"/>
</linearGradient>
<linearGradient id="paint8_linear_68_94" x1="47.5145" y1="54.8659" x2="47.5145" y2="62.8754" gradientUnits="userSpaceOnUse">
<stop stop-color="#EC84B0"/>
<stop offset="0.526042" stop-color="#FAE8F5"/>
<stop offset="1" stop-color="#EC84B0"/>
</linearGradient>
<linearGradient id="paint9_linear_68_94" x1="47.5145" y1="54.8659" x2="47.5145" y2="62.8754" gradientUnits="userSpaceOnUse">
<stop stop-color="#EC84B0"/>
<stop offset="0.526042" stop-color="#FAE8F5"/>
<stop offset="1" stop-color="#EC84B0"/>
</linearGradient>
<linearGradient id="paint10_linear_68_94" x1="47.5145" y1="54.8659" x2="47.5145" y2="62.8754" gradientUnits="userSpaceOnUse">
<stop stop-color="#EC84B0"/>
<stop offset="0.526042" stop-color="#FAE8F5"/>
<stop offset="1" stop-color="#EC84B0"/>
</linearGradient>
<clipPath id="clip0_68_94">
<rect width="80" height="80" fill="white"/>
</clipPath>
</defs>
</svg>
