<svg width="30" height="30" viewBox="0 0 30 30" fill="none" xmlns="http://www.w3.org/2000/svg">
<circle cx="15" cy="15" r="15" fill="url(#paint0_linear_203_46982)"/>
<path d="M15.488 15.0485C13.042 15.0485 11.009 12.9957 11.009 10.5667C11.009 8.05365 13.042 6 15.4889 6C18.019 6 19.968 8.05278 19.968 10.5667C19.9636 11.7594 19.4909 12.9015 18.6536 13.7421C17.8163 14.5826 16.683 15.0528 15.5028 15.0494L15.488 15.0485ZM15.488 8.63991C14.4525 8.63991 13.6645 9.51929 13.6645 10.5676C13.6645 11.6141 14.4525 12.4103 15.4889 12.4103C16.5669 12.4103 17.3133 11.6141 17.3133 10.5676C17.3141 9.51842 16.5669 8.63991 15.488 8.63991ZM17.2717 18.7778L19.8026 21.2497C20.3005 21.7931 20.3005 22.5893 19.8026 23.0925C19.2641 23.6358 18.4337 23.6358 18.019 23.0925L15.4889 20.5786L13.042 23.0925C12.7935 23.3436 12.461 23.4687 12.087 23.4687C11.7969 23.4687 11.4653 23.3427 11.1743 23.0925C10.6765 22.5893 10.6765 21.7931 11.1743 21.2488L13.7459 18.7769C12.8172 18.499 11.9264 18.1054 11.0938 17.6053C10.4713 17.2701 10.3474 16.4328 10.6791 15.8036C11.0938 15.1754 11.8402 15.0082 12.5043 15.4274C13.4036 15.982 14.4367 16.2754 15.4902 16.2754C16.5437 16.2754 17.5768 15.982 18.4761 15.4274C19.1402 15.0082 19.9273 15.1754 20.3005 15.8036C20.6745 16.4328 20.5074 17.2693 19.9264 17.6053C19.1394 18.1084 18.2268 18.4855 17.2726 18.7787L17.2717 18.7778Z" fill="white"/>
<defs>
<linearGradient id="paint0_linear_203_46982" x1="0" y1="15" x2="30" y2="15" gradientUnits="userSpaceOnUse">
<stop stop-color="#F6929F"/>
<stop offset="1" stop-color="#FFC0C8"/>
</linearGradient>
</defs>
</svg>
