<svg width="20" height="20" viewBox="0 0 20 20" fill="none" xmlns="http://www.w3.org/2000/svg">
<circle cx="10" cy="10" r="10" fill="#FE8B9A"/>
<path d="M12.3116 11.05C12.1472 10.9495 11.9008 10.9772 11.7638 11.1124L10.6744 12.1839C10.6084 12.2489 10.5188 12.2855 10.4255 12.2855C10.3321 12.2855 10.2426 12.2489 10.1765 12.1839L7.7291 9.77394C7.6631 9.70891 7.62602 9.62073 7.62602 9.52878C7.62602 9.43683 7.6631 9.34865 7.7291 9.28362L8.75476 8.27385C8.89208 8.13861 8.91215 7.90108 8.80054 7.74538L6.93442 5.14015C6.90861 5.10334 6.87535 5.07218 6.83673 5.04862C6.79811 5.02507 6.75497 5.00964 6.71 5.00329C6.66503 4.99694 6.61922 4.99981 6.57544 5.01173C6.53165 5.02364 6.49084 5.04435 6.45557 5.07253C6.45557 5.07253 5 6.20992 5 7.2554C5 11.5327 8.52097 15 12.8634 15C13.925 15 14.9577 13.081 14.9577 13.081C15.0012 12.9976 15.0116 12.9013 14.9868 12.8107C14.9621 12.7202 14.904 12.642 14.8239 12.5914L12.3116 11.05Z" fill="white"/>
</svg>
