<svg width="200" height="32" viewBox="0 0 200 32" fill="none" xmlns="http://www.w3.org/2000/svg">
<path d="M16 0L19.5922 11.0557H31.2169L21.8123 17.8885L25.4046 28.9443L16 22.1115L6.59544 28.9443L10.1877 17.8885L0.783095 11.0557H12.4078L16 0Z" fill="url(#paint0_linear_220_99601)"/>
<path d="M58 0L61.5922 11.0557H73.2169L63.8123 17.8885L67.4046 28.9443L58 22.1115L48.5954 28.9443L52.1877 17.8885L42.7831 11.0557H54.4078L58 0Z" fill="url(#paint1_linear_220_99601)"/>
<path d="M100 0L103.592 11.0557H115.217L105.812 17.8885L109.405 28.9443L100 22.1115L90.5954 28.9443L94.1877 17.8885L84.7831 11.0557H96.4078L100 0Z" fill="url(#paint2_linear_220_99601)"/>
<path d="M142 0L145.592 11.0557H157.217L147.812 17.8885L151.405 28.9443L142 22.1115L132.595 28.9443L136.188 17.8885L126.783 11.0557H138.408L142 0Z" fill="url(#paint3_linear_220_99601)"/>
<path d="M184 0L187.592 11.0557H199.217L189.812 17.8885L193.405 28.9443L184 22.1115L174.595 28.9443L178.188 17.8885L168.783 11.0557H180.408L184 0Z" fill="url(#paint4_linear_220_99601)"/>
<defs>
<linearGradient id="paint0_linear_220_99601" x1="0" y1="16" x2="32" y2="16" gradientUnits="userSpaceOnUse">
<stop stop-color="#F6929F"/>
<stop offset="1" stop-color="#FFC0C8"/>
</linearGradient>
<linearGradient id="paint1_linear_220_99601" x1="42" y1="16" x2="74" y2="16" gradientUnits="userSpaceOnUse">
<stop stop-color="#F6929F"/>
<stop offset="1" stop-color="#FFC0C8"/>
</linearGradient>
<linearGradient id="paint2_linear_220_99601" x1="84" y1="16" x2="116" y2="16" gradientUnits="userSpaceOnUse">
<stop stop-color="#F6929F"/>
<stop offset="1" stop-color="#FFC0C8"/>
</linearGradient>
<linearGradient id="paint3_linear_220_99601" x1="126" y1="16" x2="158" y2="16" gradientUnits="userSpaceOnUse">
<stop stop-color="#F6929F"/>
<stop offset="1" stop-color="#FFC0C8"/>
</linearGradient>
<linearGradient id="paint4_linear_220_99601" x1="168" y1="16" x2="200" y2="16" gradientUnits="userSpaceOnUse">
<stop stop-color="#F6929F"/>
<stop offset="1" stop-color="#FFC0C8"/>
</linearGradient>
</defs>
</svg>
