<svg width="184" height="191" viewBox="0 0 184 191" fill="none" xmlns="http://www.w3.org/2000/svg">
<path d="M151.517 83.1341C151.517 115.995 124.878 142.634 92.017 142.634C59.1561 142.634 32.517 115.995 32.517 83.1341C32.517 50.2732 59.1561 23.6341 92.017 23.6341C124.878 23.6341 151.517 50.2732 151.517 83.1341Z" fill="url(#paint0_linear_79_863)"/>
<path d="M149.517 83.1341C149.517 114.89 123.773 140.634 92.0171 140.634C60.2607 140.634 34.5171 114.89 34.5171 83.1341C34.5171 51.3777 60.2607 25.6341 92.0171 25.6341C123.773 25.6341 149.517 51.3777 149.517 83.1341Z" stroke="white" stroke-width="4"/>
<path d="M159.824 73.5761C159.688 72.8213 159.696 72.127 159.848 71.4932C160.001 70.8628 160.277 70.3365 160.677 69.9141C161.077 69.4917 161.578 69.2153 162.178 69.085L162.535 71.0558C162.248 71.1258 162.012 71.2677 161.827 71.4816C161.646 71.6949 161.522 71.9573 161.455 72.2688C161.389 72.5804 161.388 72.9161 161.453 73.276C161.523 73.6604 161.651 73.9891 161.837 74.2621C162.027 74.5345 162.258 74.7327 162.53 74.8568C162.801 74.981 163.094 75.0128 163.408 74.9524C163.733 74.8971 164.005 74.7614 164.222 74.5453C164.439 74.3292 164.588 74.046 164.669 73.6958C164.751 73.349 164.75 72.9485 164.668 72.4942L164.496 71.5455L165.996 71.2743L166.167 72.223C166.235 72.5969 166.359 72.912 166.538 73.1681C166.719 73.4278 166.941 73.6168 167.204 73.7352C167.471 73.853 167.759 73.882 168.07 73.8222C168.374 73.7707 168.626 73.6549 168.824 73.4746C169.027 73.2973 169.168 73.0714 169.248 72.7971C169.329 72.5262 169.339 72.223 169.279 71.8876C169.219 71.5591 169.105 71.2658 168.935 71.0078C168.766 70.7497 168.556 70.555 168.305 70.4236C168.057 70.2915 167.782 70.2474 167.48 70.2913L167.141 68.4201C167.745 68.3253 168.304 68.4028 168.818 68.6526C169.336 68.9053 169.774 69.2881 170.13 69.8011C170.49 70.3134 170.732 70.9173 170.858 71.6127C170.988 72.329 170.966 72.9754 170.792 73.5517C170.623 74.1309 170.339 74.6063 169.94 74.9778C169.542 75.3494 169.07 75.5845 168.525 75.6831C167.921 75.796 167.382 75.7094 166.909 75.4234C166.435 75.141 166.083 74.7211 165.852 74.1638L165.769 74.1789C165.8 74.9527 165.625 75.5816 165.244 76.0656C164.866 76.5525 164.342 76.8549 163.67 76.9728C163.069 77.0815 162.5 77.0076 161.963 76.7511C161.43 76.4975 160.975 76.0962 160.598 75.5474C160.221 75.002 159.963 74.3449 159.824 73.5761Z" fill="white"/>
<path d="M161.027 81.7062L160.989 79.5971L171.965 83.2406L172.009 85.6799L161.171 89.7215L161.133 87.6125L169.751 84.5432L169.75 84.4579L161.027 81.7062ZM165.305 81.6984L165.408 87.4503L163.821 87.4789L163.718 81.727L165.305 81.6984Z" fill="white"/>
<path d="M170.302 102.733L159.537 100.964L159.855 99.0302L169.001 100.533L169.774 95.823L160.628 94.3206L160.946 92.3863L171.711 94.1547L170.302 102.733Z" fill="white"/>
<path d="M168.899 108.429L168.232 110.272L161.24 107.74L161.205 107.835L166.451 115.19L165.847 116.858L155.59 113.144L156.262 111.286L163.249 113.816L163.28 113.73L158.045 106.362L158.642 104.715L168.899 108.429Z" fill="white"/>
<path d="M155.573 128.287L156.58 126.568C156.89 126.684 157.193 126.74 157.488 126.735C157.785 126.733 158.068 126.678 158.336 126.572C158.604 126.465 158.85 126.309 159.074 126.102C159.299 125.901 159.496 125.656 159.664 125.368C159.964 124.856 160.101 124.327 160.075 123.781C160.052 123.237 159.859 122.708 159.496 122.196C159.137 121.685 158.603 121.223 157.895 120.808C157.175 120.387 156.503 120.143 155.878 120.078C155.255 120.018 154.703 120.111 154.222 120.356C153.743 120.606 153.354 120.985 153.056 121.494C152.891 121.776 152.774 122.061 152.704 122.349C152.635 122.643 152.617 122.93 152.649 123.212C152.68 123.498 152.763 123.771 152.899 124.031C153.032 124.294 153.222 124.533 153.467 124.747L152.452 126.461C152.042 126.134 151.704 125.749 151.437 125.305C151.168 124.864 150.984 124.384 150.885 123.865C150.789 123.348 150.791 122.81 150.891 122.251C150.995 121.695 151.211 121.136 151.539 120.575C152.023 119.748 152.647 119.121 153.41 118.696C154.174 118.27 155.027 118.082 155.969 118.131C156.911 118.181 157.888 118.502 158.899 119.093C159.913 119.687 160.67 120.383 161.17 121.182C161.673 121.982 161.925 122.819 161.928 123.693C161.931 124.567 161.692 125.415 161.211 126.236C160.905 126.76 160.546 127.205 160.135 127.569C159.724 127.933 159.273 128.208 158.782 128.394C158.294 128.581 157.778 128.668 157.235 128.655C156.692 128.646 156.139 128.524 155.573 128.287Z" fill="white"/>
<path d="M146.416 128.5L147.788 126.897L153.578 136.909L151.992 138.762L141.204 134.59L142.575 132.987L151.058 136.413L151.113 136.348L146.416 128.5ZM149.621 131.334L145.88 135.704L144.674 134.672L148.415 130.301L149.621 131.334Z" fill="white"/>
<path d="M145.922 142.818L146.995 144.08L140.363 149.717L139.29 148.455L141.859 146.271L135.866 139.222L137.36 137.952L143.353 145.002L145.922 142.818Z" fill="white"/>
<path d="M133.574 149.266L131.198 150.689C130.482 151.118 129.798 151.368 129.145 151.44C128.492 151.517 127.901 151.426 127.373 151.166C126.845 150.907 126.41 150.491 126.067 149.918C125.722 149.343 125.555 148.753 125.567 148.15C125.58 147.551 125.77 146.973 126.137 146.418C126.501 145.865 127.041 145.374 127.757 144.945L131.262 142.846L136.868 152.205L135.168 153.223L130.394 145.253L128.589 146.334C128.212 146.56 127.935 146.823 127.758 147.124C127.582 147.424 127.497 147.731 127.504 148.046C127.507 148.363 127.591 148.658 127.755 148.932C127.992 149.328 128.346 149.574 128.817 149.669C129.286 149.768 129.804 149.648 130.371 149.309L132.747 147.886L133.574 149.266Z" fill="white"/>
<path d="M114.955 158.729L116.817 158.02C116.986 158.305 117.187 158.538 117.42 158.719C117.653 158.904 117.908 159.038 118.183 159.123C118.459 159.208 118.749 159.241 119.052 159.22C119.354 159.204 119.661 159.136 119.973 159.017C120.527 158.806 120.965 158.48 121.287 158.038C121.61 157.599 121.791 157.067 121.83 156.44C121.87 155.817 121.744 155.122 121.451 154.355C121.154 153.576 120.783 152.965 120.337 152.523C119.889 152.085 119.401 151.812 118.873 151.701C118.342 151.596 117.801 151.648 117.251 151.858C116.945 151.974 116.675 152.122 116.44 152.303C116.203 152.489 116.008 152.701 115.857 152.942C115.702 153.183 115.595 153.448 115.538 153.736C115.477 154.025 115.475 154.33 115.533 154.65L113.667 155.349C113.552 154.838 113.53 154.326 113.601 153.813C113.668 153.301 113.825 152.811 114.073 152.344C114.322 151.881 114.661 151.463 115.089 151.091C115.518 150.722 116.037 150.422 116.644 150.191C117.54 149.849 118.419 149.752 119.28 149.899C120.142 150.045 120.924 150.433 121.627 151.062C122.331 151.691 122.891 152.553 123.308 153.648C123.727 154.746 123.88 155.763 123.769 156.699C123.66 157.637 123.332 158.448 122.786 159.131C122.241 159.814 121.524 160.325 120.634 160.664C120.067 160.88 119.509 161.001 118.96 161.028C118.412 161.054 117.888 160.986 117.389 160.823C116.891 160.663 116.434 160.407 116.019 160.056C115.602 159.71 115.248 159.267 114.955 158.729Z" fill="white"/>
<path d="M100.926 154.402L102.875 154.042L104.558 163.145L106.338 162.816C106.82 162.727 107.203 162.582 107.488 162.382C107.769 162.185 107.96 161.937 108.06 161.637C108.157 161.341 108.17 161.002 108.1 160.622C108.029 160.241 107.896 159.933 107.701 159.699C107.507 159.467 107.244 159.312 106.911 159.233C106.576 159.157 106.169 159.164 105.69 159.252L103.082 159.735L102.784 158.121L105.654 157.591C106.478 157.438 107.198 157.446 107.814 157.614C108.431 157.785 108.933 158.095 109.319 158.544C109.702 158.997 109.958 159.567 110.085 160.255C110.211 160.939 110.179 161.565 109.987 162.131C109.793 162.701 109.441 163.182 108.932 163.572C108.423 163.962 107.758 164.233 106.937 164.385L102.909 165.129L100.926 154.402ZM107.372 158.237L105.25 158.63L106.96 153.287L109.129 152.886L107.372 158.237Z" fill="white"/>
<path d="M63.0746 148.073C63.7737 148.389 64.3412 148.789 64.7769 149.274C65.2094 149.757 65.4863 150.284 65.6075 150.853C65.7287 151.421 65.6727 151.99 65.4395 152.559L63.6138 151.735C63.7189 151.459 63.7357 151.185 63.6644 150.911C63.5917 150.64 63.4458 150.39 63.2268 150.158C63.0077 149.927 62.7315 149.736 62.3981 149.586C62.0421 149.425 61.6987 149.344 61.3681 149.343C61.036 149.345 60.7419 149.423 60.4857 149.576C60.2296 149.729 60.0374 149.952 59.9092 150.245C59.7702 150.545 59.7281 150.845 59.783 151.147C59.8379 151.448 59.9867 151.731 60.2293 151.997C60.4687 152.26 60.7988 152.487 61.2196 152.677L62.0984 153.074L61.4719 154.462L60.5931 154.066C60.2468 153.91 59.9171 153.833 59.6041 153.836C59.2879 153.837 59.0064 153.913 58.7596 154.063C58.5114 154.215 58.3239 154.437 58.1972 154.726C58.0669 155.006 58.0198 155.279 58.0558 155.545C58.0871 155.812 58.193 156.057 58.3735 156.278C58.5507 156.499 58.7947 156.679 59.1055 156.819C59.4098 156.956 59.7162 157.028 60.0248 157.035C60.3334 157.042 60.613 156.979 60.8636 156.847C61.1128 156.718 61.305 156.516 61.4403 156.242L63.1737 157.024C62.9096 157.575 62.5288 157.991 62.0315 158.274C61.5294 158.557 60.9661 158.701 60.3416 158.703C59.7156 158.709 59.0806 158.567 58.4364 158.276C57.7728 157.977 57.2529 157.592 56.8766 157.122C56.4955 156.654 56.2649 156.151 56.1846 155.612C56.1043 155.073 56.1781 154.552 56.4059 154.047C56.6553 153.485 57.0322 153.09 57.5364 152.862C58.0375 152.632 58.583 152.58 59.1729 152.706L59.2079 152.629C58.5525 152.216 58.1337 151.715 57.9513 151.127C57.7642 150.54 57.8124 149.936 58.0961 149.316C58.3473 148.759 58.7308 148.332 59.2466 148.035C59.7577 147.74 60.3463 147.593 61.0123 147.593C61.675 147.592 62.3624 147.752 63.0746 148.073Z" fill="white"/>
<path d="M55.6943 144.44L57.4523 145.605L48.2233 152.575L46.19 151.227L49.0126 140.01L50.7707 141.175L48.4073 150.013L48.4784 150.06L55.6943 144.44ZM53.273 147.966L48.4782 144.788L49.3553 143.465L54.1501 146.643L53.273 147.966Z" fill="white"/>
<path d="M33.2889 140.354L40.8049 132.447L42.2257 133.798L35.84 140.515L39.2992 143.804L45.6849 137.086L47.1056 138.437L39.5896 146.343L33.2889 140.354Z" fill="white"/>
<path d="M29.334 135.938L28.1875 134.348L34.2191 129.999L34.1599 129.917L25.1281 130.106L24.0907 128.667L32.9393 122.286L34.0951 123.889L28.0679 128.235L28.1208 128.309L37.1576 128.137L38.1826 129.558L29.334 135.938Z" fill="white"/>
<path d="M20.4336 113.689L21.2814 115.492C21.01 115.683 20.7927 115.901 20.6295 116.146C20.4631 116.393 20.3479 116.657 20.284 116.938C20.22 117.22 20.2098 117.511 20.2534 117.812C20.2923 118.112 20.3827 118.413 20.5248 118.715C20.7772 119.251 21.1358 119.663 21.6007 119.951C22.0624 120.24 22.607 120.38 23.2347 120.372C23.8592 120.364 24.5426 120.186 25.2849 119.837C26.0401 119.482 26.6212 119.065 27.0283 118.588C27.4306 118.108 27.6668 117.6 27.7369 117.065C27.8022 116.528 27.7095 115.993 27.4586 115.46C27.3196 115.164 27.151 114.906 26.953 114.685C26.7503 114.462 26.5234 114.285 26.2724 114.151C26.02 114.015 25.748 113.929 25.4566 113.894C25.1636 113.855 24.8597 113.876 24.5448 113.957L23.7066 112.15C24.2075 111.997 24.7165 111.936 25.2336 111.968C25.7492 111.996 26.2491 112.116 26.7333 112.328C27.2143 112.541 27.6565 112.847 28.0599 113.246C28.4601 113.647 28.7985 114.141 29.0751 114.729C29.4831 115.597 29.6465 116.465 29.5652 117.336C29.4839 118.206 29.1562 119.015 28.5822 119.764C28.0082 120.513 27.191 121.136 26.1305 121.635C25.0668 122.135 24.0645 122.365 23.1234 122.325C22.1791 122.287 21.3459 122.021 20.6239 121.529C19.9018 121.036 19.3382 120.36 18.9332 119.498C18.6748 118.949 18.5116 118.402 18.4437 117.857C18.3758 117.312 18.4044 116.784 18.5295 116.274C18.6513 115.766 18.8716 115.291 19.1904 114.851C19.5045 114.409 19.9189 114.022 20.4336 113.689Z" fill="white"/>
<path d="M25.4608 106.11L26.0071 108.148L14.4755 107.263L13.8437 104.907L23.3846 98.3672L23.9309 100.405L16.3095 105.465L16.3316 105.547L25.4608 106.11ZM21.3114 107.151L19.8216 101.595L21.3548 101.184L22.8446 106.74L21.3114 107.151Z" fill="white"/>
<path d="M13.9151 97.5657L12.2669 97.7322L11.3918 89.0725L13.04 88.9059L13.379 92.2607L22.5846 91.3305L22.7817 93.2808L13.5761 94.211L13.9151 97.5657Z" fill="white"/>
<path d="M15.5802 83.6595L15.7497 80.8948C15.8008 80.0619 15.981 79.356 16.2904 78.7773C16.5966 78.1948 17.0057 77.7592 17.518 77.4704C18.0302 77.1816 18.6195 77.0576 19.2859 77.0984C19.9558 77.1395 20.5362 77.3352 21.027 77.6855C21.5143 78.0356 21.8831 78.5189 22.1335 79.1355C22.3841 79.7486 22.4839 80.4716 22.4328 81.3046L22.1828 85.3825L11.2941 84.7149L11.4154 82.7371L20.6878 83.3056L20.8165 81.2055C20.8435 80.766 20.783 80.3887 20.6351 80.0737C20.4872 79.7586 20.2816 79.5148 20.0182 79.3421C19.755 79.1658 19.464 79.0679 19.145 79.0484C18.6842 79.0201 18.2817 79.1733 17.9374 79.508C17.5898 79.8389 17.3958 80.334 17.3553 80.9933L17.1858 83.758L15.5802 83.6595Z" fill="white"/>
<path d="M18.326 62.8214L17.8514 64.7563C17.5206 64.7336 17.2145 64.7664 16.9333 64.8546C16.6486 64.942 16.3929 65.075 16.1664 65.2534C15.9398 65.4318 15.7487 65.6519 15.5931 65.9135C15.4349 66.1709 15.316 66.4617 15.2365 66.7859C15.0952 67.3618 15.1149 67.9078 15.2955 68.4238C15.4726 68.9389 15.8079 69.3904 16.3014 69.7784C16.7915 70.1655 17.4349 70.4568 18.2316 70.6522C19.0421 70.851 19.7558 70.8926 20.3729 70.7771C20.9873 70.6572 21.4901 70.4112 21.8811 70.0391C22.2696 69.6628 22.5341 69.1883 22.6745 68.6158C22.7524 68.2985 22.7837 67.9917 22.7686 67.6955C22.7509 67.395 22.6864 67.1141 22.575 66.8527C22.4644 66.588 22.307 66.3501 22.1028 66.1391C21.8995 65.9247 21.6498 65.7501 21.3538 65.6153L21.8387 63.683C22.3245 63.879 22.7585 64.1518 23.1407 64.5015C23.5238 64.8478 23.837 65.2555 24.0802 65.7247C24.32 66.193 24.4713 66.7091 24.5341 67.273C24.5935 67.836 24.5457 68.4331 24.3909 69.0642C24.1625 69.9954 23.7431 70.7737 23.1326 71.3992C22.5221 72.0246 21.7583 72.4478 20.8412 72.669C19.924 72.8901 18.8964 72.861 17.7583 72.5819C16.6167 72.3019 15.6927 71.8503 14.9862 71.2273C14.2763 70.6035 13.7955 69.8731 13.5438 69.0362C13.292 68.1993 13.2795 67.3186 13.5062 66.3943C13.6508 65.8046 13.8681 65.2765 14.158 64.8101C14.4479 64.3437 14.8019 63.9516 15.2199 63.6336C15.6345 63.3148 16.1042 63.0845 16.6289 62.9427C17.1511 62.7965 17.7168 62.7561 18.326 62.8214Z" fill="white"/>
<path d="M29.6135 54.1767L28.812 55.9889L20.3454 52.2443L19.6128 53.9006C19.4146 54.3488 19.3181 54.7468 19.3234 55.0947C19.3269 55.438 19.4245 55.7355 19.616 55.9872C19.8058 56.2342 20.0776 56.4359 20.4316 56.5925C20.7856 56.7491 21.1146 56.813 21.4185 56.7843C21.7191 56.7542 21.996 56.6243 22.2491 56.3945C22.5003 56.1601 22.7243 55.8204 22.9211 55.3754L23.9941 52.9494L25.4945 53.613L24.3138 56.2826C23.9748 57.0491 23.5623 57.6393 23.0763 58.0534C22.5871 58.4661 22.0483 58.7054 21.4599 58.7713C20.8698 58.8326 20.2548 58.7218 19.6151 58.4388C18.9785 58.1573 18.4804 57.7778 18.1208 57.3003C17.7594 56.8182 17.5611 56.2568 17.5261 55.6161C17.491 54.9755 17.6423 54.2735 17.9798 53.5103L19.6367 49.7641L29.6135 54.1767ZM22.8111 57.3362L23.6837 55.3632L27.1315 59.7887L26.2395 61.8055L22.8111 57.3362Z" fill="white"/>
<path d="M49.3315 30.1135C48.7402 30.6021 48.1309 30.9351 47.5036 31.1126C46.8791 31.2878 46.2847 31.3044 45.7206 31.1625C45.1565 31.0206 44.6705 30.7197 44.2628 30.2597L45.8067 28.9838C46.0081 29.1997 46.2474 29.336 46.5245 29.3926C46.7994 29.4465 47.0889 29.4261 47.393 29.3314C47.6971 29.2367 47.9901 29.0729 48.2721 28.8399C48.5732 28.591 48.7971 28.3185 48.9438 28.0222C49.0883 27.7231 49.1482 27.4249 49.1235 27.1274C49.0988 26.8299 48.9833 26.5592 48.777 26.3151C48.5693 26.0582 48.3181 25.888 48.0234 25.8045C47.7287 25.721 47.4088 25.7297 47.0637 25.8306C46.7214 25.9292 46.3723 26.1255 46.0164 26.4196L45.2732 27.0338L44.3028 25.8594L45.046 25.2453C45.3389 25.0032 45.553 24.7411 45.6883 24.4588C45.8263 24.1743 45.8825 23.8883 45.8568 23.6008C45.8289 23.3106 45.713 23.0449 45.5089 22.8035C45.3148 22.5631 45.0907 22.4005 44.8364 22.3158C44.5826 22.2261 44.3164 22.2134 44.0379 22.2777C43.7621 22.3398 43.4928 22.4794 43.23 22.6966C42.9727 22.9092 42.773 23.1525 42.6309 23.4266C42.4888 23.7006 42.422 23.9793 42.4304 24.2626C42.4365 24.5432 42.5327 24.8045 42.719 25.0467L41.2532 26.2581C40.875 25.7782 40.6689 25.2529 40.6349 24.6821C40.6014 24.1064 40.721 23.5376 40.9939 22.9758C41.2645 22.4113 41.6721 21.904 42.2169 21.4538C42.7781 20.9901 43.3524 20.6928 43.9399 20.562C44.5279 20.4262 45.0815 20.441 45.6005 20.6064C46.1195 20.7718 46.5554 21.068 46.9083 21.495C47.3024 21.9663 47.4908 22.4786 47.4735 23.0319C47.459 23.5829 47.2652 24.0954 46.8922 24.5695L46.9465 24.6352C47.6057 24.2287 48.2397 24.0733 48.8486 24.169C49.4579 24.2598 49.9784 24.569 50.41 25.0969C50.7991 25.5677 51.0133 26.1001 51.0527 26.6941C51.0925 27.2831 50.9655 27.8764 50.6716 28.474C50.3804 29.0693 49.9337 29.6158 49.3315 30.1135Z" fill="white"/>
<path d="M55.8148 25.0822L53.9945 26.1479L51.7973 14.7932L53.9026 13.5606L62.7331 21.032L60.9128 22.0977L54.017 16.0861L53.9435 16.1291L55.8148 25.0822ZM53.7136 21.3559L58.6782 18.4495L59.4802 19.8193L54.5155 22.7258L53.7136 21.3559Z" fill="white"/>
<path d="M69.5136 6.70149L73.2666 16.9447L71.426 17.6191L68.2375 8.91634L63.7561 10.5583L66.9446 19.261L65.104 19.9354L61.3511 9.69215L69.5136 6.70149Z" fill="white"/>
<path d="M75.1925 5.11051L77.126 4.78804L78.3493 12.1228L78.4491 12.1062L82.2856 3.92754L84.0352 3.63574L85.8298 14.3962L83.8805 14.7213L82.6581 7.39179L82.5688 7.40669L78.7157 15.5827L76.9871 15.871L75.1925 5.11051Z" fill="white"/>
<path d="M99.0627 6.98757L97.0709 6.94861C97.0205 6.62085 96.9214 6.32944 96.7737 6.07437C96.626 5.81575 96.4403 5.59546 96.2165 5.41349C95.9928 5.23152 95.7362 5.09331 95.4468 4.99886C95.161 4.90092 94.8512 4.84869 94.5175 4.84216C93.9246 4.83056 93.3962 4.9694 92.9323 5.25868C92.4686 5.54441 92.1015 5.97055 91.8311 6.5371C91.5608 7.1001 91.4177 7.79168 91.4016 8.61184C91.3853 9.4462 91.5011 10.1517 91.7491 10.7284C92.0008 11.3016 92.351 11.7382 92.7997 12.0383C93.2521 12.3348 93.773 12.4889 94.3624 12.5004C94.689 12.5068 94.9952 12.4701 95.2809 12.3905C95.5702 12.3074 95.8301 12.1828 96.0607 12.0168C96.2948 11.8509 96.4924 11.6452 96.6535 11.3997C96.8181 11.1543 96.9338 10.8725 97.0004 10.5541L98.992 10.6037C98.9073 11.1206 98.7362 11.6039 98.4788 12.0535C98.2249 12.5031 97.8957 12.898 97.4913 13.2382C97.0869 13.5748 96.6165 13.8356 96.0801 14.0204C95.5438 14.2017 94.9508 14.286 94.301 14.2733C93.3424 14.2546 92.4911 14.0159 91.7471 13.5574C91.0031 13.0989 90.4227 12.4464 90.0059 11.6C89.5891 10.7536 89.3922 9.74463 89.4151 8.57298C89.4381 7.39778 89.6761 6.39727 90.1292 5.57146C90.5823 4.74209 91.1895 4.11287 91.9509 3.68378C92.7123 3.2547 93.5687 3.04947 94.5202 3.06808C95.1274 3.07995 95.6902 3.17621 96.2088 3.35684C96.7274 3.53747 97.1876 3.79688 97.5894 4.13506C97.9914 4.46968 98.319 4.87745 98.5724 5.35835C98.8295 5.83577 98.9929 6.37884 99.0627 6.98757Z" fill="white"/>
<path d="M104.091 14.9042L101.667 14.422L107.489 4.45736L110.405 5.0373L111.964 16.4705L109.54 15.9882L108.502 7.20063L108.419 7.18401L104.091 14.9042ZM104.776 10.6685L110.502 11.8076L110.151 13.5734L104.425 12.4343L104.776 10.6685Z" fill="white"/>
<path d="M116.578 8.26105L117.16 6.71019L125.309 9.77002L124.726 11.3209L121.57 10.1355L118.317 18.7974L116.482 18.1083L119.735 9.44641L116.578 8.26105Z" fill="white"/>
<path d="M128.342 15.9474L130.742 17.3304C131.465 17.7471 132.017 18.2228 132.397 18.7576C132.782 19.2911 132.99 19.8515 133.021 20.4387C133.051 21.026 132.9 21.6088 132.566 22.1873C132.231 22.7688 131.797 23.2013 131.265 23.4848C130.735 23.7652 130.138 23.8801 129.474 23.8297C128.814 23.7811 128.122 23.5484 127.399 23.1317L123.859 21.0918L129.306 11.6398L131.023 12.6292L126.384 20.6781L128.207 21.7287C128.589 21.9485 128.954 22.0624 129.302 22.0703C129.649 22.0782 129.959 22.0027 130.231 21.8438C130.506 21.6866 130.724 21.4696 130.883 21.1927C131.114 20.7927 131.156 20.3641 131.009 19.9068C130.868 19.4482 130.511 19.054 129.939 18.7242L127.539 17.3412L128.342 15.9474Z" fill="white"/>
<path d="M145.608 27.519L144.082 26.238C144.249 25.9513 144.354 25.6623 144.4 25.371C144.447 25.077 144.441 24.7889 144.381 24.5068C144.321 24.2247 144.208 23.956 144.042 23.7008C143.881 23.4451 143.673 23.21 143.417 22.9953C142.963 22.614 142.465 22.3903 141.922 22.3242C141.382 22.2554 140.828 22.3565 140.262 22.6277C139.698 22.8962 139.153 23.3445 138.625 23.9728C138.089 24.6119 137.736 25.2338 137.567 25.8383C137.403 26.4424 137.401 27.0021 137.562 27.5174C137.728 28.0323 138.036 28.4792 138.488 28.8583C138.738 29.0683 138.999 29.2321 139.272 29.3495C139.549 29.4664 139.83 29.5327 140.113 29.5483C140.4 29.5662 140.683 29.5302 140.962 29.4403C141.244 29.3526 141.511 29.2058 141.763 28.9999L143.282 30.289C142.892 30.6382 142.455 30.9069 141.972 31.0951C141.492 31.2857 140.988 31.3864 140.46 31.3972C139.934 31.4052 139.404 31.3128 138.87 31.1199C138.339 30.9242 137.825 30.6175 137.327 30.1996C136.593 29.5831 136.08 28.8628 135.789 28.0388C135.498 27.2148 135.456 26.3425 135.663 25.4221C135.87 24.5017 136.35 23.5927 137.104 22.6952C137.859 21.795 138.673 21.1658 139.544 20.8075C140.417 20.4465 141.285 20.3381 142.147 20.4822C143.009 20.6263 143.805 21.0043 144.533 21.6163C144.998 22.0068 145.376 22.4351 145.666 22.9013C145.956 23.3675 146.152 23.8584 146.252 24.3739C146.355 24.8867 146.354 25.4098 146.249 25.9432C146.149 26.4762 145.936 27.0014 145.608 27.519Z" fill="white"/>
<path d="M148.434 41.5062L147.161 39.988L154.254 34.0389L153.091 32.6512C152.776 32.2757 152.461 32.0137 152.146 31.8651C151.837 31.7169 151.527 31.6734 151.216 31.7344C150.911 31.7958 150.61 31.9509 150.313 32.1996C150.017 32.4483 149.814 32.7154 149.706 33.0009C149.601 33.284 149.595 33.5898 149.69 33.9182C149.79 34.2471 149.996 34.5979 150.309 34.9707L152.013 37.0032L150.756 38.0574L148.88 35.8209C148.342 35.1788 147.994 34.5483 147.836 33.9295C147.682 33.3085 147.704 32.7194 147.904 32.1622C148.11 31.6055 148.48 31.1023 149.016 30.6528C149.549 30.2055 150.11 29.9257 150.697 29.8134C151.289 29.7015 151.88 29.771 152.471 30.0219C153.061 30.2729 153.624 30.7181 154.161 31.3575L156.793 34.496L148.434 41.5062ZM148.597 34.0076L149.983 35.6605L144.491 36.8046L143.074 35.1149L148.597 34.0076Z" fill="white"/>
<g filter="url(#filter0_dii_79_863)">
<path d="M151.039 83.5C151.039 116.085 124.624 142.5 92.0389 142.5C59.4541 142.5 33.0389 116.085 33.0389 83.5C33.0389 50.9152 59.4541 24.5 92.0389 24.5C124.624 24.5 151.039 50.9152 151.039 83.5Z" stroke="url(#paint1_linear_79_863)"/>
</g>
<path d="M122.017 96.8778C121.341 95.1516 120.574 93.4623 119.72 91.8169C118.43 89.2169 116.966 86.4929 114.565 84.7513C113.988 84.3292 113.357 83.9855 112.689 83.7292C112.329 83.5471 111.933 83.4497 111.529 83.4446C111.126 83.4394 110.727 83.5266 110.362 83.6994C109.776 84.0806 109.312 84.6234 109.028 85.2624C108.631 86.0265 108.318 86.8402 107.996 87.6341C107.645 88.5074 107.314 89.3856 107.003 90.2688C105.687 93.4746 104.627 96.7795 103.833 100.153C103.421 101.914 103.024 103.785 103.48 105.581C103.647 106.336 103.998 107.039 104.503 107.625C105.008 108.211 105.651 108.663 106.373 108.94C107.215 109.228 108.09 109.407 108.978 109.471C109.869 109.558 110.765 109.567 111.657 109.496C113.446 109.35 115.206 108.951 116.882 108.31C118.384 107.807 119.773 107.015 120.971 105.978C122.128 104.897 122.825 103.411 122.916 101.83C122.968 100.134 122.662 98.4468 122.017 96.8778Z" fill="#FFBFC6"/>
<path d="M101.967 77.6808C101.069 75.2827 99.6994 73.0892 97.9381 71.2305C96.1214 69.3285 93.6759 68.1508 91.0561 67.9161C89.4783 67.8322 87.896 67.9354 86.3425 68.2237C84.7646 68.4768 83.1868 68.7546 81.6288 69.092C78.9358 69.6408 76.3533 70.6352 73.9877 72.0343C71.1344 73.7845 68.6144 76.0273 66.5451 78.6583C65.7819 79.4204 65.0629 80.2255 64.3917 81.0697C62.66 83.2479 61.2013 85.7635 60.7101 88.5123C60.1841 91.4894 60.9234 94.4664 62.1986 97.1507C63.2599 99.362 64.6913 101.376 66.431 103.105C69.9212 106.626 74.4778 108.893 79.3911 109.555C84.4584 110.101 89.5588 108.88 93.8291 106.098C98.0995 103.316 101.277 99.1437 102.825 94.2878C104.404 88.8118 104.101 82.9649 101.967 77.6808Z" fill="url(#paint2_linear_79_863)"/>
<path d="M112.302 79.2289C111.049 75.4292 109.403 71.7708 107.39 68.3131C106.367 66.6015 105.535 64.7829 104.909 62.8899C104.336 60.9786 104.336 58.9413 104.909 57.03C105.522 55.2069 106.392 53.4809 107.494 51.9045C107.614 51.721 107.405 51.5523 107.241 51.5969C106.047 51.16 104.787 50.9269 103.515 50.9072C102.195 50.871 100.875 51.018 99.5953 51.3439C98.3253 51.6665 97.1075 52.1677 95.9782 52.8324C94.7674 53.5649 93.6666 54.4653 92.7084 55.5068C91.7161 56.5686 90.7535 57.6949 89.7314 58.7319C88.7551 59.72 87.7124 60.64 86.6104 61.4857C84.4701 63.1902 81.9545 64.3604 79.272 64.8994C78.9296 64.9589 78.5823 64.9936 78.23 65.0333C77.9334 65.0434 77.6466 65.1419 77.4064 65.3162C77.1876 65.5349 77.063 65.8305 77.0591 66.1398C77.0318 66.4998 77.0318 66.8614 77.0591 67.2215C77.1138 68.7262 77.4504 70.2072 78.0514 71.5878C78.1754 71.8806 78.3094 72.1634 78.4583 72.4412C78.0086 72.894 77.4632 73.2404 76.8622 73.455C76.2612 73.6697 75.6198 73.7471 74.985 73.6817C74.866 73.6817 74.7816 73.7908 74.7717 73.895C74.7091 74.8263 74.7996 75.7616 75.0396 76.6637C74.7171 76.6141 74.4144 76.4602 74.0919 76.4255C73.7502 76.3862 73.4046 76.4502 73.0996 76.6091C72.7792 76.7822 72.5041 77.0283 72.2963 77.3274C72.0886 77.6264 71.9542 77.9702 71.9038 78.3308C71.8259 79.2107 71.9979 80.0947 72.4 80.8812C72.7225 81.6254 73.0748 82.3697 72.8416 83.1933C72.8416 83.2628 72.792 83.3323 72.7671 83.3968C72.7423 83.4613 72.6729 83.3968 72.6679 83.4811C72.6467 83.5989 72.6117 83.7138 72.5637 83.8235C72.2637 84.3163 71.8157 84.7018 71.2836 84.925C71.267 84.9304 71.2521 84.9402 71.2405 84.9532C71.2288 84.9663 71.2208 84.9822 71.2173 84.9993C71.2138 85.0164 71.2148 85.0341 71.2204 85.0507C71.2259 85.0673 71.2357 85.0821 71.2488 85.0937C70.7006 85.434 70.2963 85.9636 70.1126 86.5822C69.7702 88.2444 71.4324 89.6486 72.5935 90.5169C75.7045 92.839 79.1579 94.8485 82.9784 95.7168C86.3921 96.4908 90.1333 96.2725 93.2889 94.6649C93.63 94.4896 93.9613 94.2958 94.2813 94.0844C94.8363 94.5401 95.4704 94.8899 96.1519 95.1164C94.5046 97.9843 94.1076 101.329 93.8397 104.583C93.7454 105.725 93.6611 106.871 93.5271 108.007L92.9615 108.047C91.0462 108.161 89.126 108.191 87.2207 108.469C85.4227 108.674 83.6917 109.272 82.1498 110.22C80.8253 111.071 79.7757 112.288 79.1281 113.723C78.8278 114.396 78.6689 115.123 78.6613 115.859C78.6536 116.596 78.7973 117.326 79.0834 118.005C79.3814 118.683 79.8105 119.295 80.3462 119.806C80.8819 120.317 81.5134 120.716 82.2044 120.982C85.4097 122.183 88.5852 119.856 90.4211 117.405C91.5365 115.9 92.3995 114.225 92.9764 112.443C93.3869 111.114 93.6726 109.751 93.8298 108.369C96.9209 108.146 100.012 107.69 102.89 106.489C106.022 105.166 108.673 102.914 110.486 100.038C112.271 97.1877 113.365 93.9595 113.682 90.6112C113.987 86.763 113.518 82.8927 112.302 79.2289ZM92.9515 110.984C92.4833 112.96 91.6668 114.837 90.5401 116.526C88.6894 119.3 85.112 122.232 81.6437 120.377C80.9005 119.988 80.2641 119.423 79.79 118.731C79.316 118.038 79.0189 117.241 78.9247 116.407C78.8844 115.56 79.0227 114.713 79.3304 113.923C79.6381 113.132 80.1084 112.415 80.7109 111.818C83.4548 108.875 87.6574 108.657 91.4233 108.483C92.0832 108.454 92.7481 108.414 93.408 108.369C93.3041 109.251 93.1551 110.127 92.9615 110.994L92.9515 110.984ZM112.615 94.0497C111.817 97.2206 110.224 100.136 107.986 102.519C105.435 105.149 102.081 106.628 98.5335 107.352C96.9719 107.658 95.3926 107.865 93.805 107.972C93.8695 107.446 93.9191 106.92 93.9637 106.399C94.2863 102.772 94.4202 99.0412 96.137 95.7416C96.2329 95.563 96.3321 95.3844 96.4347 95.2057C97.4283 95.4596 98.478 95.3777 99.4202 94.973C100.363 94.5683 101.145 93.8634 101.645 92.968C101.888 92.4718 102.255 91.5985 101.719 91.1818C101.183 90.765 100.429 91.0825 99.9178 91.3356C98.5238 92.0574 97.3447 93.1338 96.4992 94.4565C96.4297 94.5607 96.3652 94.6699 96.3007 94.7741C95.672 94.5747 95.0851 94.2619 94.5691 93.8512C97.169 92.0302 98.9701 89.1971 100.087 86.2597C100.776 84.4487 101.183 82.4243 100.766 80.4991C100.449 79.0106 99.4514 77.5221 97.7892 77.4476C96.2362 77.3931 94.7527 78.3656 93.8198 79.5266C92.8702 80.7469 92.2057 82.1642 91.8748 83.6746C91.0611 87.0585 91.1703 91.2413 93.8595 93.7817C93.7256 93.8661 93.5966 93.9504 93.4626 94.0248C91.9317 94.8802 90.2443 95.4185 88.5009 95.6076C84.8292 96.0244 81.1972 95.0618 77.9323 93.4096C76.2574 92.5473 74.6546 91.5517 73.1393 90.4325C72.3545 89.9136 71.6478 89.2854 71.0405 88.5669C70.5443 87.9219 70.1374 87.0784 70.5145 86.2647C70.8576 85.7191 71.3209 85.2591 71.8691 84.92C72.3829 84.652 72.7949 84.2232 73.0421 83.6991C73.2894 83.175 73.3584 82.5844 73.2385 82.0174C73.0599 81.1739 72.5687 80.4346 72.3752 79.5911C72.2544 79.1993 72.2367 78.7831 72.3236 78.3824C72.4105 77.9818 72.5991 77.6103 72.8713 77.3037C73.1288 77.0306 73.4836 76.8701 73.8587 76.8572C74.3251 76.8572 74.737 77.1301 75.2133 77.0953C75.2464 77.0949 75.2789 77.0869 75.3084 77.0721C75.338 77.0572 75.3637 77.0358 75.3838 77.0096C75.4039 76.9833 75.4177 76.9528 75.4243 76.9204C75.4308 76.888 75.4299 76.8545 75.4217 76.8225C75.1604 75.9392 75.0481 75.0186 75.0892 74.0985C75.7689 74.1314 76.4475 74.0152 77.0775 73.7581C77.7075 73.5009 78.2736 73.109 78.7361 72.6099C78.768 72.5779 78.7887 72.5364 78.7949 72.4917C78.8012 72.4469 78.7927 72.4014 78.7709 72.3618C78.0629 71.0546 77.6084 69.6253 77.4312 68.1493C77.3915 67.7821 77.3667 67.41 77.3568 67.0428C77.3369 66.6953 77.3468 66.3467 77.3865 66.0009C77.408 65.8337 77.4891 65.68 77.6149 65.5679C77.7407 65.4557 77.9028 65.3928 78.0713 65.3906C78.3987 65.341 78.7262 65.3162 79.0636 65.2665C81.6432 64.8056 84.0795 63.7488 86.1788 62.1803C88.3632 60.5487 90.3601 58.6799 92.1329 56.6083C93.0675 55.4986 94.1263 54.4997 95.2885 53.6312C96.3472 52.8928 97.507 52.3112 98.732 51.9045C101.187 51.1105 103.813 51.0058 106.323 51.6019L107.043 51.7755C105.97 53.3299 105.12 55.0267 104.517 56.8167C103.974 58.5645 103.9 60.4248 104.304 62.2101C104.774 64.0094 105.485 65.7369 106.418 67.3455C107.336 69.0474 108.303 70.7145 109.157 72.4512C112.421 79.0652 114.575 86.7063 112.625 94.0596L112.615 94.0497ZM96.6828 94.8683C97.3173 93.8146 98.1618 92.9026 99.1637 92.189C99.7144 91.8119 100.474 91.2909 101.148 91.3554C102.106 91.4497 101.277 92.9084 100.965 93.3401C100.487 93.9445 99.8568 94.4109 99.1393 94.6917C98.4217 94.9724 97.6424 95.0573 96.8812 94.9378L96.6828 94.8683ZM93.0458 92.0997C92.1114 90.4125 91.7084 88.4825 91.8897 86.5624C91.9569 84.8932 92.3286 83.2503 92.9863 81.7147C93.5398 80.3295 94.5336 79.1649 95.8145 78.4003C96.2055 78.1608 96.6401 78.0011 97.0931 77.9304C97.5462 77.8597 98.0087 77.8795 98.4541 77.9885C98.818 78.1398 99.147 78.3641 99.4209 78.6474C99.6948 78.9307 99.9078 79.267 100.047 79.6358C100.831 81.3972 100.543 83.5258 99.9724 85.3021C99.3922 87.1093 98.537 88.8163 97.437 90.3631C96.5713 91.6091 95.489 92.6897 94.2416 93.5535C93.7709 93.1276 93.3618 92.6383 93.026 92.0997H93.0458Z" fill="white" stroke="white" stroke-width="1.5"/>
<path d="M77.456 76.6686C76.9995 75.5374 76.3594 74.3515 75.1835 73.8454C75.1652 73.8352 75.1449 73.8289 75.124 73.8271C75.1031 73.8252 75.0821 73.8278 75.0623 73.8347C75.0425 73.8415 75.0243 73.8525 75.009 73.8668C74.9937 73.8812 74.9817 73.8986 74.9736 73.9179C74.9655 73.9373 74.9616 73.9581 74.9621 73.9791C74.9626 74 74.9676 74.0206 74.9766 74.0396C74.9856 74.0585 74.9986 74.0753 75.0146 74.0888C75.0306 74.1024 75.0492 74.1124 75.0694 74.1183C76.28 74.5649 76.8903 75.8847 77.327 77.006C77.7015 77.9964 78.0146 79.0088 78.2647 80.0377C77.897 79.3938 77.463 78.7902 76.9697 78.2366C76.6644 77.8812 76.3327 77.5495 75.9774 77.2442C75.9178 77.1896 75.1636 76.5496 75.1239 76.748C75.0842 76.9465 75.2877 77.0209 75.3869 77.1053C75.5655 77.2492 75.7342 77.398 75.8831 77.5518C76.211 77.8524 76.5208 78.1722 76.8109 78.5095C77.3576 79.1727 77.8363 79.8891 78.2399 80.648C77.5725 80.006 76.7236 79.585 75.8087 79.4423C75.1894 79.344 74.556 79.3856 73.955 79.5642C73.3539 79.7428 72.8005 80.0538 72.3354 80.4743C72.3216 80.4848 72.3125 80.5004 72.3102 80.5176C72.3079 80.5348 72.3125 80.5523 72.323 80.5661C72.3336 80.5799 72.3491 80.589 72.3664 80.5913C72.3836 80.5936 72.401 80.589 72.4148 80.5785C72.9071 80.2396 73.4496 79.9801 74.0224 79.8094C74.5937 79.6503 75.1918 79.6115 75.7789 79.6953C76.9157 79.8642 77.9396 80.476 78.6269 81.3972C78.7014 81.4915 78.8701 81.4418 78.8353 81.3079C78.4865 79.7306 78.0255 78.1803 77.456 76.6686Z" fill="white" stroke="white"/>
<path d="M107.544 51.7458C107.092 50.9815 106.502 50.3083 105.802 49.7611C105.113 49.1938 104.371 48.6952 103.585 48.2725C101.949 47.3876 100.192 46.7505 98.3697 46.3821C94.698 45.6478 90.6046 45.9058 87.2554 47.7367C85.8314 48.5157 84.4967 49.6916 84.0501 51.3091C83.8716 51.9717 83.8659 52.6689 84.0335 53.3343C84.2012 53.9997 84.5366 54.611 85.0077 55.1098C84.8978 55.2901 84.8032 55.4793 84.7249 55.6755C84.4336 56.5523 84.4009 57.4946 84.6307 58.3895C84.9176 59.6709 85.5914 60.8332 86.5608 61.7189C86.7344 61.8776 86.9924 61.6246 86.8188 61.4658C86.2083 60.9156 85.7172 60.246 85.3758 59.4983C85.0344 58.7507 84.8501 57.941 84.8341 57.1193C84.8233 56.5038 84.9702 55.8957 85.2608 55.3529C85.3055 55.3877 85.3402 55.4224 85.3848 55.4522C85.9743 55.876 86.6872 56.0936 87.4129 56.0712C88.1386 56.0487 88.8367 55.7876 89.3989 55.3281C89.8951 54.9064 90.3615 54.177 90.1382 53.4972C89.8703 52.6885 88.8134 52.877 88.1535 53.0011C87.0142 53.231 85.9929 53.8568 85.2707 54.7675C84.8618 54.2995 84.5796 53.7346 84.451 53.1265C84.3224 52.5185 84.3518 51.8877 84.5364 51.2942C84.9929 49.8057 86.2581 48.7885 87.568 48.084C90.6145 46.4466 94.3309 46.0993 97.7049 46.6798C100.965 47.2256 104.249 48.5802 106.601 50.9618C106.884 51.2545 107.157 51.5473 107.445 51.8351C107.458 51.8402 107.472 51.8417 107.485 51.8392C107.499 51.8368 107.512 51.8306 107.522 51.8213C107.533 51.812 107.54 51.8 107.544 51.7866C107.548 51.7733 107.548 51.7591 107.544 51.7458ZM85.5783 54.9064C86.0286 54.3607 86.6039 53.9318 87.2554 53.656C87.5879 53.5099 87.9357 53.4017 88.2924 53.3335C88.6659 53.233 89.0562 53.2111 89.4386 53.269C89.8107 53.3682 89.8752 53.7652 89.8008 54.0778C89.7225 54.4047 89.55 54.7014 89.3046 54.9312C88.8081 55.3776 88.1731 55.6395 87.5063 55.6729C86.8395 55.7063 86.1815 55.5092 85.6429 55.1148C85.5976 55.0794 85.5545 55.0413 85.5139 55.0007L85.5783 54.9064Z" fill="white" stroke="white" stroke-width="1.5"/>
<path d="M101.684 64.2841C101.684 64.2841 101.684 64.2394 101.659 64.2394C100.139 64.0517 98.6631 63.6 97.298 62.9047C96.6282 62.5872 95.9633 62.2547 95.2835 61.9471C94.6643 61.5929 93.9713 61.3873 93.2591 61.3467C92.9268 61.3692 92.6046 61.4711 92.3197 61.6437C92.0348 61.8164 91.7955 62.0548 91.6218 62.3391C91.5721 62.4234 91.4382 63.4753 91.2844 63.9368C91.1241 64.4658 90.8849 64.9676 90.5748 65.4253C90.296 65.8471 89.9348 66.2082 89.513 66.4871C89.1285 66.7163 88.7014 66.8648 88.2577 66.9237L88.0592 66.765C87.9302 66.6608 87.8012 66.5466 87.6772 66.4325C87.5531 66.3184 87.3844 66.1844 87.2306 66.0604C87.2139 66.0471 87.1933 66.0399 87.172 66.0399C87.1507 66.0399 87.13 66.0471 87.1133 66.0603C87.0967 66.0735 87.0849 66.092 87.0801 66.1128C87.0753 66.1335 87.0776 66.1553 87.0867 66.1745C87.1599 66.312 87.2446 66.4432 87.3398 66.5665C87.4489 66.6955 87.563 66.8195 87.6821 66.9386C87.9211 67.1758 88.1746 67.3979 88.4413 67.6035C88.9678 68.002 89.5291 68.3524 90.1184 68.6504C91.3824 69.2999 92.7297 69.7724 94.1225 70.0546C94.9491 70.2668 95.8137 70.2837 96.648 70.1042C96.673 70.1009 96.6957 70.0878 96.711 70.0678C96.7264 70.0478 96.7332 70.0225 96.7299 69.9975C96.7266 69.9725 96.7135 69.9499 96.6935 69.9345C96.6735 69.9192 96.6482 69.9124 96.6232 69.9157C95.8768 69.8927 95.1334 69.8098 94.4003 69.6676C93.7206 69.5138 93.0557 69.3103 92.4156 69.092C91.1876 68.6988 90.019 68.1396 88.9424 67.4298C88.8084 67.3405 88.6794 67.2462 88.5455 67.147C89.4291 66.961 90.2092 66.4467 90.7286 65.7081C91.0745 65.2322 91.3394 64.7024 91.5126 64.1402C91.6591 63.6007 91.7783 63.0543 91.8699 62.5028C92.2523 62.5539 92.6166 62.6969 92.9317 62.9196C93.2591 63.1032 93.5866 63.2768 93.924 63.4654C94.5889 63.8375 95.2538 64.2097 95.9484 64.5272C97.1405 65.1297 98.4793 65.3809 99.8087 65.2516C100.516 65.1963 101.183 64.9003 101.699 64.4131C101.707 64.4038 101.713 64.393 101.716 64.3813C101.72 64.3697 101.721 64.3575 101.719 64.3454C101.718 64.3333 101.714 64.3216 101.708 64.3111C101.702 64.3006 101.694 64.2914 101.684 64.2841ZM97.8736 64.8497C96.4495 64.557 95.1942 63.8078 93.9042 63.1478C93.5618 62.9742 93.2194 62.7956 92.8622 62.6517C92.5681 62.5035 92.2438 62.4254 91.9145 62.4234C92.0794 62.1811 92.3015 61.9833 92.5612 61.8474C92.8208 61.7115 93.11 61.6418 93.403 61.6444C93.7804 61.6722 94.1499 61.7663 94.4946 61.9223C94.8271 62.0563 95.1545 62.2001 95.487 62.344C96.7016 62.9563 97.9565 63.4851 99.243 63.9268C99.9696 64.1561 100.724 64.2847 101.486 64.3089C100.965 64.6041 100.401 64.8136 99.8136 64.9291C99.1674 65.0188 98.5103 64.9919 97.8736 64.8497Z" fill="white" stroke="white"/>
<circle cx="33.3766" cy="37.5311" r="5" fill="url(#paint3_linear_79_863)"/>
<circle cx="160.377" cy="51.5311" r="5" fill="url(#paint4_linear_79_863)"/>
<circle cx="83.3766" cy="158.531" r="5" fill="url(#paint5_linear_79_863)"/>
<defs>
<filter id="filter0_dii_79_863" x="0.805546" y="8.13333" width="182.467" height="182.467" filterUnits="userSpaceOnUse" color-interpolation-filters="sRGB">
<feFlood flood-opacity="0" result="BackgroundImageFix"/>
<feColorMatrix in="SourceAlpha" type="matrix" values="0 0 0 0 0 0 0 0 0 0 0 0 0 0 0 0 0 0 127 0" result="hardAlpha"/>
<feOffset dy="15.8667"/>
<feGaussianBlur stdDeviation="15.8667"/>
<feColorMatrix type="matrix" values="0 0 0 0 0.2 0 0 0 0 0.2 0 0 0 0 0.2 0 0 0 0.25 0"/>
<feBlend mode="normal" in2="BackgroundImageFix" result="effect1_dropShadow_79_863"/>
<feBlend mode="normal" in="SourceGraphic" in2="effect1_dropShadow_79_863" result="shape"/>
<feColorMatrix in="SourceAlpha" type="matrix" values="0 0 0 0 0 0 0 0 0 0 0 0 0 0 0 0 0 0 127 0" result="hardAlpha"/>
<feOffset dy="5.28889"/>
<feGaussianBlur stdDeviation="2.64444"/>
<feComposite in2="hardAlpha" operator="arithmetic" k2="-1" k3="1"/>
<feColorMatrix type="matrix" values="0 0 0 0 1 0 0 0 0 1 0 0 0 0 1 0 0 0 1 0"/>
<feBlend mode="normal" in2="shape" result="effect2_innerShadow_79_863"/>
<feColorMatrix in="SourceAlpha" type="matrix" values="0 0 0 0 0 0 0 0 0 0 0 0 0 0 0 0 0 0 127 0" result="hardAlpha"/>
<feOffset dy="-2.64444"/>
<feGaussianBlur stdDeviation="1.32222"/>
<feComposite in2="hardAlpha" operator="arithmetic" k2="-1" k3="1"/>
<feColorMatrix type="matrix" values="0 0 0 0 0.8 0 0 0 0 0.8 0 0 0 0 0.8 0 0 0 1 0"/>
<feBlend mode="normal" in2="effect2_innerShadow_79_863" result="effect3_innerShadow_79_863"/>
</filter>
<linearGradient id="paint0_linear_79_863" x1="53.3765" y1="34.5311" x2="92.017" y2="142.634" gradientUnits="userSpaceOnUse">
<stop stop-color="#706464"/>
<stop offset="1" stop-color="#4A4141"/>
</linearGradient>
<linearGradient id="paint1_linear_79_863" x1="92.0389" y1="24" x2="92.0389" y2="143" gradientUnits="userSpaceOnUse">
<stop stop-color="white"/>
<stop offset="1" stop-color="#D6D6D6"/>
</linearGradient>
<linearGradient id="paint2_linear_79_863" x1="60.5389" y1="88.7851" x2="103.822" y2="88.7851" gradientUnits="userSpaceOnUse">
<stop stop-color="#F6929F"/>
<stop offset="1" stop-color="#FFC0C8"/>
</linearGradient>
<linearGradient id="paint3_linear_79_863" x1="28.3766" y1="37.5311" x2="38.3766" y2="37.5311" gradientUnits="userSpaceOnUse">
<stop stop-color="#F6929F"/>
<stop offset="1" stop-color="#FFC0C8"/>
</linearGradient>
<linearGradient id="paint4_linear_79_863" x1="155.377" y1="51.5311" x2="165.377" y2="51.5311" gradientUnits="userSpaceOnUse">
<stop stop-color="#F6929F"/>
<stop offset="1" stop-color="#FFC0C8"/>
</linearGradient>
<linearGradient id="paint5_linear_79_863" x1="78.3766" y1="158.531" x2="88.3766" y2="158.531" gradientUnits="userSpaceOnUse">
<stop stop-color="#F6929F"/>
<stop offset="1" stop-color="#FFC0C8"/>
</linearGradient>
</defs>
</svg>
