<svg width="184" height="189" viewBox="0 0 184 189" fill="none" xmlns="http://www.w3.org/2000/svg">
<path d="M159.824 72.4131C159.685 71.6591 159.691 70.9659 159.842 70.3334C159.994 69.7044 160.269 69.1796 160.669 68.7588C161.068 68.3381 161.568 68.0635 162.17 67.9349L162.532 69.9037C162.245 69.9728 162.009 70.1139 161.824 70.327C161.643 70.5395 161.519 70.8011 161.454 71.112C161.388 71.4229 161.388 71.7581 161.455 72.1176C161.525 72.5016 161.654 72.8301 161.842 73.1032C162.033 73.3757 162.264 73.5742 162.537 73.6988C162.809 73.8235 163.102 73.856 163.416 73.7966C163.742 73.7422 164.014 73.6074 164.23 73.3922C164.447 73.177 164.596 72.8946 164.676 72.5451C164.757 72.1991 164.756 71.7992 164.672 71.3454L164.498 70.3976L165.998 70.1308L166.173 71.0785C166.242 71.452 166.366 71.7669 166.547 72.0231C166.729 72.2828 166.951 72.4722 167.215 72.591C167.483 72.7093 167.772 72.739 168.082 72.6802C168.387 72.6295 168.639 72.5145 168.837 72.3351C169.039 72.1585 169.18 71.9333 169.26 71.6596C169.34 71.3894 169.35 71.0867 169.288 70.7516C169.228 70.4235 169.112 70.1304 168.942 69.8723C168.772 69.6142 168.561 69.4192 168.309 69.2873C168.06 69.1548 167.785 69.1101 167.482 69.1531L167.138 67.2839C167.742 67.1908 168.302 67.2697 168.818 67.5204C169.338 67.7741 169.777 68.1574 170.135 68.6705C170.497 69.183 170.742 69.7866 170.869 70.4812C171.001 71.1968 170.981 71.8421 170.808 72.4171C170.64 72.9949 170.357 73.4689 169.959 73.8388C169.561 74.2088 169.089 74.4423 168.544 74.5394C167.939 74.6505 167.399 74.5627 166.924 74.2759C166.449 73.9926 166.095 73.5725 165.863 73.0154L165.779 73.0303C165.812 73.803 165.639 74.4305 165.258 74.9128C164.881 75.3979 164.357 75.6985 163.685 75.8144C163.083 75.9214 162.513 75.8462 161.974 75.5887C161.439 75.3341 160.983 74.9323 160.603 74.3833C160.225 73.8378 159.965 73.181 159.824 72.4131Z" fill="white"/>
<path d="M161.025 80.3687L160.987 78.2601L171.966 81.9062L172.011 84.345L161.172 88.3826L161.133 86.274L169.752 83.2078L169.75 83.1226L161.025 80.3687ZM165.304 80.3622L165.409 86.1131L163.822 86.1412L163.716 80.3903L165.304 80.3622Z" fill="white"/>
<path d="M170.274 101.163L159.506 99.424L159.83 97.4901L168.978 98.9676L169.764 94.2591L160.616 92.7816L160.94 90.8478L171.707 92.5868L170.274 101.163Z" fill="white"/>
<path d="M168.889 106.613L168.212 108.454L161.21 105.961L161.175 106.056L166.403 113.365L165.789 115.031L155.518 111.374L156.201 109.519L163.198 112.009L163.229 111.924L158.012 104.602L158.618 102.957L168.889 106.613Z" fill="white"/>
<path d="M155.482 126.231L156.502 124.518C156.814 124.632 157.118 124.686 157.415 124.68C157.714 124.676 157.999 124.621 158.269 124.514C158.539 124.407 158.787 124.25 159.013 124.044C159.24 123.843 159.44 123.599 159.61 123.311C159.914 122.801 160.054 122.275 160.03 121.732C160.01 121.192 159.818 120.667 159.456 120.159C159.096 119.653 158.561 119.196 157.851 118.787C157.128 118.371 156.453 118.133 155.825 118.071C155.199 118.013 154.643 118.108 154.158 118.354C153.674 118.604 153.282 118.983 152.98 119.49C152.812 119.771 152.693 120.055 152.621 120.342C152.551 120.633 152.531 120.919 152.563 121.2C152.592 121.483 152.674 121.754 152.81 122.012C152.943 122.274 153.133 122.51 153.379 122.721L152.35 124.429C151.939 124.107 151.6 123.725 151.334 123.285C151.066 122.848 150.883 122.371 150.785 121.856C150.69 121.342 150.695 120.808 150.798 120.252C150.905 119.698 151.125 119.142 151.457 118.583C151.948 117.759 152.579 117.133 153.348 116.707C154.118 116.281 154.977 116.09 155.925 116.135C156.872 116.18 157.853 116.495 158.868 117.078C159.886 117.664 160.645 118.353 161.144 119.144C161.646 119.938 161.896 120.768 161.895 121.637C161.894 122.506 161.65 123.349 161.163 124.168C160.852 124.69 160.489 125.133 160.074 125.497C159.659 125.861 159.204 126.137 158.709 126.323C158.217 126.512 157.698 126.6 157.151 126.589C156.606 126.583 156.049 126.464 155.482 126.231Z" fill="white"/>
<path d="M146.334 126.297L147.721 124.704L153.534 134.62L151.931 136.462L141.065 132.349L142.451 130.757L150.995 134.135L151.051 134.07L146.334 126.297ZM149.558 129.1L145.776 133.444L144.563 132.423L148.345 128.079L149.558 129.1Z" fill="white"/>
<path d="M145.891 140.38L146.973 141.632L140.287 147.219L139.205 145.967L141.795 143.803L135.75 136.812L137.256 135.553L143.301 142.545L145.891 140.38Z" fill="white"/>
<path d="M133.519 146.683L131.13 148.09C130.41 148.513 129.722 148.76 129.065 148.83C128.407 148.905 127.812 148.812 127.28 148.554C126.748 148.295 126.308 147.881 125.961 147.311C125.612 146.739 125.443 146.153 125.453 145.554C125.465 144.959 125.655 144.386 126.023 143.836C126.388 143.287 126.93 142.801 127.65 142.377L131.175 140.302L136.844 149.609L135.135 150.616L130.307 142.69L128.492 143.759C128.112 143.983 127.834 144.243 127.657 144.541C127.48 144.838 127.396 145.143 127.403 145.456C127.407 145.77 127.493 146.064 127.659 146.336C127.899 146.73 128.256 146.975 128.73 147.07C129.203 147.17 129.724 147.053 130.294 146.717L132.683 145.31L133.519 146.683Z" fill="white"/>
<path d="M114.892 155.973L116.76 155.274C116.931 155.559 117.133 155.791 117.368 155.973C117.603 156.157 117.859 156.292 118.136 156.378C118.413 156.464 118.705 156.497 119.009 156.477C119.312 156.462 119.62 156.396 119.933 156.279C120.489 156.071 120.928 155.747 121.249 155.309C121.572 154.873 121.752 154.344 121.788 153.72C121.826 153.1 121.697 152.407 121.401 151.643C121.1 150.866 120.724 150.256 120.275 149.814C119.823 149.377 119.332 149.103 118.801 148.991C118.268 148.884 117.725 148.934 117.172 149.141C116.866 149.256 116.595 149.402 116.36 149.582C116.122 149.765 115.928 149.976 115.776 150.215C115.622 150.455 115.516 150.718 115.459 151.004C115.399 151.292 115.399 151.595 115.457 151.914L113.586 152.604C113.469 152.095 113.445 151.585 113.514 151.074C113.579 150.564 113.736 150.078 113.983 149.614C114.231 149.153 114.57 148.739 114.998 148.37C115.428 148.004 115.948 147.707 116.557 147.479C117.456 147.142 118.338 147.049 119.204 147.198C120.07 147.347 120.857 147.736 121.565 148.365C122.274 148.994 122.84 149.854 123.263 150.946C123.687 152.041 123.846 153.054 123.738 153.984C123.631 154.918 123.305 155.724 122.759 156.402C122.214 157.08 121.496 157.586 120.604 157.92C120.034 158.133 119.474 158.252 118.924 158.277C118.373 158.301 117.846 158.231 117.345 158.067C116.844 157.906 116.384 157.65 115.966 157.299C115.546 156.952 115.188 156.511 114.892 155.973Z" fill="white"/>
<path d="M100.876 151.581L102.826 151.227L104.536 160.32L106.319 159.996C106.801 159.908 107.185 159.765 107.469 159.565C107.75 159.37 107.941 159.122 108.04 158.823C108.136 158.528 108.149 158.19 108.077 157.81C108.006 157.43 107.872 157.122 107.676 156.887C107.48 156.656 107.216 156.5 106.883 156.42C106.547 156.344 106.139 156.349 105.66 156.436L103.049 156.911L102.746 155.299L105.62 154.777C106.445 154.627 107.166 154.637 107.783 154.806C108.401 154.979 108.905 155.289 109.293 155.738C109.678 156.191 109.935 156.761 110.064 157.449C110.193 158.132 110.162 158.757 109.972 159.321C109.779 159.89 109.428 160.369 108.919 160.757C108.41 161.146 107.744 161.414 106.923 161.564L102.891 162.297L100.876 151.581ZM107.342 155.427L105.218 155.813L106.916 150.483L109.087 150.089L107.342 155.427Z" fill="white"/>
<path d="M63.1367 145.397C63.8384 145.709 64.4073 146.105 64.8436 146.585C65.2766 147.065 65.5529 147.587 65.6727 148.153C65.7924 148.718 65.734 149.284 65.4975 149.851L63.6653 149.038C63.7719 148.763 63.7899 148.49 63.7192 148.218C63.647 147.949 63.5013 147.7 63.282 147.471C63.0627 147.241 62.7857 147.052 62.4511 146.904C62.0938 146.746 61.7489 146.666 61.4166 146.666C61.0827 146.67 60.7868 146.748 60.5287 146.901C60.2707 147.055 60.0767 147.277 59.9467 147.569C59.8058 147.868 59.7624 148.167 59.8165 148.466C59.8706 148.766 60.0191 149.047 60.2621 149.31C60.5017 149.572 60.8327 149.796 61.255 149.983L62.137 150.375L61.5021 151.758L60.6201 151.367C60.2725 151.213 59.9414 151.138 59.6267 151.142C59.3088 151.144 59.0256 151.221 58.777 151.37C58.5269 151.523 58.3377 151.744 58.2092 152.033C58.0772 152.312 58.0288 152.583 58.064 152.847C58.0945 153.113 58.2001 153.356 58.3807 153.576C58.558 153.794 58.8027 153.973 59.1145 154.111C59.4199 154.246 59.7277 154.317 60.0379 154.323C60.3481 154.328 60.6294 154.265 60.8818 154.132C61.1328 154.003 61.3267 153.802 61.4638 153.529L63.2034 154.3C62.9358 154.849 62.5515 155.265 62.0505 155.547C61.5448 155.831 60.978 155.976 60.3502 155.981C59.7209 155.989 59.083 155.849 58.4366 155.563C57.7706 155.267 57.2493 154.887 56.8728 154.421C56.4915 153.957 56.2614 153.457 56.1827 152.921C56.104 152.386 56.1801 151.866 56.411 151.363C56.6638 150.804 57.0441 150.41 57.5518 150.181C58.0563 149.95 58.6049 149.897 59.1974 150.02L59.2329 149.942C58.5756 149.534 58.1564 149.038 57.9752 148.453C57.7893 147.87 57.8401 147.269 58.1275 146.651C58.382 146.097 58.7691 145.671 59.2888 145.373C59.8037 145.078 60.3959 144.929 61.0653 144.927C61.7316 144.924 62.422 145.08 63.1367 145.397Z" fill="white"/>
<path d="M55.7664 141.869L57.5351 143.022L48.2208 149.959L46.1752 148.626L49.0444 137.487L50.8131 138.64L48.412 147.416L48.4835 147.463L55.7664 141.869ZM53.3189 145.374L48.4952 142.23L49.3819 140.915L54.2056 144.059L53.3189 145.374Z" fill="white"/>
<path d="M33.241 137.907L40.817 130.072L42.2505 131.412L35.8139 138.069L39.3041 141.33L45.7408 134.673L47.1742 136.013L39.5982 143.849L33.241 137.907Z" fill="white"/>
<path d="M29.3388 133.625L28.1785 132.043L34.2398 127.747L34.1799 127.665L25.0822 127.822L24.0323 126.39L32.9246 120.087L34.0943 121.682L28.0373 125.975L28.0909 126.048L37.1937 125.907L38.2311 127.322L29.3388 133.625Z" fill="white"/>
<path d="M20.3834 111.628L21.2437 113.427C20.9719 113.615 20.7546 113.831 20.5918 114.074C20.4258 114.319 20.3113 114.582 20.2484 114.861C20.1855 115.141 20.1766 115.431 20.2218 115.731C20.2623 116.029 20.3546 116.329 20.4987 116.631C20.7548 117.166 21.117 117.578 21.5854 117.866C22.0506 118.156 22.5985 118.298 23.229 118.292C23.8564 118.288 24.5421 118.114 25.2862 117.77C26.0432 117.42 26.625 117.008 27.0317 116.534C27.4336 116.059 27.6685 115.555 27.7364 115.022C27.7995 114.488 27.7038 113.955 27.4493 113.423C27.3082 113.128 27.1377 112.87 26.9377 112.649C26.7329 112.427 26.5042 112.249 26.2514 112.115C25.9971 111.978 25.7235 111.892 25.4306 111.855C25.1361 111.815 24.8308 111.835 24.5149 111.914L23.6643 110.111C24.1668 109.961 24.6779 109.903 25.1975 109.937C25.7157 109.967 26.2184 110.089 26.7058 110.302C27.19 110.517 27.6357 110.824 28.0429 111.222C28.4469 111.623 28.7892 112.116 29.0698 112.703C29.4838 113.569 29.652 114.434 29.5744 115.3C29.4968 116.166 29.1715 116.97 28.5983 117.712C28.0252 118.455 27.2071 119.072 26.1441 119.563C25.0779 120.056 24.072 120.281 23.1264 120.236C22.1775 120.194 21.3393 119.926 20.6115 119.432C19.8838 118.939 19.3145 118.262 18.9035 117.403C18.6413 116.855 18.4748 116.31 18.404 115.767C18.3332 115.224 18.3594 114.699 18.4827 114.192C18.6027 113.687 18.8218 113.215 19.14 112.779C19.4534 112.34 19.8679 111.957 20.3834 111.628Z" fill="white"/>
<path d="M25.4605 104.279L26.0157 106.314L14.46 105.387L13.8178 103.033L23.3504 96.5414L23.9056 98.5772L16.2902 103.599L16.3126 103.681L25.4605 104.279ZM21.3078 105.302L19.7935 99.7494L21.3279 99.3449L22.8421 104.897L21.3078 105.302Z" fill="white"/>
<path d="M13.9144 95.9093L12.2661 96.073L11.3761 87.414L13.0245 87.2503L13.3692 90.6047L22.5756 89.6901L22.7761 91.6403L13.5697 92.5548L13.9144 95.9093Z" fill="white"/>
<path d="M15.5847 82.2079L15.757 79.444C15.8089 78.6113 15.99 77.9055 16.3001 77.3267C16.6069 76.7441 17.0167 76.3081 17.5294 76.0189C18.0421 75.7297 18.6317 75.6052 19.2982 75.6454C19.9683 75.6858 20.5487 75.8808 21.0393 76.2305C21.5265 76.58 21.8949 77.0628 22.1448 77.679C22.3948 78.2916 22.4939 79.0142 22.4419 79.847L22.1877 83.9237L11.2961 83.2672L11.4194 81.29L20.6943 81.849L20.8252 79.7495C20.8526 79.3101 20.7925 78.933 20.6449 78.6182C20.4973 78.3035 20.2918 78.0599 20.0285 77.8875C19.7655 77.7116 19.4744 77.614 19.1553 77.5948C18.6944 77.567 18.2916 77.7206 17.9468 78.0555C17.5988 78.3866 17.4042 78.8817 17.3631 79.5408L17.1907 82.3047L15.5847 82.2079Z" fill="white"/>
<path d="M18.3744 61.6082L17.8924 63.5401C17.5609 63.5186 17.254 63.5523 16.9718 63.6412C16.6862 63.7293 16.4296 63.8627 16.2019 64.0415C15.9742 64.2202 15.782 64.4404 15.6251 64.702C15.4658 64.9593 15.3457 65.2498 15.2649 65.5735C15.1214 66.1486 15.1393 66.6932 15.3186 67.2074C15.4945 67.7208 15.8291 68.1702 16.3224 68.5557C16.8123 68.9404 17.4562 69.2289 18.2541 69.4213C19.0657 69.617 19.781 69.6562 20.3998 69.539C21.016 69.4174 21.5207 69.1704 21.9139 68.7979C22.3045 68.4211 22.5711 67.9469 22.7137 67.3752C22.7928 67.0584 22.8252 66.7522 22.8111 66.4567C22.7943 66.157 22.7305 65.8769 22.6197 65.6165C22.5098 65.3527 22.3528 65.1159 22.1489 64.9061C21.9458 64.6928 21.6961 64.5194 21.3998 64.3859L21.8922 62.4565C22.3784 62.6504 22.8125 62.9212 23.1945 63.2689C23.5773 63.6131 23.8898 64.0189 24.1321 64.4862C24.3709 64.9527 24.5208 65.4671 24.5819 66.0295C24.6396 66.591 24.5898 67.1869 24.4325 67.8171C24.2006 68.7469 23.7776 69.5248 23.1637 70.1507C22.5498 70.7767 21.7829 71.2014 20.863 71.425C19.943 71.6486 18.9131 71.6229 17.7733 71.3481C16.6301 71.0724 15.7055 70.6249 14.9995 70.0056C14.29 69.3854 13.8105 68.6582 13.5609 67.8241C13.3113 66.9899 13.3017 66.1113 13.5319 65.1884C13.6789 64.5995 13.8984 64.072 14.1905 63.6057C14.4825 63.1395 14.8386 62.7471 15.2586 62.4285C15.6752 62.1091 16.1467 61.8778 16.6731 61.7346C17.1969 61.5871 17.764 61.5449 18.3744 61.6082Z" fill="white"/>
<path d="M29.7082 53.1708L28.8958 54.9766L20.3996 51.2823L19.6571 52.9327C19.4562 53.3792 19.3578 53.7756 19.3619 54.1217C19.3641 54.4631 19.461 54.7587 19.6526 55.0084C19.8424 55.2534 20.115 55.4532 20.4702 55.6076C20.8254 55.7621 21.1558 55.8245 21.4614 55.7949C21.7637 55.7638 22.0425 55.6335 22.2977 55.404C22.5511 55.1699 22.7775 54.8311 22.977 54.3878L24.0645 51.9704L25.5701 52.6251L24.3734 55.2852C24.0299 56.0489 23.6131 56.6376 23.123 57.0513C22.6297 57.4636 22.0873 57.7036 21.4957 57.7714C20.9023 57.8345 20.2846 57.7265 19.6426 57.4473C19.0038 57.1696 18.5046 56.7939 18.1449 56.3202C17.7834 55.8419 17.5862 55.2841 17.5533 54.6469C17.5205 54.0097 17.6751 53.3109 18.0172 52.5504L19.6965 48.8176L29.7082 53.1708ZM22.8591 56.3388L23.7435 54.3729L27.1925 58.7628L26.2885 60.7724L22.8591 56.3388Z" fill="white"/>
<path d="M49.4482 29.6924C48.8529 30.1761 48.2391 30.5054 47.607 30.6805C46.9776 30.8532 46.3785 30.8688 45.8095 30.7272C45.2405 30.5856 44.7502 30.2864 44.3383 29.8295L45.8928 28.5666C46.0963 28.781 46.3377 28.9165 46.6172 28.9731C46.8944 29.027 47.1862 29.0072 47.4927 28.9138C47.7991 28.8203 48.0943 28.6583 48.3782 28.4277C48.6814 28.1813 48.9067 27.9114 49.0541 27.6177C49.1993 27.3214 49.2592 27.0257 49.2338 26.7306C49.2085 26.4356 49.0916 26.1669 48.8832 25.9244C48.6735 25.6694 48.4199 25.5002 48.1227 25.417C47.8254 25.3337 47.5029 25.3418 47.1551 25.4413C46.8102 25.5386 46.4585 25.7328 46.1002 26.0239L45.3519 26.6318L44.3717 25.4656L45.12 24.8577C45.4149 24.6181 45.6303 24.3584 45.7663 24.0787C45.905 23.7968 45.9612 23.5132 45.9349 23.2281C45.9063 22.9402 45.789 22.6765 45.5829 22.4368C45.3868 22.198 45.1606 22.0365 44.9041 21.952C44.6481 21.8627 44.3797 21.8497 44.099 21.913C43.8211 21.9742 43.5498 22.1122 43.2852 22.3272C43.0261 22.5377 42.8252 22.7787 42.6824 23.0503C42.5395 23.3218 42.4726 23.5981 42.4815 23.8791C42.4881 24.1573 42.5855 24.4167 42.7737 24.6572L41.2978 25.8563C40.9158 25.3798 40.7072 24.8585 40.672 24.2924C40.6373 23.7213 40.757 23.1574 41.0312 22.6007C41.3031 22.0412 41.7133 21.5387 42.2618 21.0931C42.8268 20.6341 43.4054 20.3402 43.9975 20.2114C44.5901 20.0776 45.1482 20.0931 45.6717 20.2579C46.1953 20.4227 46.6352 20.7172 46.9917 21.1412C47.3897 21.6093 47.5805 22.1176 47.5639 22.6663C47.5501 23.2128 47.3556 23.7208 46.9803 24.1904L47.0351 24.2556C47.699 23.8535 48.338 23.7003 48.952 23.7962C49.5665 23.8871 50.0917 24.1947 50.5276 24.7188C50.9206 25.1864 51.1375 25.7148 51.1781 26.3039C51.2192 26.8881 51.0921 27.4763 50.7967 28.0685C50.5041 28.6585 50.0546 29.1998 49.4482 29.6924Z" fill="white"/>
<path d="M55.9138 24.8044L54.0856 25.8566L51.8327 14.5678L53.9472 13.3508L62.8619 20.8053L61.0337 21.8576L54.0715 15.8603L53.9977 15.9028L55.9138 24.8044ZM53.7854 21.0948L58.7714 18.225L59.5835 19.5889L54.5975 22.4586L53.7854 21.0948Z" fill="white"/>
<path d="M69.5483 6.6247L73.3579 16.8469L71.5137 17.5112L68.277 8.82634L63.7867 10.4438L67.0233 19.1287L65.1791 19.793L61.3695 9.57076L69.5483 6.6247Z" fill="white"/>
<path d="M75.2015 5.0742L77.1359 4.75703L78.3795 12.0883L78.4794 12.072L82.2978 3.91066L84.0482 3.62366L85.8727 14.379L83.9226 14.6988L82.6798 7.37275L82.5904 7.3874L78.7554 15.546L77.026 15.8296L75.2015 5.0742Z" fill="white"/>
<path d="M99.0597 6.98259L97.0679 6.94451C97.0176 6.61679 96.9187 6.32542 96.771 6.07043C96.6235 5.81188 96.4379 5.59167 96.2142 5.4098C95.9905 5.22794 95.734 5.08984 95.4446 4.99551C95.1589 4.89771 94.8491 4.84561 94.5154 4.83923C93.9225 4.82789 93.394 4.96697 92.93 5.25645C92.4661 5.54237 92.0989 5.96867 91.8282 6.53533C91.5577 7.09845 91.4142 7.79008 91.3978 8.61023C91.3811 9.44458 91.4966 10.15 91.7443 10.7266C91.9957 11.2997 92.3457 11.7362 92.7943 12.036C93.2466 12.3323 93.7674 12.4861 94.3568 12.4974C94.6834 12.5036 94.9896 12.4669 95.2754 12.3871C95.5647 12.3038 95.8248 12.1792 96.0554 12.0131C96.2896 11.8471 96.4873 11.6413 96.6485 11.3958C96.8132 11.1503 96.929 10.8684 96.9957 10.55L98.9873 10.5987C98.9024 11.1156 98.7311 11.599 98.4735 12.0487C98.2194 12.4984 97.8901 12.8935 97.4854 13.2338C97.0809 13.5706 96.6104 13.8316 96.0739 14.0166C95.5375 14.1982 94.9444 14.2828 94.2947 14.2703C93.336 14.252 92.4848 14.0137 91.741 13.5555C90.9972 13.0974 90.4171 12.4452 90.0007 11.599C89.5843 10.7528 89.3878 9.74389 89.4113 8.57225C89.4348 7.39706 89.6733 6.39646 90.1267 5.57046C90.5802 4.74091 91.1877 4.11143 91.9493 3.68201C92.7109 3.2526 93.5674 3.04699 94.5189 3.06518C95.1261 3.07679 95.6889 3.17279 96.2074 3.35319C96.7259 3.53359 97.186 3.79279 97.5877 4.13078C97.9895 4.46523 98.317 4.87284 98.5702 5.35362C98.827 5.83092 98.9902 6.37391 99.0597 6.98259Z" fill="white"/>
<path d="M104.048 14.8758L101.622 14.4014L107.482 4.43182L110.399 5.00234L111.926 16.4166L109.5 15.9422L108.488 7.16865L108.404 7.15229L104.048 14.8758ZM104.747 10.6433L110.476 11.7639L110.119 13.5286L104.39 12.408L104.747 10.6433Z" fill="white"/>
<path d="M116.554 8.18762L117.145 6.64006L125.31 9.65447L124.719 11.202L121.556 10.0343L118.255 18.6778L116.416 17.9989L119.717 9.35539L116.554 8.18762Z" fill="white"/>
<path d="M128.304 15.763L130.714 17.1283C131.44 17.5397 131.994 18.0104 132.374 18.5403C132.76 19.069 132.967 19.625 132.996 20.2084C133.024 20.7918 132.869 21.3715 132.532 21.9474C132.192 22.5265 131.754 22.9578 131.218 23.2414C130.683 23.522 130.082 23.6384 129.414 23.5907C128.749 23.5448 128.054 23.3162 127.328 22.9048L123.773 20.8909L129.29 11.4794L131.014 12.4562L126.316 20.4706L128.147 21.5078C128.53 21.7248 128.897 21.8367 129.247 21.8432C129.597 21.8498 129.909 21.7736 130.183 21.6147C130.461 21.4576 130.68 21.2412 130.842 20.9654C131.075 20.5672 131.119 20.1411 130.974 19.6873C130.833 19.2321 130.475 18.8417 129.901 18.5161L127.491 17.1508L128.304 15.763Z" fill="white"/>
<path d="M145.62 27.1514L144.084 25.8833C144.252 25.5987 144.359 25.3119 144.405 25.023C144.453 24.7313 144.447 24.4457 144.388 24.166C144.328 23.8863 144.214 23.62 144.047 23.3671C143.885 23.1138 143.676 22.8809 143.418 22.6684C142.961 22.2909 142.459 22.0698 141.912 22.005C141.367 21.9375 140.809 22.0387 140.238 22.3084C139.669 22.5755 139.118 23.0209 138.585 23.6447C138.043 24.2793 137.687 24.8965 137.515 25.4963C137.349 26.0957 137.347 26.6507 137.508 27.1615C137.675 27.6719 137.985 28.1147 138.44 28.4899C138.692 28.6979 138.955 28.8599 139.229 28.9759C139.509 29.0915 139.792 29.1568 140.078 29.1719C140.366 29.1892 140.652 29.1531 140.933 29.0635C141.218 28.9762 141.488 28.8302 141.742 28.6256L143.271 29.9019C142.877 30.2487 142.436 30.5158 141.949 30.7032C141.465 30.8929 140.957 30.9934 140.424 31.0049C139.894 31.0137 139.36 30.9228 138.822 30.7322C138.287 30.539 137.768 30.2355 137.267 29.8218C136.528 29.2115 136.012 28.4979 135.72 27.6811C135.427 26.8643 135.386 25.9994 135.596 25.0863C135.806 24.1732 136.292 23.2711 137.053 22.3799C137.816 21.4861 138.637 20.8609 139.516 20.5043C140.397 20.1451 141.272 20.0363 142.141 20.1779C143.01 20.3196 143.812 20.6934 144.545 21.2992C145.014 21.6857 145.394 22.11 145.686 22.5719C145.978 23.0338 146.174 23.5203 146.274 24.0314C146.377 24.5398 146.375 25.0586 146.269 25.5877C146.168 26.1164 145.951 26.6377 145.62 27.1514Z" fill="white"/>
<path d="M148.418 40.9361L147.132 39.4287L154.275 33.539L153.099 32.1612C152.781 31.7884 152.464 31.5281 152.146 31.3803C151.834 31.2329 151.521 31.1892 151.208 31.2493C150.901 31.3098 150.597 31.4631 150.299 31.7094C150 31.9556 149.796 32.2202 149.688 32.5031C149.582 32.7837 149.577 33.087 149.673 33.4128C149.774 33.7391 149.982 34.0873 150.298 34.4574L152.019 36.4755L150.754 37.5193L148.859 35.2986C148.315 34.661 147.963 34.0353 147.804 33.4214C147.647 32.8053 147.669 32.2211 147.87 31.6688C148.076 31.117 148.449 30.6186 148.988 30.1735C149.525 29.7307 150.09 29.454 150.682 29.3435C151.278 29.2333 151.875 29.3031 152.47 29.5528C153.066 29.8026 153.635 30.2448 154.176 30.8797L156.835 33.996L148.418 40.9361ZM148.571 33.4999L149.971 35.1411L144.435 36.2678L143.004 34.5901L148.571 33.4999Z" fill="white"/>
<g filter="url(#filter0_dii_79_863)">
<path d="M151.039 82.0909C151.039 114.113 124.632 140.087 92.0389 140.087C59.446 140.087 33.0389 114.113 33.0389 82.0909C33.0389 50.0687 59.446 24.095 92.0389 24.095C124.632 24.095 151.039 50.0687 151.039 82.0909Z" stroke="url(#paint0_linear_79_863)"/>
</g>
<path d="M151.517 81.7312C151.517 114.038 124.878 140.227 92.017 140.227C59.1561 140.227 32.517 114.038 32.517 81.7312C32.517 49.4248 59.1561 23.2353 92.017 23.2353C124.878 23.2353 151.517 49.4248 151.517 81.7312Z" fill="url(#paint1_linear_79_863)"/>
<path d="M149.517 81.7312C149.517 112.901 123.806 138.227 92.0171 138.227C60.2285 138.227 34.5171 112.901 34.5171 81.7312C34.5171 50.5613 60.2285 25.2353 92.0171 25.2353C123.806 25.2353 149.517 50.5613 149.517 81.7312Z" stroke="white" stroke-width="4"/>
<path d="M122.017 95.243C121.341 93.546 120.574 91.8851 119.72 90.2675C118.43 87.7114 116.966 85.0333 114.565 83.3212C113.988 82.9061 113.357 82.5682 112.689 82.3163C112.329 82.1373 111.933 82.0415 111.529 82.0365C111.126 82.0314 110.727 82.1171 110.362 82.287C109.776 82.6618 109.312 83.1954 109.028 83.8236C108.631 84.5748 108.318 85.3748 107.996 86.1553C107.645 87.0138 107.314 87.8772 107.003 88.7455C105.687 91.8972 104.627 95.1464 103.833 98.4625C103.421 100.194 103.024 102.033 103.48 103.799C103.647 104.542 103.998 105.233 104.503 105.809C105.008 106.385 105.651 106.829 106.373 107.102C107.215 107.385 108.09 107.56 108.978 107.623C109.869 107.71 110.765 107.718 111.657 107.648C113.446 107.505 115.206 107.112 116.882 106.482C118.384 105.988 119.773 105.209 120.971 104.189C122.128 103.127 122.825 101.666 122.916 100.111C122.968 98.4445 122.662 96.7855 122.017 95.243Z" fill="#FFBFC6"/>
<path d="M101.967 76.37C101.069 74.0123 99.6994 71.8558 97.9381 70.0285C96.1214 68.1586 93.6759 67.0007 91.0561 66.77C89.4783 66.6875 87.896 66.789 86.3425 67.0725C84.7646 67.3212 83.1868 67.5944 81.6288 67.9261C78.9358 68.4656 76.3533 69.4432 73.9877 70.8188C71.1344 72.5394 68.6144 74.7443 66.5451 77.3309C65.7819 78.0802 65.0629 78.8717 64.3917 79.7016C62.66 81.8431 61.2013 84.3163 60.7101 87.0187C60.1841 89.9455 60.9234 92.8723 62.1986 95.5113C63.2599 97.6853 64.6913 99.665 66.431 101.365C69.9212 104.826 74.4778 107.056 79.3911 107.706C84.4584 108.243 89.5588 107.043 93.8291 104.307C98.0995 101.572 101.277 97.4707 102.825 92.6967C104.404 87.3131 104.101 81.5649 101.967 76.37Z" fill="url(#paint2_linear_79_863)"/>
<path d="M112.302 77.8919C111.049 74.1564 109.403 70.5596 107.39 67.1603C106.367 65.4777 105.535 63.6897 104.909 61.8286C104.336 59.9496 104.336 57.9466 104.909 56.0677C105.522 54.2753 106.392 52.5784 107.494 51.0287C107.614 50.8482 107.405 50.6823 107.241 50.7262C106.047 50.2967 104.787 50.0675 103.515 50.0482C102.195 50.0126 100.875 50.157 99.5953 50.4774C98.3253 50.7947 97.1075 51.2874 95.9782 51.9408C94.7674 52.661 93.6666 53.5462 92.7084 54.5701C91.7161 55.614 90.7535 56.7213 89.7314 57.7408C88.7551 58.7122 87.7124 59.6168 86.6104 60.4481C84.4701 62.1239 81.9545 63.2743 79.272 63.8042C78.9296 63.8627 78.5823 63.8969 78.23 63.9359C77.9334 63.9458 77.6466 64.0426 77.4064 64.214C77.1876 64.429 77.063 64.7196 77.0591 65.0237C77.0318 65.3777 77.0318 65.7331 77.0591 66.0871C77.1138 67.5664 77.4504 69.0225 78.0514 70.3798C78.1754 70.6676 78.3094 70.9456 78.4583 71.2188C78.0086 71.6639 77.4632 72.0045 76.8622 72.2155C76.2612 72.4265 75.6198 72.5026 74.985 72.4383C74.866 72.4383 74.7816 72.5456 74.7717 72.648C74.7091 73.5637 74.7996 74.4832 75.0396 75.37C74.7171 75.3212 74.4144 75.17 74.0919 75.1358C73.7502 75.0972 73.4046 75.1601 73.0996 75.3163C72.7792 75.4865 72.5041 75.7284 72.2963 76.0225C72.0886 76.3165 71.9542 76.6544 71.9038 77.009C71.8259 77.874 71.9979 78.7431 72.4 79.5163C72.7225 80.248 73.0748 80.9797 72.8416 81.7895C72.8416 81.8578 72.792 81.926 72.7671 81.9895C72.7423 82.0529 72.6729 81.9895 72.6679 82.0724C72.6467 82.1882 72.6117 82.3012 72.5637 82.409C72.2637 82.8935 71.8157 83.2725 71.2836 83.4919C71.267 83.4973 71.2521 83.5068 71.2405 83.5196C71.2288 83.5325 71.2208 83.5481 71.2173 83.5649C71.2138 83.5818 71.2148 83.5992 71.2204 83.6155C71.2259 83.6318 71.2357 83.6464 71.2488 83.6577C70.7006 83.9923 70.2963 84.513 70.1126 85.1212C69.7702 86.7553 71.4324 88.1358 72.5935 88.9894C75.7045 91.2723 79.1579 93.2479 82.9784 94.1016C86.3921 94.8626 90.1333 94.6479 93.2889 93.0674C93.63 92.8951 93.9613 92.7046 94.2813 92.4967C94.8363 92.9448 95.4704 93.2887 96.1519 93.5113C94.5046 96.3308 94.1076 99.6186 93.8397 102.819C93.7454 103.941 93.6611 105.067 93.5271 106.184L92.9615 106.223C91.0462 106.336 89.126 106.365 87.2207 106.638C85.4227 106.841 83.6917 107.428 82.1498 108.36C80.8253 109.197 79.7757 110.393 79.1281 111.804C78.8278 112.465 78.6689 113.18 78.6613 113.904C78.6536 114.628 78.7973 115.346 79.0834 116.014C79.3814 116.68 79.8105 117.282 80.3462 117.784C80.8819 118.286 81.5134 118.679 82.2044 118.94C85.4097 120.121 88.5852 117.833 90.4211 115.423C91.5365 113.945 92.3995 112.297 92.9764 110.545C93.3869 109.239 93.6726 107.899 93.8298 106.541C96.9209 106.321 100.012 105.872 102.89 104.692C106.022 103.391 108.673 101.178 110.486 98.3503C112.271 95.5477 113.365 92.374 113.682 89.0821C113.987 85.2989 113.518 81.4939 112.302 77.8919ZM92.9515 109.111C92.4833 111.054 91.6668 112.899 90.5401 114.56C88.6894 117.287 85.112 120.17 81.6437 118.345C80.9005 117.963 80.2641 117.407 79.79 116.727C79.316 116.047 79.0189 115.262 78.9247 114.443C78.8845 113.61 79.0227 112.778 79.3304 112C79.6381 111.223 80.1084 110.518 80.7109 109.931C83.4548 107.038 87.6574 106.823 91.4233 106.653C92.0832 106.623 92.7481 106.584 93.408 106.541C93.3041 107.408 93.1551 108.269 92.9615 109.121L92.9515 109.111ZM112.615 92.4626C111.817 95.58 110.224 98.4459 107.986 100.789C105.435 103.375 102.081 104.828 98.5335 105.541C96.9719 105.841 95.3926 106.045 93.805 106.15C93.8695 105.633 93.9191 105.116 93.9637 104.604C94.2863 101.038 94.4202 97.3699 96.137 94.126C96.2329 93.9504 96.3321 93.7748 96.4347 93.5992C97.4283 93.8487 98.478 93.7683 99.4202 93.3704C100.363 92.9725 101.145 92.2794 101.645 91.3992C101.888 90.9114 102.255 90.0528 101.719 89.6431C101.183 89.2333 100.429 89.5455 99.9178 89.7943C98.5238 90.5039 97.3447 91.5622 96.4992 92.8626C96.4297 92.965 96.3652 93.0723 96.3007 93.1748C95.672 92.9788 95.0851 92.6713 94.5691 92.2674C97.169 90.4772 98.9701 87.6919 100.087 84.8041C100.776 83.0236 101.183 81.0334 100.766 79.1407C100.449 77.6773 99.4514 76.2139 97.7892 76.1407C96.2362 76.0871 94.7527 77.0431 93.8198 78.1846C92.8702 79.3843 92.2057 80.7777 91.8748 82.2626C91.0611 85.5894 91.1703 89.7016 93.8595 92.1992C93.7256 92.2821 93.5966 92.365 93.4626 92.4382C91.9317 93.2791 90.2443 93.8084 88.5009 93.9943C84.8292 94.404 81.1972 93.4577 77.9323 91.8333C76.2574 90.9856 74.6546 90.0068 73.1393 88.9065C72.3545 88.3963 71.6478 87.7787 71.0405 87.0724C70.5443 86.4382 70.1374 85.609 70.5145 84.809C70.8576 84.2726 71.3209 83.8204 71.8691 83.487C72.3829 83.2235 72.7949 82.802 73.0421 82.2867C73.2894 81.7714 73.3584 81.1908 73.2385 80.6334C73.0599 79.8041 72.5687 79.0773 72.3752 78.248C72.2544 77.8629 72.2367 77.4536 72.3236 77.0597C72.4105 76.6659 72.5991 76.3006 72.8713 75.9993C73.1288 75.7307 73.4836 75.5729 73.8587 75.5602C74.3251 75.5602 74.737 75.8285 75.2133 75.7944C75.2464 75.7939 75.2789 75.7861 75.3084 75.7715C75.338 75.7569 75.3637 75.7359 75.3838 75.71C75.4039 75.6842 75.4177 75.6542 75.4243 75.6223C75.4308 75.5905 75.4299 75.5576 75.4217 75.5261C75.1604 74.6577 75.0481 73.7527 75.0892 72.848C75.7689 72.8804 76.4475 72.7662 77.0775 72.5134C77.7075 72.2606 78.2736 71.8753 78.7361 71.3846C78.768 71.3532 78.7887 71.3124 78.7949 71.2684C78.8012 71.2244 78.7927 71.1796 78.7709 71.1407C78.0629 69.8556 77.6084 68.4504 77.4312 66.9993C77.3915 66.6383 77.3667 66.2725 77.3568 65.9115C77.3369 65.5698 77.3468 65.2271 77.3865 64.8871C77.408 64.7228 77.4891 64.5716 77.6149 64.4614C77.7407 64.3512 77.9028 64.2893 78.0713 64.2871C78.3987 64.2383 78.7262 64.214 79.0636 64.1652C81.6432 63.712 84.0795 62.673 86.1788 61.131C88.3632 59.5269 90.3601 57.6897 92.1329 55.653C93.0675 54.562 94.1263 53.58 95.2885 52.7262C96.3472 52.0002 97.507 51.4285 98.732 51.0287C101.187 50.248 103.813 50.1451 106.323 50.7311L107.043 50.9018C105.97 52.43 105.12 54.0982 104.517 55.8579C103.974 57.5763 103.9 59.4051 104.304 61.1603C104.774 62.9293 105.485 64.6276 106.418 66.2091C107.336 67.8822 108.303 69.5212 109.157 71.2285C112.421 77.7309 114.575 85.2431 112.625 92.4723L112.615 92.4626ZM96.6828 93.2674C97.3173 92.2315 98.1618 91.3349 99.1637 90.6333C99.7144 90.2626 100.474 89.7504 101.148 89.8138C102.106 89.9065 101.277 91.3406 100.965 91.765C100.487 92.3592 99.8568 92.8177 99.1393 93.0937C98.4217 93.3697 97.6424 93.4533 96.8812 93.3357L96.6828 93.2674ZM93.0458 90.5455C92.1114 88.8868 91.7084 86.9893 91.8897 85.1016C91.9569 83.4606 92.3286 81.8455 92.9863 80.3358C93.5398 78.974 94.5336 77.829 95.8145 77.0773C96.2055 76.8418 96.6401 76.6848 97.0931 76.6154C97.5462 76.5459 98.0087 76.5653 98.4541 76.6724C98.818 76.8212 99.147 77.0417 99.4209 77.3202C99.6948 77.5987 99.9078 77.9294 100.047 78.2919C100.831 80.0236 100.543 82.1163 99.9724 83.8626C99.3922 85.6393 98.537 87.3175 97.437 88.8382C96.5713 90.0632 95.489 91.1256 94.2416 91.9748C93.7709 91.5561 93.3618 91.0751 93.026 90.5455H93.0458Z" fill="white" stroke="white" stroke-width="1.5"/>
<path d="M77.456 75.3749C76.9995 74.2627 76.3594 73.0968 75.1835 72.5993C75.1652 72.5892 75.1449 72.5831 75.124 72.5813C75.1031 72.5794 75.0821 72.582 75.0623 72.5887C75.0425 72.5954 75.0243 72.6062 75.009 72.6203C74.9937 72.6344 74.9817 72.6516 74.9736 72.6706C74.9655 72.6896 74.9616 72.7101 74.9621 72.7307C74.9626 72.7513 74.9676 72.7716 74.9766 72.7902C74.9856 72.8087 74.9986 72.8253 75.0146 72.8386C75.0306 72.8519 75.0492 72.8618 75.0694 72.8676C76.28 73.3066 76.8903 74.6041 77.327 75.7066C77.7015 76.6802 78.0146 77.6756 78.2647 78.687C77.897 78.054 77.463 77.4606 76.9697 76.9163C76.6644 76.567 76.3327 76.2408 75.9774 75.9407C75.9178 75.8871 75.1636 75.2578 75.1239 75.4529C75.0842 75.648 75.2877 75.7212 75.3869 75.8041C75.5655 75.9456 75.7342 76.0919 75.8831 76.2432C76.211 76.5387 76.5208 76.853 76.8109 77.1846C77.3576 77.8367 77.8363 78.541 78.2399 79.287C77.5725 78.6559 76.7236 78.242 75.8087 78.1017C75.1894 78.005 74.556 78.046 73.955 78.2216C73.3539 78.3972 72.8005 78.7029 72.3354 79.1163C72.3216 79.1267 72.3125 79.142 72.3102 79.1589C72.3079 79.1758 72.3125 79.193 72.323 79.2065C72.3336 79.2201 72.3491 79.229 72.3664 79.2313C72.3836 79.2336 72.401 79.2291 72.4148 79.2187C72.9071 78.8856 73.4496 78.6304 74.0224 78.4626C74.5937 78.3062 75.1918 78.268 75.7789 78.3505C76.9157 78.5165 77.9396 79.118 78.6269 80.0236C78.7014 80.1163 78.8701 80.0675 78.8353 79.9358C78.4865 78.3852 78.0255 76.861 77.456 75.3749Z" fill="white" stroke="white"/>
<path d="M107.544 50.8725C107.092 50.1211 106.502 49.4594 105.802 48.9213C105.113 48.3636 104.371 47.8735 103.585 47.4579C101.949 46.5879 100.192 45.9616 98.3697 45.5994C94.698 44.8775 90.6046 45.1311 87.2554 46.9311C85.8314 47.697 84.4967 48.853 84.0501 50.4433C83.8716 51.0946 83.8659 51.7801 84.0335 52.4343C84.2012 53.0884 84.5366 53.6894 85.0077 54.1798C84.8978 54.3571 84.8032 54.5431 84.7249 54.7359C84.4336 55.598 84.4009 56.5243 84.6307 57.4042C84.9176 58.664 85.5914 59.8066 86.5608 60.6774C86.7344 60.8335 86.9924 60.5847 86.8188 60.4286C86.2083 59.8876 85.7172 59.2293 85.3758 58.4943C85.0344 57.7593 84.8501 56.9633 84.8341 56.1554C84.8233 55.5503 84.9702 54.9524 85.2608 54.4189C85.3055 54.453 85.3402 54.4872 85.3848 54.5164C85.9743 54.9331 86.6872 55.147 87.4129 55.125C88.1386 55.1029 88.8367 54.8462 89.3989 54.3945C89.8951 53.9798 90.3615 53.2628 90.1382 52.5945C89.8703 51.7994 88.8134 51.9847 88.1535 52.1067C87.0142 52.3328 85.9929 52.9479 85.2707 53.8433C84.8618 53.3832 84.5796 52.8278 84.451 52.23C84.3224 51.6323 84.3518 51.0121 84.5364 50.4286C84.9929 48.9652 86.2581 47.9652 87.568 47.2726C90.6145 45.6628 94.3309 45.3214 97.7049 45.8921C100.965 46.4287 104.249 47.7604 106.601 50.1018C106.884 50.3896 107.157 50.6774 107.445 50.9604C107.458 50.9654 107.472 50.9668 107.485 50.9644C107.499 50.962 107.512 50.9559 107.522 50.9468C107.533 50.9376 107.54 50.9259 107.544 50.9127C107.548 50.8996 107.548 50.8857 107.544 50.8725ZM85.5783 53.9798C86.0286 53.4434 86.6039 53.0217 87.2554 52.7506C87.5879 52.6069 87.9357 52.5005 88.2924 52.4335C88.6659 52.3347 89.0562 52.3131 89.4386 52.3701C89.8107 52.4677 89.8752 52.8579 89.8008 53.1652C89.7225 53.4866 89.55 53.7784 89.3046 54.0042C88.8081 54.4431 88.1731 54.7005 87.5063 54.7334C86.8395 54.7663 86.1815 54.5725 85.6429 54.1847C85.5976 54.1499 85.5545 54.1125 85.5139 54.0725L85.5783 53.9798Z" fill="white" stroke="white" stroke-width="1.5"/>
<path d="M101.684 63.1993C101.684 63.1993 101.684 63.1554 101.659 63.1554C100.139 62.9708 98.6631 62.5268 97.298 61.8432C96.6282 61.531 95.9633 61.2042 95.2835 60.9017C94.6643 60.5535 93.9713 60.3514 93.2591 60.3115C92.9268 60.3336 92.6046 60.4338 92.3197 60.6035C92.0348 60.7732 91.7955 61.0077 91.6218 61.2871C91.5721 61.37 91.4382 62.4042 91.2844 62.8578C91.1241 63.378 90.8849 63.8713 90.5748 64.3212C90.296 64.7359 89.9348 65.091 89.513 65.3651C89.1285 65.5905 88.7014 65.7365 88.2577 65.7944L88.0592 65.6383C87.9302 65.5359 87.8012 65.4237 87.6772 65.3115C87.5531 65.1993 87.3844 65.0676 87.2306 64.9456C87.2139 64.9326 87.1933 64.9255 87.172 64.9255C87.1507 64.9255 87.13 64.9325 87.1133 64.9455C87.0967 64.9586 87.0849 64.9767 87.0801 64.9971C87.0753 65.0175 87.0776 65.0389 87.0867 65.0578C87.1599 65.193 87.2446 65.3219 87.3398 65.4432C87.4489 65.57 87.563 65.692 87.6821 65.809C87.9211 66.0422 88.1746 66.2606 88.4413 66.4627C88.9678 66.8544 89.5291 67.1989 90.1184 67.492C91.3824 68.1305 92.7297 68.595 94.1225 68.8724C94.9491 69.081 95.8137 69.0977 96.648 68.9212C96.673 68.918 96.6957 68.9051 96.711 68.8854C96.7264 68.8658 96.7332 68.8409 96.7299 68.8163C96.7266 68.7918 96.7135 68.7695 96.6935 68.7544C96.6735 68.7393 96.6482 68.7326 96.6232 68.7359C95.8768 68.7133 95.1334 68.6317 94.4003 68.492C93.7206 68.3407 93.0557 68.1407 92.4156 67.9261C91.1876 67.5395 90.019 66.9897 88.9424 66.292C88.8084 66.2042 88.6794 66.1115 88.5455 66.0139C89.4291 65.831 90.2093 65.3255 90.7286 64.5993C91.0745 64.1314 91.3394 63.6106 91.5126 63.0578C91.6591 62.5275 91.7783 61.9902 91.8699 61.4481C92.2523 61.4983 92.6166 61.6389 92.9317 61.8578C93.2591 62.0383 93.5866 62.2091 93.924 62.3944C94.5889 62.7603 95.2538 63.1261 95.9484 63.4383C97.1405 64.0306 98.4793 64.2776 99.8087 64.1505C100.516 64.0961 101.183 63.8051 101.699 63.3261C101.707 63.317 101.713 63.3064 101.716 63.2949C101.72 63.2835 101.721 63.2714 101.719 63.2596C101.718 63.2477 101.714 63.2362 101.708 63.2259C101.702 63.2155 101.694 63.2065 101.684 63.1993ZM97.8736 63.7554C96.4495 63.4676 95.1942 62.731 93.9042 62.0822C93.5618 61.9115 93.2194 61.7359 92.8622 61.5944C92.5681 61.4487 92.2438 61.3719 91.9145 61.37C92.0794 61.1319 92.3015 60.9373 92.5612 60.8038C92.8208 60.6702 93.11 60.6016 93.403 60.6042C93.7804 60.6315 94.1499 60.724 94.4946 60.8774C94.8271 61.0091 95.1545 61.1505 95.487 61.292C96.7016 61.8939 97.9565 62.4138 99.243 62.8481C99.9696 63.0735 100.724 63.1999 101.486 63.2237C100.965 63.514 100.401 63.7199 99.8136 63.8334C99.1674 63.9216 98.5103 63.8952 97.8736 63.7554Z" fill="white" stroke="white"/>
<ellipse cx="33.3766" cy="36.8978" rx="5" ry="4.91563" fill="url(#paint3_linear_79_863)"/>
<ellipse cx="160.377" cy="50.6615" rx="5" ry="4.91563" fill="url(#paint4_linear_79_863)"/>
<ellipse cx="83.3766" cy="155.856" rx="5" ry="4.91563" fill="url(#paint5_linear_79_863)"/>
<defs>
<filter id="filter0_dii_79_863" x="0.805546" y="7.72833" width="182.467" height="180.459" filterUnits="userSpaceOnUse" color-interpolation-filters="sRGB">
<feFlood flood-opacity="0" result="BackgroundImageFix"/>
<feColorMatrix in="SourceAlpha" type="matrix" values="0 0 0 0 0 0 0 0 0 0 0 0 0 0 0 0 0 0 127 0" result="hardAlpha"/>
<feOffset dy="15.8667"/>
<feGaussianBlur stdDeviation="15.8667"/>
<feColorMatrix type="matrix" values="0 0 0 0 0.2 0 0 0 0 0.2 0 0 0 0 0.2 0 0 0 0.25 0"/>
<feBlend mode="normal" in2="BackgroundImageFix" result="effect1_dropShadow_79_863"/>
<feBlend mode="normal" in="SourceGraphic" in2="effect1_dropShadow_79_863" result="shape"/>
<feColorMatrix in="SourceAlpha" type="matrix" values="0 0 0 0 0 0 0 0 0 0 0 0 0 0 0 0 0 0 127 0" result="hardAlpha"/>
<feOffset dy="5.28889"/>
<feGaussianBlur stdDeviation="2.64444"/>
<feComposite in2="hardAlpha" operator="arithmetic" k2="-1" k3="1"/>
<feColorMatrix type="matrix" values="0 0 0 0 1 0 0 0 0 1 0 0 0 0 1 0 0 0 1 0"/>
<feBlend mode="normal" in2="shape" result="effect2_innerShadow_79_863"/>
<feColorMatrix in="SourceAlpha" type="matrix" values="0 0 0 0 0 0 0 0 0 0 0 0 0 0 0 0 0 0 127 0" result="hardAlpha"/>
<feOffset dy="-2.64444"/>
<feGaussianBlur stdDeviation="1.32222"/>
<feComposite in2="hardAlpha" operator="arithmetic" k2="-1" k3="1"/>
<feColorMatrix type="matrix" values="0 0 0 0 0.8 0 0 0 0 0.8 0 0 0 0 0.8 0 0 0 1 0"/>
<feBlend mode="normal" in2="effect2_innerShadow_79_863" result="effect3_innerShadow_79_863"/>
</filter>
<linearGradient id="paint0_linear_79_863" x1="92.0389" y1="23.595" x2="92.0389" y2="140.587" gradientUnits="userSpaceOnUse">
<stop stop-color="white"/>
<stop offset="1" stop-color="#D6D6D6"/>
</linearGradient>
<linearGradient id="paint1_linear_79_863" x1="53.3765" y1="33.9484" x2="90.8661" y2="140.632" gradientUnits="userSpaceOnUse">
<stop stop-color="#706464"/>
<stop offset="1" stop-color="#4A4141"/>
</linearGradient>
<linearGradient id="paint2_linear_79_863" x1="60.5389" y1="87.2869" x2="103.822" y2="87.2869" gradientUnits="userSpaceOnUse">
<stop stop-color="#F6929F"/>
<stop offset="1" stop-color="#FFC0C8"/>
</linearGradient>
<linearGradient id="paint3_linear_79_863" x1="28.3766" y1="36.8978" x2="38.3766" y2="36.8978" gradientUnits="userSpaceOnUse">
<stop stop-color="#F6929F"/>
<stop offset="1" stop-color="#FFC0C8"/>
</linearGradient>
<linearGradient id="paint4_linear_79_863" x1="155.377" y1="50.6615" x2="165.377" y2="50.6615" gradientUnits="userSpaceOnUse">
<stop stop-color="#F6929F"/>
<stop offset="1" stop-color="#FFC0C8"/>
</linearGradient>
<linearGradient id="paint5_linear_79_863" x1="78.3766" y1="155.856" x2="88.3766" y2="155.856" gradientUnits="userSpaceOnUse">
<stop stop-color="#F6929F"/>
<stop offset="1" stop-color="#FFC0C8"/>
</linearGradient>
</defs>
</svg>
