<svg width="20" height="18" viewBox="0 0 20 18" fill="none" xmlns="http://www.w3.org/2000/svg">
<path fill-rule="evenodd" clip-rule="evenodd" d="M14.4535 3.42678C15.2828 4.24388 15.9167 5.23782 16.3079 6.33435C16.6991 7.43087 16.8375 8.60162 16.7126 9.75913C16.701 9.91461 16.7504 10.0685 16.8503 10.1882C16.9502 10.3079 17.0928 10.384 17.2478 10.4004C17.4029 10.4168 17.5582 10.3721 17.6809 10.276C17.8036 10.1798 17.8841 10.0396 17.9052 9.88511C18.0492 8.5482 17.8893 7.19604 17.4375 5.9296C16.9856 4.66316 16.2535 3.51516 15.2957 2.57135C11.772 -0.904367 6.08754 -0.847978 2.59983 2.68892C-0.887884 6.22463 -0.865089 11.9091 2.65982 15.3848C4.29139 16.9967 6.48179 17.9172 8.77501 17.9547C9.64201 17.9702 10.5067 17.8607 11.3425 17.6296C11.4959 17.5873 11.6262 17.4857 11.7047 17.3474C11.7832 17.209 11.8035 17.0451 11.7612 16.8917C11.7189 16.7384 11.6174 16.6081 11.479 16.5296C11.3406 16.451 11.1767 16.4307 11.0234 16.473C10.2985 16.6735 9.54855 16.7684 8.79661 16.755C6.8111 16.7232 4.91445 15.9264 3.50205 14.5306C0.453451 11.524 0.428255 6.60015 3.45406 3.53116C6.47986 0.462164 11.4049 0.420171 14.4535 3.42678Z" fill="white"/>
<path fill-rule="evenodd" clip-rule="evenodd" d="M16.865 10.521C16.9175 10.5797 16.981 10.6276 17.052 10.6618C17.1229 10.696 17.1999 10.7159 17.2786 10.7204C17.3572 10.7249 17.436 10.7138 17.5104 10.6878C17.5848 10.6618 17.6533 10.6214 17.7121 10.569L19.7756 8.73332C19.8391 8.68239 19.8915 8.6191 19.9297 8.54729C19.9679 8.47547 19.9911 8.39663 19.9979 8.31557C20.0047 8.23451 19.9949 8.15291 19.9692 8.07574C19.9435 7.99857 19.9023 7.92744 19.8482 7.86668C19.7941 7.80591 19.7282 7.75679 19.6546 7.72228C19.5809 7.68777 19.501 7.66861 19.4197 7.66595C19.3384 7.6633 19.2574 7.67721 19.1816 7.70684C19.1059 7.73646 19.0369 7.78119 18.979 7.83829L16.9154 9.67393C16.8565 9.72623 16.8084 9.78963 16.774 9.86051C16.7395 9.93139 16.7194 10.0084 16.7147 10.087C16.7101 10.1657 16.7209 10.2445 16.7467 10.3189C16.7725 10.3934 16.8127 10.462 16.865 10.521Z" fill="white"/>
<path fill-rule="evenodd" clip-rule="evenodd" d="M17.7936 10.4454C17.7463 10.5085 17.6871 10.5616 17.6193 10.6017C17.5515 10.6418 17.4765 10.6682 17.3985 10.6794C17.3205 10.6905 17.2411 10.6862 17.1648 10.6666C17.0885 10.6471 17.0168 10.6127 16.9538 10.5654L14.5542 8.76576C14.427 8.67031 14.3428 8.5282 14.3203 8.3707C14.2978 8.2132 14.3388 8.05321 14.4343 7.92593C14.5297 7.79865 14.6718 7.71451 14.8293 7.69201C14.9868 7.66951 15.1468 7.7105 15.2741 7.80595L17.6736 9.6056C17.8009 9.70106 17.885 9.84317 17.9075 10.0007C17.93 10.1582 17.8891 10.3182 17.7936 10.4454ZM9.17929 4.68657C9.0202 4.68657 8.86761 4.74977 8.75511 4.86227C8.64261 4.97477 8.57941 5.12735 8.57941 5.28645V9.48562C8.57941 9.64472 8.64261 9.7973 8.75511 9.9098C8.86761 10.0223 9.0202 10.0855 9.17929 10.0855C9.33839 10.0855 9.49097 10.0223 9.60347 9.9098C9.71597 9.7973 9.77917 9.64472 9.77917 9.48562V5.28645C9.77917 5.12735 9.71597 4.97477 9.60347 4.86227C9.49097 4.74977 9.33839 4.68657 9.17929 4.68657Z" fill="white"/>
<path fill-rule="evenodd" clip-rule="evenodd" d="M4.98024 9.48562C4.98024 9.64472 5.04344 9.79731 5.15594 9.9098C5.26844 10.0223 5.42103 10.0855 5.58012 10.0855H9.17942C9.33851 10.0855 9.4911 10.0223 9.6036 9.9098C9.7161 9.79731 9.7793 9.64472 9.7793 9.48562C9.7793 9.32653 9.7161 9.17394 9.6036 9.06144C9.4911 8.94894 9.33851 8.88574 9.17942 8.88574H5.58012C5.42103 8.88574 5.26844 8.94894 5.15594 9.06144C5.04344 9.17394 4.98024 9.32653 4.98024 9.48562Z" fill="white"/>
</svg>
