<svg width="119" height="119" viewBox="0 0 119 119" fill="none" xmlns="http://www.w3.org/2000/svg">
<path d="M118.243 59.7938C118.243 92.3725 91.8324 118.783 59.2536 118.783C26.6748 118.783 0.264542 92.3725 0.264542 59.7938C0.264542 27.215 26.6748 0.804688 59.2536 0.804688C91.8324 0.804688 118.243 27.215 118.243 59.7938Z" fill="url(#paint0_linear_719_370)"/>
<path d="M65.1894 63.0719C62.9493 61.0198 60.5232 59.1804 57.9424 57.5775C55.6153 56.1055 53.1317 54.8969 50.5375 53.9737C48.0007 53.0673 45.3323 52.5836 42.6389 52.5421C39.899 52.5421 36.3891 52.8778 34.8044 55.4498C34.4588 55.9737 34.251 56.5764 34.2 57.202C34.1491 57.8276 34.2568 58.4559 34.5132 59.0288C34.9341 59.7401 35.4433 60.3953 36.0287 60.9788C36.5297 61.5704 36.9682 62.2123 37.3369 62.8942C38.8623 65.6834 39.2425 68.9613 39.3116 72.0912C39.3856 75.142 39.1783 78.2027 39.4844 81.2437C39.6223 82.746 39.9287 84.2281 40.3976 85.662L40.4618 85.8298C40.6808 87.3308 41.1061 88.7944 41.7256 90.179C42.3291 91.518 43.1648 92.7397 44.1939 93.7877C45.2102 94.7961 46.3757 95.6419 47.6495 96.2955C50.236 97.6073 53.0597 98.3862 55.9529 98.5861C58.8245 98.8537 61.7201 98.5019 64.444 97.5543C67.0215 96.6475 69.2998 95.049 71.0294 92.9336C72.5903 90.9513 73.6762 88.6377 74.2037 86.1704C74.7494 83.67 74.8181 81.089 74.4061 78.5631C73.9026 75.6779 72.8573 72.914 71.3256 70.4177C69.6398 67.6898 67.5736 65.2163 65.1894 63.0719Z" fill="#FFBFC6"/>
<path d="M50.6837 64.134C49.9784 60.8798 48.581 57.8155 46.5863 55.1494C46.0927 54.473 45.599 53.8115 45.0411 53.1747C44.5519 52.5458 43.9846 51.9818 43.3528 51.4962C43.0493 51.2598 42.702 51.0857 42.3309 50.9841C41.9598 50.8824 41.5722 50.8551 41.1906 50.9038C40.3267 51.047 39.5615 51.6542 38.8457 52.1232C35.8155 54.1128 32.9467 56.3379 30.2658 58.7778C29.4157 59.7624 28.651 60.8177 27.9802 61.9323C27.2087 63.4628 26.8127 65.155 26.825 66.8689C26.8127 68.5361 26.9166 70.2022 27.136 71.8549C27.2632 73.2395 27.5447 74.6056 27.9752 75.9276C28.3685 77.1743 29.0697 78.3017 30.014 79.2056C31.2235 80.2916 32.7736 80.6865 34.3632 80.7902C36.1372 80.9128 37.9188 80.8698 39.6849 80.6619C41.3904 80.4845 43.0478 79.9907 44.5722 79.2056C47.0374 77.7873 48.934 75.5574 49.9383 72.8965C51.025 70.1083 51.2838 67.0657 50.6837 64.134Z" fill="url(#paint1_linear_719_370)"/>
<path d="M40.6657 59.8749C41.5787 59.6529 42.3792 59.1052 42.9168 58.3347C43.0205 58.1569 42.7934 58.0187 42.6552 58.1323C42.0138 58.6856 41.2606 59.0941 40.4471 59.3301C39.6335 59.5661 38.7787 59.6239 37.9407 59.4997C36.9283 59.3566 35.9349 59.1016 34.9787 58.7395C34.0373 58.3469 33.0709 58.0171 32.0859 57.7521C31.077 57.5304 30.0217 57.6905 29.1239 58.2014C29.1239 58.2014 29.1239 58.2507 29.1486 58.2409C30.0717 57.7472 31.1775 57.9545 32.1352 58.2409C33.0929 58.5272 34.1099 58.9814 35.0972 59.3368C36.8497 59.9983 38.7947 60.4229 40.6657 59.8749Z" fill="white" stroke="white"/>
<path d="M96.03 55.7528C94.7416 52.4157 91.5871 50.1053 88.1758 49.271C88.7189 49.0439 89.2619 48.8119 89.8 48.5651C90.9918 48.0556 92.1465 47.4634 93.2556 46.7928C94.1493 46.2876 94.8532 45.504 95.2599 44.5615C95.6943 43.3372 95.1069 42.1376 94.554 41.0565C93.8245 39.5458 92.8727 38.153 91.7302 36.9245C91.903 36.7369 92.0807 36.5592 92.2486 36.3716C93.634 34.8599 94.8308 33.1857 95.8128 31.3856C95.8395 31.3375 95.8483 31.2816 95.8375 31.2276C96.2238 30.4297 96.2857 29.5131 96.0103 28.6705C95.8058 28.0612 95.3922 27.544 94.8428 27.2105C94.2934 26.8771 93.6437 26.749 93.0088 26.8489C92.3887 26.9452 91.8181 27.2447 91.3866 27.7004C90.955 28.1561 90.687 28.7421 90.6244 29.3665C90.5782 29.7428 90.6017 30.1243 90.6935 30.4921C89.8999 30.9606 89.3127 31.7118 89.0496 32.5951C88.9362 32.9876 88.8911 33.3967 88.9163 33.8046H88.8917C88.6056 33.7776 88.3176 33.8274 88.0572 33.9489C87.7969 34.0704 87.5737 34.2591 87.4107 34.4957L87.3514 34.5944C87.0719 34.5534 86.7898 34.532 86.5073 34.5302C85.3682 34.5449 84.2575 34.8877 83.3083 35.5176C83.0714 35.6706 82.8394 35.8385 82.6123 36.0112C82.5406 35.3942 82.4083 34.7857 82.2174 34.1945C81.4887 32.0291 80.0523 30.172 78.1397 28.9222C76.2139 27.6573 73.9712 26.9594 71.6678 26.9081C70.4243 26.8392 69.1842 27.0944 68.069 27.6486C67.0685 28.1718 66.3159 29.0699 65.9758 30.1465C65.841 30.6436 65.8179 31.1644 65.9084 31.6714C65.9989 32.1784 66.2006 32.6591 66.4991 33.0789C67.0915 33.9971 67.9209 34.7425 68.5281 35.6459C69.1593 36.6996 69.5503 37.8795 69.6734 39.1016C69.8219 40.3756 70.1065 41.6301 70.5225 42.8435C71.0409 44.0116 71.478 45.2141 71.8307 46.4423C71.9385 47.0385 72.0143 47.64 72.0578 48.2442C72.0578 48.2788 72.0578 48.3183 72.0578 48.3577C72.0578 48.3972 72.0578 48.4664 72.0578 48.5207C71.9393 48.4269 71.8307 48.3281 71.7319 48.2343C71.3756 47.8803 71.0533 47.4935 70.7693 47.0792C69.5845 45.3563 69.0168 43.3076 68.2615 41.3774C67.5062 39.4471 66.5534 37.6058 64.8058 36.4407C63.867 35.8247 62.7934 35.4443 61.6762 35.3317C60.559 35.2191 59.4311 35.3777 58.3882 35.794C57.2956 36.2309 56.4122 37.0701 55.9199 38.1389C55.5029 39.2596 55.2534 40.4357 55.1794 41.6291C54.9702 42.8496 55.0274 44.1008 55.3473 45.297C55.5322 45.8667 55.8181 46.3985 56.1914 46.8669C56.6058 47.337 56.9916 47.8315 57.3466 48.3479C57.9637 49.3352 58.3685 50.4854 59.3657 51.1716C60.3085 51.7431 61.4058 52.0071 62.5054 51.9269C62.5408 52.056 62.5836 52.1829 62.6337 52.307C62.8849 52.8274 63.2471 53.2862 63.6949 53.6513C64.1427 54.0164 64.6652 54.2788 65.2255 54.4199C65.0886 55.3265 64.8104 56.206 64.401 57.0265C63.5002 58.8728 62.005 60.3628 60.1555 61.2572C59.2337 61.6988 58.2133 61.8943 57.1936 61.8249C56.1635 61.7264 55.1793 61.3511 54.3451 60.7388C52.5679 59.4849 51.551 57.4461 51.0425 55.3776C50.497 52.9856 50.4032 50.5127 50.7661 48.0862C51.1987 44.8384 52.1644 41.6843 53.6244 38.7511C53.5701 38.6128 53.5158 38.4746 53.4713 38.3314L53.2344 38.5289C51.6534 39.6989 49.9062 40.6258 48.0509 41.2786C46.2737 41.9549 44.304 42.4486 42.3985 42.0833C41.9243 41.988 41.4635 41.8355 41.0261 41.6291C41.3793 40.6826 41.5469 39.677 41.5198 38.6671C41.5052 37.7248 41.3021 36.7949 40.9224 35.9323C40.5818 35.1769 40.0289 34.2439 39.1452 34.0711C38.3504 33.9181 37.7679 34.5204 37.531 35.2214C37.3138 36.0131 37.3138 36.8486 37.531 37.6403C37.7209 38.4788 38.082 39.269 38.5917 39.9614C39.1014 40.6537 39.7487 41.2333 40.4929 41.6637L40.5719 41.7081C40.4322 42.0697 40.2672 42.4211 40.0783 42.7596C39.1136 44.2775 37.7732 45.5205 36.187 46.3681C34.6008 47.2157 32.8225 47.6392 31.0245 47.5975C30.1794 47.5545 29.3546 47.3229 28.6106 46.9197C27.8665 46.5165 27.2222 45.952 26.7247 45.2674C26.4897 44.9429 26.2942 44.5916 26.1421 44.2209C26.1382 44.2052 26.1282 44.1916 26.1143 44.1833C26.1004 44.175 26.0838 44.1725 26.0681 44.1764C26.0524 44.1803 26.0389 44.1904 26.0306 44.2042C26.0222 44.2181 26.0197 44.2348 26.0237 44.2505C26.2284 45.0678 26.6677 45.8074 27.2874 46.3782C27.9157 46.963 28.6636 47.4043 29.4793 47.6716C31.454 48.3232 33.6113 47.9431 35.4674 47.1532C37.9032 46.1664 39.8643 44.2778 40.9422 41.8809C42.5861 42.6313 44.4817 42.5671 46.2194 42.1425C47.2333 41.88 48.2239 41.5349 49.1814 41.1108C50.1625 40.6996 51.1157 40.2247 52.0348 39.689C52.4502 39.4466 52.8508 39.1796 53.2344 38.8893C51.9414 41.5548 51.0465 44.3957 50.5785 47.3211C50.1207 49.9139 50.1525 52.5695 50.6723 55.1506C51.1659 57.3424 52.1829 59.5047 54.0144 60.8869C54.8581 61.5407 55.8562 61.9658 56.9122 62.1211C58.0002 62.2457 59.1018 62.0752 60.1012 61.6274C62.0892 60.7378 63.7042 59.1821 64.6676 57.2289C65.1081 56.3658 65.4065 55.4373 65.5513 54.4792C66.0673 54.5977 66.5977 54.641 67.1261 54.6075C67.3285 54.6075 67.5309 54.5631 67.7283 54.5285C67.3877 55.6778 67.3334 56.893 67.5704 58.0681C67.7516 59.1568 68.1084 60.2088 68.6268 61.1831C69.1075 62.1489 69.8013 62.9929 70.6558 63.6514C71.0134 63.9115 71.4034 64.1239 71.8159 64.2833C71.8603 64.9721 71.8603 65.663 71.8159 66.3518C71.7124 67.7117 71.4455 69.0543 71.0211 70.3504C70.1621 72.9718 68.612 75.2871 67.0323 77.5184C63.9666 81.838 60.511 85.9107 56.3938 89.2726C55.3127 90.1562 54.0637 91.2472 52.6074 91.3805C52.1284 91.4324 51.6454 91.3285 51.2301 91.0843C51.393 90.8116 51.4996 90.5091 51.5437 90.1945C51.5878 89.88 51.5684 89.5598 51.4868 89.2528C51.4733 89.2132 51.4458 89.1798 51.4094 89.1589C51.3731 89.138 51.3304 89.131 51.2893 89.1393C51.0712 89.1881 50.8744 89.3055 50.7279 89.4743C50.5813 89.6431 50.4926 89.8544 50.4748 90.0772C50.4533 90.2476 50.4672 90.4206 50.5157 90.5854C50.5641 90.7502 50.646 90.9032 50.7562 91.0349C50.7216 91.0695 50.692 91.109 50.6575 91.1386C50.5789 91.2501 50.4702 91.337 50.3442 91.3892C50.2181 91.4415 50.0799 91.4568 49.9454 91.4336C49.811 91.4103 49.6859 91.3493 49.5848 91.2578C49.4836 91.1663 49.4105 91.0479 49.3739 90.9165C49.1842 90.3546 49.1136 89.7595 49.1666 89.1689C49.1666 88.384 49.1666 87.5941 49.2209 86.8092C49.2752 86.0243 49.3591 85.1159 49.3591 84.2619C49.6039 84.1789 49.8431 84.0799 50.0749 83.9657C51.3782 83.3042 52.4297 82.2774 53.5553 81.3641C54.1996 80.8228 54.9075 80.3619 55.6632 79.9917C56.4423 79.7097 57.243 79.4918 58.0575 79.3401C58.0831 79.3298 58.1051 79.3121 58.1206 79.2892C58.1361 79.2663 58.1444 79.2393 58.1444 79.2117C58.1444 79.1841 58.1361 79.1571 58.1206 79.1342C58.1051 79.1113 58.0831 79.0936 58.0575 79.0834C57.6922 79.0044 57.3071 79.0192 56.9368 78.9501C56.5446 78.8732 56.1609 78.7574 55.7916 78.6045C55.1035 78.3012 54.4684 77.8895 53.9107 77.3852C52.9234 76.541 51.8274 75.3611 50.4304 75.4105C50.1242 75.4303 49.8258 75.516 49.5558 75.6617C49.2857 75.8074 49.0502 76.0096 48.8655 76.2547C48.8301 75.2126 48.8515 74.1695 48.9296 73.1298C48.9593 72.7694 48.9889 72.3992 49.0333 72.0338C49.3344 71.8627 49.5815 71.6105 49.7464 71.3059C49.9114 71.0014 49.9876 70.6567 49.9663 70.3109C49.9651 70.255 49.9423 70.2018 49.9028 70.1622C49.8632 70.1227 49.81 70.0999 49.7541 70.0987C48.9839 70.1431 48.7667 70.9478 48.6483 71.6981C48.5056 71.7055 48.3638 71.673 48.2385 71.6043C48.1894 71.5759 48.1431 71.5429 48.1003 71.5056C48.4186 71.3067 48.671 71.0182 48.826 70.6763C48.9314 70.4445 48.9693 70.1876 48.9353 69.9352C48.9012 69.6828 48.7966 69.4451 48.6334 69.2496C48.5989 69.2155 48.5541 69.1936 48.506 69.1874C48.4578 69.1812 48.409 69.1909 48.3669 69.215C48.0973 69.346 47.8632 69.54 47.6845 69.7806C47.5058 70.0212 47.3876 70.3014 47.34 70.5973C47.3132 70.8197 47.3421 71.0453 47.424 71.2538C47.2808 71.318 47.1376 71.3773 46.9994 71.4266C45.9886 71.7757 44.9131 71.8971 43.8499 71.7821C43.3172 71.7345 42.7928 71.6184 42.2899 71.4365C42.0776 71.3575 41.969 71.2539 41.9838 71.0169C42.0097 70.8067 42.0768 70.6037 42.1813 70.4196C42.6338 69.56 43.036 68.6748 43.3858 67.7686C44.7569 64.0859 45.1399 60.1083 44.4965 56.2317C44.316 55.1399 44.0452 54.065 43.6869 53.0179C43.4015 52.1209 43.0209 51.257 42.5515 50.441C42.5013 50.2985 42.4584 50.1535 42.4232 50.0066C41.7913 49.7894 41.1495 49.6018 40.5127 49.4438C39.3791 49.1395 38.2043 49.0178 37.0324 49.0834C35.9246 49.1499 34.8477 49.4745 33.8877 50.0313C32.9891 50.6594 32.1497 51.3683 31.3799 52.1491C30.9167 52.6039 30.379 52.9762 29.7903 53.2499C29.4533 53.3828 29.0883 53.4286 28.729 53.3832C28.3542 53.3435 27.9829 53.2758 27.6182 53.1808C27.61 53.178 27.6012 53.1769 27.5925 53.1776C27.5838 53.1783 27.5754 53.1808 27.5676 53.1848C27.5599 53.1889 27.5531 53.1945 27.5476 53.2013C27.5422 53.2081 27.5381 53.2159 27.5358 53.2243C27.5334 53.2327 27.5328 53.2415 27.534 53.2501C27.5351 53.2588 27.538 53.2671 27.5425 53.2746C27.547 53.2821 27.553 53.2886 27.56 53.2937C27.5671 53.2988 27.5751 53.3024 27.5836 53.3043C27.7811 53.3832 28.1859 53.5906 28.2155 53.6054C29.2275 54.1632 30.4469 53.5165 31.4243 53.1808C32.6096 52.7261 33.8494 52.429 35.112 52.2972C36.3496 52.1913 37.594 52.3984 38.7306 52.8995C39.3032 53.1611 39.8364 53.4968 40.4041 53.7634C40.9403 54.0236 41.4946 54.2447 42.0628 54.4249C42.5691 54.5878 43.1048 54.6383 43.6326 54.573C43.7412 55.0666 43.84 55.5307 43.9239 56.0145C44.2781 58.0902 44.3446 60.2049 44.1214 62.2988C43.8943 64.3811 43.3672 66.4197 42.5564 68.3511C42.3491 68.8448 42.122 69.3384 41.8801 69.7926C41.6241 70.1714 41.471 70.6104 41.4358 71.0662C41.4358 71.5599 41.8357 71.7821 42.2652 71.9302C42.8183 72.1183 43.3916 72.2409 43.9733 72.2955C45.2087 72.4213 46.4556 72.2239 47.5918 71.7228L47.6708 71.6833C47.7621 71.7788 47.8668 71.8603 47.9818 71.9252C48.1549 72.0293 48.3525 72.0855 48.5545 72.0881C48.5545 72.251 48.5298 72.4041 48.515 72.5324C48.39 73.7657 48.3487 75.006 48.3915 76.2448C48.0528 75.8134 47.6044 75.4809 47.0932 75.2821C46.7051 75.13 46.2855 75.0757 45.8714 75.1239C45.4574 75.1721 45.0615 75.3214 44.7187 75.5586C44.0435 76.0939 43.4337 76.707 42.902 77.3852C42.3444 78.0713 41.6968 78.679 40.9767 79.192C40.3771 79.6088 39.6762 79.8561 38.9478 79.9078H38.7355C38.5695 79.9035 38.4042 79.8837 38.2418 79.8485C38.0444 79.809 37.9555 80.1102 38.1579 80.1546C38.1826 80.2533 39.8068 80.1003 42.1813 82.2823C43.2345 83.2686 44.512 83.9836 45.9035 84.3655C46.966 84.6567 48.0897 84.6378 49.1419 84.3112C48.9599 85.1578 48.8492 86.0182 48.8112 86.8832C48.7519 87.8212 48.7272 88.7641 48.742 89.707C48.7043 90.3286 48.8783 90.9446 49.2357 91.4546C49.3386 91.5693 49.464 91.6618 49.6041 91.7261C49.7442 91.7904 49.896 91.8253 50.0502 91.8285C50.2043 91.8318 50.3574 91.8033 50.5001 91.7449C50.6428 91.6866 50.772 91.5995 50.8796 91.4891C50.9486 91.43 51.013 91.3656 51.0721 91.2966C52.1138 92.0371 53.5405 91.5977 54.5673 91.0251C55.1518 90.668 55.7095 90.2687 56.2359 89.8304C56.7789 89.396 57.312 88.9467 57.8403 88.4876C58.9066 87.5497 59.9334 86.5623 60.9207 85.5257C62.8619 83.4766 64.6754 81.3103 66.351 79.0389C68.0739 76.7236 69.8067 74.3343 70.947 71.634C71.9008 69.3343 72.3438 66.8549 72.2453 64.3673C72.6946 64.4808 73.1586 64.5203 73.6177 64.6141C73.9133 64.6591 74.1922 64.7799 74.4273 64.9646C74.6508 65.1726 74.8202 65.4318 74.921 65.7199C75.0945 66.2373 75.3246 66.734 75.6072 67.2009C76.2053 68.0713 77.0724 68.7216 78.0755 69.0521C80.3315 69.8074 82.632 68.5585 83.9501 66.7418C84.6737 65.6854 85.1943 64.5035 85.4854 63.2565C85.8308 62.0479 85.9595 60.7877 85.8655 59.5343C85.7779 58.5795 85.4613 57.6599 84.9424 56.8537C85.795 57.5328 86.4202 58.4559 86.7344 59.4997C87.1392 60.6549 87.4255 61.8298 87.9389 62.9554C88.4542 64.1296 89.1432 65.2196 89.9827 66.1889C90.1551 66.4055 90.3744 66.5803 90.624 66.7C90.8737 66.8197 91.1473 66.8813 91.4242 66.88C91.9836 66.8207 92.5179 66.6165 92.9743 66.2876C96.2966 64.1451 97.4419 59.4109 96.03 55.7528ZM40.6756 41.4366C39.8585 40.9719 39.1638 40.3195 38.6488 39.5332C38.1337 38.7469 37.8132 37.8493 37.7136 36.9146C37.6445 36.189 37.6741 35.3004 38.1826 34.7178C38.8441 33.9625 39.7426 34.5944 40.1819 35.251C40.6518 35.9924 40.9581 36.8255 41.0804 37.6946C41.266 38.9561 41.1267 40.244 40.6756 41.4366ZM49.0679 71.3378C49.1001 71.0316 49.2422 70.7475 49.4677 70.538C49.421 70.8621 49.2783 71.1647 49.058 71.4069C49.0646 71.3881 49.0728 71.3699 49.0827 71.3526L49.0679 71.3378ZM41.8752 54.0596C41.3213 53.8699 40.7818 53.6406 40.2609 53.3734C39.7179 53.092 39.1946 52.7662 38.6269 52.5243C36.514 51.6209 34.1296 51.9467 31.997 52.6131C31.5626 52.7464 31.1331 52.9044 30.7036 53.0525L30.7727 53.013C31.6712 52.3762 32.4067 51.532 33.241 50.8656C34.124 50.1476 35.1821 49.6774 36.3067 49.503C37.4572 49.3392 38.6278 49.3843 39.7623 49.6363C40.4506 49.7822 41.1298 49.9685 41.7962 50.1942L42.2059 50.3373C42.5219 51.2259 42.8823 52.0948 43.1587 52.9982C43.2969 53.4359 43.4204 53.8802 43.529 54.3311C42.9708 54.352 42.4139 54.2631 41.89 54.0694L41.8752 54.0596ZM47.735 70.9873C47.689 70.8388 47.6772 70.6818 47.7004 70.5282C47.7378 70.3454 47.8129 70.1724 47.9208 70.0203C48.0288 69.8681 48.1672 69.7402 48.3274 69.6445C48.373 69.8132 48.3789 69.9901 48.3446 70.1614C48.3104 70.3327 48.2369 70.4937 48.1299 70.6318C48.0235 70.7731 47.8952 70.8964 47.7498 70.9971L47.735 70.9873ZM42.3047 78.4712C42.902 77.8739 43.4302 77.2124 44.0078 76.6002C44.5854 75.9881 45.2913 75.371 46.2342 75.4154C46.7192 75.4513 47.1843 75.6223 47.577 75.9091C47.8675 76.1289 48.1339 76.3787 48.3718 76.6545C48.3718 76.6792 48.8062 76.6249 48.8062 76.5755C48.9938 76.4077 49.1567 76.2201 49.3493 76.0572C49.6509 75.7951 50.0409 75.6574 50.4402 75.6721C51.1582 75.7378 51.8388 76.0221 52.3902 76.4867C52.9332 76.8964 53.417 77.3802 53.9403 77.8097C54.4568 78.2472 55.0359 78.605 55.6583 78.8711C55.9518 78.9903 56.2538 79.0877 56.5617 79.1623C56.1618 79.1278 55.757 79.0982 55.3621 79.0537L53.6342 78.8414C52.4698 78.6885 51.2983 78.5945 50.1243 78.5601C48.9538 78.5271 47.7825 78.5783 46.6193 78.7131C45.4921 78.8655 44.3758 79.0897 43.2772 79.3845C42.6552 79.5424 42.0282 79.7054 41.4013 79.8288C41.1001 79.893 40.799 79.9423 40.4979 79.9917L39.866 80.0707C40.8075 79.7432 41.6548 79.1908 42.3343 78.4613L42.3047 78.4712ZM48.6137 84.0644C47.8516 84.2371 47.0605 84.2371 46.2984 84.0644C44.8443 83.6913 43.5015 82.9733 42.3837 81.9713C41.7048 81.3295 40.9621 80.7588 40.1671 80.2681C40.4732 80.2435 40.7842 80.1941 41.0755 80.1447C41.6234 80.0509 42.1615 79.9226 42.6996 79.7893C43.8202 79.5128 44.931 79.2265 46.0763 79.0587C48.4162 78.7419 50.7873 78.7287 53.1307 79.0192C53.7972 79.0932 54.4636 79.187 55.13 79.2611C55.5102 79.3055 55.8952 79.3549 56.2803 79.3894C56.1935 79.4078 56.1078 79.4309 56.0236 79.4585C55.3419 79.6925 54.6983 80.0252 54.1131 80.4459C52.8789 81.2999 51.8274 82.3909 50.5637 83.2005C49.9757 83.5949 49.327 83.8901 48.6433 84.0743L48.6137 84.0644ZM50.9092 90.7733C50.8802 90.7409 50.8538 90.7062 50.8302 90.6696C50.7731 90.5688 50.7366 90.4576 50.7231 90.3425C50.7095 90.2274 50.7191 90.1108 50.7513 89.9995C50.7835 89.8882 50.8377 89.7844 50.9106 89.6943C50.9835 89.6042 51.0737 89.5297 51.1758 89.475C51.2392 89.9255 51.145 90.3842 50.9092 90.7733ZM93.8036 40.39C94.1196 40.9528 94.4306 41.5255 94.6972 42.1179C95.0081 42.7264 95.1285 43.4145 95.0427 44.0925C94.8354 45.1588 93.9616 45.9339 93.0681 46.5016C91.9618 47.1788 90.8068 47.7728 89.6124 48.2788C88.9509 48.5799 88.2845 48.8662 87.6131 49.1427C87.045 49.028 86.4691 48.9571 85.8902 48.9304C83.1306 48.7971 80.4303 49.5179 77.7102 49.8338C76.3582 50.0313 74.9846 50.0313 73.6325 49.8338L73.519 49.8091C75.1234 48.7576 76.7772 47.7752 78.4112 46.7681C80.1736 45.6821 81.931 44.596 83.649 43.4507C86.4671 41.6361 89.085 39.5279 91.4587 37.1615C92.3845 38.1252 93.1735 39.2116 93.8036 40.39ZM87.154 49.3352C86.6899 49.5228 86.2259 49.7104 85.7569 49.8832C84.4899 50.3667 83.198 50.7819 81.8866 51.1272C80.5657 51.4947 79.188 51.6135 77.8237 51.4777C77.8006 51.4726 77.7765 51.4746 77.7545 51.4834C77.7325 51.4922 77.7136 51.5074 77.7003 51.5271C76.9944 51.3395 76.2884 51.1667 75.6022 50.91C75.0418 50.7054 74.4973 50.4595 73.9732 50.1744C76.6933 50.4953 79.4035 49.8437 82.0692 49.4586C83.4358 49.2318 84.8227 49.1524 86.2061 49.2217C86.527 49.2463 86.843 49.2858 87.154 49.3352ZM87.5094 34.9647C87.866 35.0247 88.2163 35.1172 88.556 35.2411C89.5055 35.589 90.3752 36.1246 91.1132 36.8159C90.2575 37.6913 89.3639 38.5141 88.4326 39.2842C87.7562 39.8519 87.0651 40.39 86.3592 40.9183C86.623 40.4405 86.8097 39.924 86.9121 39.3879C87.1787 38.0846 87.0454 36.7221 87.3514 35.4386C87.3895 35.2761 87.4423 35.1175 87.5094 34.9647ZM89.7457 35.2609C89.4357 34.9368 89.2339 34.5246 89.1681 34.081C89.3723 34.1281 89.5674 34.2081 89.7457 34.318C89.9748 34.4599 90.1648 34.6567 90.2986 34.8906C90.3875 35.0634 90.4368 35.3843 90.2147 35.4682C89.9925 35.5521 89.8592 35.3695 89.7457 35.2609ZM90.3282 31.0005C90.4586 30.8876 90.5991 30.7868 90.7478 30.6994C90.8074 30.8709 90.8834 31.0363 90.9749 31.1931C91.1185 31.4733 91.3476 31.7004 91.629 31.8415C91.9104 31.9827 92.2294 32.0305 92.5398 31.978C92.6715 31.9461 92.7946 31.8857 92.9005 31.8012C93.0064 31.7166 93.0925 31.6099 93.1527 31.4885C93.2129 31.3671 93.2458 31.234 93.2491 31.0985C93.2524 30.9631 93.226 30.8285 93.1717 30.7044C92.8854 30.1712 92.1498 30.0823 91.6118 30.1564C91.4066 30.1854 91.2059 30.2401 91.0144 30.3193C90.9755 30.1276 90.9556 29.9324 90.9552 29.7368C90.955 29.2117 91.1165 28.6993 91.4176 28.2692C91.7188 27.839 92.1451 27.5121 92.6386 27.3326C93.208 27.1346 93.832 27.1655 94.3791 27.4188C94.9262 27.6721 95.3535 28.1279 95.5709 28.6902C95.8395 29.453 95.8167 30.2882 95.5068 31.0351C95.4675 31.055 95.435 31.0859 95.4129 31.124C94.2966 33.0979 92.9348 34.9225 91.36 36.5543C91.0149 36.2368 90.6433 35.9494 90.2492 35.6953C90.3225 35.6692 90.3892 35.6274 90.4447 35.5729C90.5001 35.5183 90.5429 35.4522 90.5701 35.3794C90.6094 35.2353 90.6105 35.0836 90.5733 34.939C90.5361 34.7944 90.4618 34.6621 90.3578 34.5549C90.0483 34.1741 89.6151 33.9138 89.1336 33.8194C89.0993 33.2889 89.1895 32.7578 89.3969 32.2684C89.6043 31.779 89.9232 31.3448 90.3282 31.0005ZM91.0539 30.5464C91.3083 30.4349 91.5811 30.3713 91.8586 30.3588C92.3522 30.3588 93.3396 30.6501 92.9693 31.3461C92.5991 32.0422 91.8142 31.746 91.439 31.3017C91.2595 31.0794 91.1283 30.8222 91.0539 30.5464ZM88.2993 34.1254C88.4975 34.05 88.7096 34.018 88.9213 34.0316C88.9372 34.1498 88.9603 34.2668 88.9904 34.3821C89.07 34.6772 89.2003 34.9562 89.3755 35.2066C88.832 34.9393 88.2562 34.7435 87.6624 34.624C87.818 34.3959 88.0405 34.2217 88.2993 34.1254ZM82.6715 36.4111C83.3692 35.8275 84.1694 35.3789 85.0312 35.0881C85.7333 34.8782 86.4719 34.8194 87.1984 34.9153C87.0032 35.4361 86.89 35.984 86.8627 36.5394C86.7195 38.0797 86.8084 39.773 85.8754 41.0861C85.6672 41.3771 85.4079 41.628 85.1102 41.8266C85.0834 41.8468 85.0629 41.8742 85.051 41.9056C83.022 43.3372 80.9042 44.6503 78.7963 45.9536C76.8562 47.1532 74.9457 48.3824 73.0698 49.6709C72.9162 49.6078 72.7744 49.5194 72.6502 49.4093C72.6107 49.3006 72.5761 49.192 72.5465 49.0785C72.7422 49.1667 72.9554 49.2094 73.17 49.2034C73.3846 49.1974 73.5951 49.1429 73.7856 49.0439C74.3253 48.7084 74.8226 48.3089 75.2666 47.8542L76.9401 46.4028C78.8209 44.7738 80.919 43.1447 81.9754 40.8146C82.5766 39.4294 82.8161 37.9142 82.6715 36.4111ZM71.1988 51.3691C71.6925 51.1025 72.2404 50.8754 72.7686 50.6335C72.4971 50.9791 72.2108 51.3197 71.9097 51.6505C71.6727 51.5468 71.4407 51.4481 71.1988 51.3691ZM71.6924 51.8874C70.8007 52.8607 69.6932 53.6114 68.459 54.0793L68.2664 54.1385C68.6359 53.3502 69.202 52.6702 69.9103 52.1639C70.2107 51.9476 70.5239 51.7497 70.8483 51.5715C71.1305 51.661 71.4074 51.7665 71.6776 51.8874H71.6924ZM72.3638 51.5024C72.586 51.2358 72.7983 50.9594 73.0056 50.678C74.3138 52.3021 76.6192 52.9143 78.5198 53.4919C80.2377 54.0151 82.1186 54.6273 83.5107 55.8121C81.9557 55.2592 80.1835 55.195 78.5741 54.8741C77.3523 54.6147 76.1837 54.1489 75.1185 53.4968C74.1311 52.9093 73.1438 52.2527 72.117 51.7542L72.3638 51.5024ZM73.0994 50.2189C73.05 50.1498 72.9957 50.0856 72.9513 50.0165C72.9636 50.0322 72.9787 50.0455 72.9957 50.0559C73.0451 50.0905 73.0994 50.1152 73.1537 50.1497C73.129 50.171 73.1059 50.1942 73.0846 50.2189H73.0994ZM81.778 40.4493C80.7907 42.8435 78.6877 44.5319 76.8019 46.1807L75.1382 47.637L74.3039 48.3479C74.0616 48.5884 73.7749 48.7795 73.4598 48.9107C73.2961 48.9611 73.1236 48.9766 72.9535 48.9562C72.7835 48.9358 72.6196 48.8799 72.4724 48.7922C72.4287 48.5603 72.3974 48.3263 72.3786 48.0912C72.4132 47.7992 72.4626 47.5092 72.5267 47.2223C73.0405 44.9041 74.329 42.8302 76.1798 41.3428C77.2511 40.4937 78.4853 39.8618 79.5762 39.0571C80.4747 38.3858 81.2744 37.5761 82.1236 36.8653L82.3704 36.6579C82.46 37.9502 82.2575 39.246 81.778 40.4493ZM71.7912 45.2131C71.2661 44.0179 70.8015 42.797 70.3991 41.5551C70.0831 40.3456 70.0091 39.0868 69.7375 37.8773C69.6111 37.28 69.4139 36.7 69.1501 36.1495C68.8936 35.6641 68.584 35.2088 68.2269 34.7919C67.5506 33.9675 66.7459 33.1924 66.3461 32.1804C66.1471 31.6345 66.1003 31.0448 66.2108 30.4743C66.3212 29.9039 66.5847 29.3742 66.973 28.942C67.7945 28.0318 68.9231 27.457 70.1423 27.3277C72.5295 27.0347 74.9482 27.5028 77.0536 28.6655C79.1343 29.7478 80.7707 31.5239 81.6792 33.6861C82.0107 34.5166 82.2267 35.3886 82.321 36.2778C81.778 36.7172 81.2596 37.1911 80.7364 37.6601C80.3019 38.0501 79.8626 38.4401 79.3936 38.7906C78.9246 39.1411 78.2779 39.5607 77.7102 39.926C76.6504 40.5526 75.6777 41.3161 74.8173 42.1968C73.5523 43.5717 72.6719 45.2557 72.2651 47.0792C72.2651 47.0792 72.2651 47.0397 72.2651 47.015C72.1757 46.392 72.0167 45.781 71.7912 45.1934V45.2131ZM62.4461 51.6307C61.7976 51.6516 61.1498 51.5717 60.5258 51.3938C59.9421 51.2264 59.4137 50.9059 58.9954 50.4657C58.6048 49.9962 58.2733 49.4806 58.0081 48.9304C57.7307 48.3965 57.3999 47.892 57.0208 47.4247C56.592 46.9717 56.2115 46.4754 55.8853 45.9437C55.2732 44.8182 55.2683 43.4754 55.3917 42.2363C55.4495 40.9955 55.6685 39.7675 56.0433 38.5832C56.2694 37.9914 56.6214 37.4558 57.0748 37.0135C57.5283 36.5711 58.0724 36.2325 58.6696 36.0211C59.7604 35.6169 60.9371 35.5013 62.0857 35.6855C63.2343 35.8698 64.3158 36.3476 65.2255 37.0726C66.8496 38.4203 67.6642 40.4394 68.38 42.3647C69.0958 44.29 69.7326 46.2498 71.0408 47.8295C71.3387 48.2019 71.6838 48.5338 72.0676 48.8169C72.0913 49.0575 72.1819 49.2867 72.3293 49.4784C72.3981 49.7055 72.4925 49.9241 72.6107 50.13L72.7637 50.362C72.1071 50.6286 71.4407 50.9001 70.789 51.2309C70.0227 51.017 69.2298 50.9139 68.4343 50.9248C67.3826 50.9697 66.3352 51.0868 65.2995 51.2753V51.2358C65.1746 50.7379 64.9209 50.2817 64.564 49.9128C64.3974 49.776 64.196 49.6882 63.9824 49.6594C63.7687 49.6307 63.5513 49.662 63.3545 49.7499C63.0113 49.9031 62.7326 50.1717 62.5667 50.5089C62.4008 50.8461 62.3581 51.2308 62.4461 51.5962V51.6307ZM62.9052 50.4657C63.0338 50.2641 63.2262 50.1114 63.4516 50.0318C63.677 49.9522 63.9226 49.9502 64.1493 50.0263C64.6429 50.2386 64.8305 50.8705 64.9836 51.3296C64.9836 51.3296 64.9836 51.3296 64.9836 51.3691L64.3073 51.4678C63.7741 51.5369 63.2311 51.6011 62.6831 51.6209C62.6343 51.4181 62.6288 51.2073 62.6671 51.0023C62.7054 50.7972 62.7865 50.6026 62.9052 50.4311V50.4657ZM65.2649 54.1879C64.6277 54.0036 64.046 53.6644 63.5717 53.2006C63.2095 52.8413 62.9343 52.4039 62.767 51.922C63.5429 51.8763 64.3158 51.7889 65.0823 51.6604C65.2992 52.4725 65.3611 53.3183 65.2649 54.1534V54.1879ZM65.576 54.2718C65.6833 53.3829 65.6214 52.4817 65.3933 51.6159C67.0668 51.3592 68.7502 51.0926 70.404 51.4925C70.1512 51.6429 69.9073 51.8078 69.6734 51.9862C68.8539 52.5704 68.2143 53.3725 67.8271 54.3015C67.0807 54.4407 66.3132 54.4189 65.576 54.2373V54.2718ZM85.5002 60.9807C85.4035 62.2863 85.1037 63.5688 84.6116 64.7819C83.728 66.9837 81.773 69.141 79.1813 68.9929C78.0654 68.9102 77.0217 68.4096 76.2588 67.5909C75.8932 67.1974 75.6081 66.7362 75.4196 66.2333C75.2878 65.6841 75.0234 65.1756 74.6495 64.7523C74.2073 64.4197 73.6765 64.2256 73.1241 64.1945C72.5796 64.1321 72.0492 63.9803 71.5542 63.7452C70.6221 63.2489 69.8411 62.5104 69.2932 61.6077C68.6931 60.6608 68.2621 59.6168 68.0196 58.5223C67.7212 57.3446 67.7059 56.1131 67.9752 54.9284C68.0148 54.7708 68.0643 54.6158 68.1233 54.4644C69.5937 54.0139 70.9076 53.1585 71.9146 51.9961C73.6918 52.8205 75.2369 54.1385 77.0931 54.805C79.364 55.6195 81.9557 55.3332 84.1278 56.4242C84.3673 56.6882 84.579 56.976 84.7597 57.2832C85.369 58.402 85.6271 59.6785 85.5002 60.9462V60.9807ZM93.9616 65.1374C93.6056 65.5106 93.2081 65.8418 92.7768 66.1247C92.5241 66.3239 92.234 66.4703 91.9236 66.5551C91.6132 66.6399 91.2889 66.6614 90.97 66.6184C90.348 66.4604 89.9382 65.8285 89.5828 65.3398C89.2194 64.832 88.8896 64.301 88.5955 63.7502C88.0132 62.6003 87.5484 61.3946 87.2083 60.1514C86.935 59.011 86.378 57.9582 85.5891 57.0906C85.2213 56.735 84.8019 56.4371 84.345 56.207C83.6097 55.4329 82.7334 54.8063 81.7632 54.3607C80.5216 53.8111 79.2391 53.3588 77.9274 53.0081C76.7548 52.6972 75.6279 52.2342 74.5754 51.6307C74.0547 51.3134 73.595 50.9054 73.2179 50.4262L73.3265 50.283C74.014 50.6738 74.7341 51.0042 75.4788 51.2704C76.2113 51.5483 76.976 51.7325 77.7546 51.8183C77.7774 51.8367 77.8047 51.8487 77.8336 51.8529C79.2266 51.9889 80.6327 51.865 81.9804 51.4876C83.3362 51.127 84.6711 50.6919 85.9791 50.1843C86.5764 49.9622 87.1737 49.7252 87.7661 49.4833C88.3262 49.6003 88.8772 49.757 89.415 49.9523C91.5026 50.6807 93.3272 52.0122 94.6576 53.7782C95.885 55.4804 96.4755 57.5595 96.3262 59.6528C96.2096 61.6925 95.3715 63.6242 93.9616 65.1028V65.1374Z" fill="white" stroke="white"/>
<defs>
<linearGradient id="paint0_linear_719_370" x1="20.9449" y1="11.6081" x2="59.2536" y2="118.783" gradientUnits="userSpaceOnUse">
<stop stop-color="#706464"/>
<stop offset="1" stop-color="#4A4141"/>
</linearGradient>
<linearGradient id="paint1_linear_719_370" x1="26.824" y1="65.8693" x2="50.9995" y2="65.8693" gradientUnits="userSpaceOnUse">
<stop stop-color="#F6929F"/>
<stop offset="1" stop-color="#FFC0C8"/>
</linearGradient>
</defs>
</svg>
