<svg width="354" height="91" viewBox="0 0 354 91" fill="none" xmlns="http://www.w3.org/2000/svg">
<path d="M353.059 43.7153C353.578 43.7153 354 44.5126 354 45.4947C354 46.4767 353.578 47.274 353.059 47.274C352.54 47.274 352.115 46.4778 352.115 45.4947C352.115 44.5116 352.537 43.7153 353.059 43.7153Z" fill="#A5A5A5"/>
<path d="M343.613 41.0713C344.132 41.0713 344.554 42.8966 344.554 45.1485C344.554 47.4005 344.132 49.2258 343.613 49.2258C343.094 49.2258 342.669 47.4005 342.669 45.1485C342.669 42.8966 343.092 41.0713 343.613 41.0713Z" fill="#A5A5A5"/>
<path d="M334.024 38.792C334.857 38.792 335.534 41.7157 335.534 45.3254C335.534 48.9351 334.857 51.8588 334.024 51.8588C333.192 51.8588 332.515 48.9351 332.515 45.3254C332.515 41.7157 333.192 38.792 334.024 38.792Z" fill="#A5A5A5"/>
<path d="M324.507 60.7495C323.117 60.7495 321.989 53.8047 321.989 45.2378C321.989 36.6709 323.117 29.7261 324.507 29.7261C325.897 29.7261 327.025 36.6709 327.025 45.2378C327.025 53.8047 325.897 60.7495 324.507 60.7495Z" fill="#A5A5A5"/>
<path d="M314.992 18.0771C316.381 18.0771 317.51 30.3436 317.51 45.4745C317.51 60.6055 316.381 72.8719 314.992 72.8719C313.604 72.8719 312.475 60.6055 312.475 45.4745C312.475 30.3436 313.601 18.0771 314.992 18.0771Z" fill="#A5A5A5"/>
<path d="M305.475 11.7119C307.177 11.7119 308.558 26.7418 308.558 45.2823C308.558 63.8229 307.177 78.8518 305.475 78.8518C303.773 78.8518 302.389 63.8219 302.389 45.2823C302.389 26.7428 303.77 11.7119 305.475 11.7119Z" fill="#A5A5A5"/>
<path d="M295.958 9.79102C297.759 9.79102 299.219 25.6794 299.219 45.2796C299.219 64.8798 297.759 80.7682 295.958 80.7682C294.157 80.7682 292.696 64.8798 292.696 45.2796C292.696 25.6794 294.157 9.79102 295.958 9.79102Z" fill="#A5A5A5"/>
<path d="M286.441 14.3511C288.019 14.3511 289.299 28.2723 289.299 45.447C289.299 62.6217 288.019 76.5419 286.441 76.5419C284.862 76.5419 283.584 62.6206 283.584 45.447C283.584 28.2733 284.862 14.3511 286.441 14.3511Z" fill="#A5A5A5"/>
<path d="M276.923 13.0298C278.502 13.0298 279.782 27.4962 279.782 45.3425C279.782 63.1889 278.502 77.6543 276.923 77.6543C275.345 77.6543 274.067 63.1869 274.067 45.3425C274.067 27.4982 275.347 13.0298 276.923 13.0298Z" fill="#A5A5A5"/>
<path d="M267.409 16.0322C268.985 16.0322 270.265 29.1542 270.265 45.3417C270.265 61.5292 268.985 74.6511 267.409 74.6511C265.832 74.6511 264.55 61.5292 264.55 45.3417C264.55 29.1542 265.83 16.0322 267.409 16.0322Z" fill="#A5A5A5"/>
<path d="M257.872 13.8149C259.45 13.8149 260.73 27.6841 260.73 44.7924C260.73 61.9007 259.45 75.7689 257.872 75.7689C256.293 75.7689 255.016 61.8966 255.016 44.7873C255.016 27.678 256.293 13.8149 257.872 13.8149Z" fill="#A5A5A5"/>
<path d="M248.374 9.73145C249.953 9.73145 251.233 25.5596 251.233 45.0853C251.233 64.611 249.953 80.4381 248.374 80.4381C246.795 80.4381 245.516 64.6099 245.516 45.0853C245.516 25.5606 246.795 9.73145 248.374 9.73145Z" fill="#A5A5A5"/>
<path d="M238.857 2.70215C240.436 2.70215 241.716 21.8205 241.716 45.4061C241.716 68.9916 240.436 88.1079 238.857 88.1079C237.278 88.1079 236.001 68.9896 236.001 45.4061C236.001 21.8225 237.281 2.70215 238.857 2.70215Z" fill="#A5A5A5"/>
<path d="M229.342 0C231.022 0 232.386 20.3709 232.386 45.5C232.386 70.6291 231.022 91 229.342 91C227.662 91 226.296 70.6291 226.296 45.5C226.296 20.3709 227.66 0 229.342 0Z" fill="#A5A5A5"/>
<path d="M219.825 8.58643C221.404 8.58643 222.681 25.022 222.681 45.2898C222.681 65.5576 221.404 81.9912 219.825 81.9912C218.246 81.9912 216.966 65.5556 216.966 45.2898C216.966 25.024 218.246 8.58643 219.825 8.58643Z" fill="#A5A5A5"/>
<path d="M210.295 12.4297C211.874 12.4297 213.154 27.2319 213.154 45.4866C213.154 63.7413 211.874 78.5436 210.295 78.5436C208.717 78.5436 207.437 63.7413 207.437 45.4866C207.437 27.2319 208.729 12.4297 210.295 12.4297Z" fill="url(#paint0_linear_220_99548)"/>
<path d="M200.761 18.0728C202.337 18.0728 203.617 30.4403 203.617 45.6947C203.617 60.9492 202.337 73.3167 200.761 73.3167C199.185 73.3167 197.902 60.9502 197.902 45.6947C197.902 30.4393 199.177 18.0728 200.761 18.0728Z" fill="url(#paint1_linear_220_99548)"/>
<path d="M191.313 19.2744C192.734 19.2744 193.882 31.0733 193.882 45.6285C193.882 60.1837 192.734 71.9816 191.313 71.9816C189.892 71.9816 188.743 60.1826 188.743 45.6285C188.743 31.0743 189.895 19.2744 191.313 19.2744Z" fill="url(#paint2_linear_220_99548)"/>
<path d="M181.759 16.9326C183.335 16.9326 184.615 29.5298 184.615 45.0691C184.615 60.6084 183.335 73.2056 181.759 73.2056C180.182 73.2056 178.9 60.6084 178.9 45.0691C178.9 29.5298 180.18 16.9326 181.759 16.9326Z" fill="url(#paint3_linear_220_99548)"/>
<path d="M172.246 17.2329C173.665 17.2329 174.816 29.8128 174.816 45.3306C174.816 60.8484 173.66 73.4324 172.246 73.4324C170.833 73.4324 169.677 60.8525 169.677 45.3347C169.677 29.8168 170.823 17.2329 172.246 17.2329Z" fill="url(#paint4_linear_220_99548)"/>
<path d="M162.724 12.9697C164.303 12.9697 165.583 27.4994 165.583 45.4233C165.583 63.3473 164.303 77.877 162.724 77.877C161.145 77.877 159.868 63.3463 159.868 45.4233C159.868 27.5004 161.145 12.9697 162.724 12.9697Z" fill="url(#paint5_linear_220_99548)"/>
<path d="M153.21 8.22607C154.786 8.22607 156.066 24.8883 156.066 45.443C156.066 65.9976 154.786 82.6588 153.21 82.6588C151.633 82.6588 150.351 65.9966 150.351 45.443C150.351 24.8893 151.631 8.22607 153.21 8.22607Z" fill="url(#paint6_linear_220_99548)"/>
<path d="M143.692 14.1113C145.11 14.1113 146.262 28.1112 146.262 45.3828C146.262 62.6544 145.11 76.6533 143.692 76.6533C142.274 76.6533 141.123 62.6524 141.123 45.3828C141.123 28.1132 142.272 14.1113 143.692 14.1113Z" fill="url(#paint7_linear_220_99548)"/>
<path d="M134.175 11.5283C135.593 11.5283 136.745 26.7297 136.745 45.4816C136.745 64.2334 135.593 79.4338 134.175 79.4338C132.757 79.4338 131.605 64.2324 131.605 45.4816C131.605 26.7307 132.754 11.5283 134.175 11.5283Z" fill="url(#paint8_linear_220_99548)"/>
<path d="M124.611 14.2632C126.029 14.2632 127.18 28.0946 127.18 45.158C127.18 62.2214 126.029 76.0528 124.611 76.0528C123.193 76.0528 122.041 62.2204 122.041 45.158C122.041 28.0956 123.193 14.2632 124.611 14.2632Z" fill="url(#paint9_linear_220_99548)"/>
<path d="M115.141 17.145C116.561 17.145 117.71 29.7198 117.71 45.2315C117.71 60.7432 116.561 73.3169 115.141 73.3169C113.72 73.3169 112.571 60.7422 112.571 45.2315C112.571 29.7208 113.722 17.145 115.141 17.145Z" fill="url(#paint10_linear_220_99548)"/>
<path d="M105.626 18.9458C107.044 18.9458 108.193 30.7937 108.193 45.4091C108.193 60.0245 107.044 71.8714 105.626 71.8714C104.208 71.8714 103.056 60.0235 103.056 45.4091C103.056 30.7947 104.205 18.9458 105.626 18.9458Z" fill="url(#paint11_linear_220_99548)"/>
<path d="M96.1085 20.2075C97.5267 20.2075 98.6782 31.5481 98.6782 45.5387C98.6782 59.5294 97.5267 70.8699 96.1085 70.8699C94.6903 70.8699 93.539 59.5284 93.539 45.5387C93.539 31.5491 94.6878 20.2075 96.1085 20.2075Z" fill="url(#paint12_linear_220_99548)"/>
<path d="M86.5913 16.6641C88.1948 16.6641 89.4944 29.4746 89.4944 45.2773C89.4944 61.0799 88.1948 73.8884 86.5913 73.8884C84.9878 73.8884 83.6882 61.0789 83.6882 45.2773C83.6882 29.4756 84.9878 16.6641 86.5913 16.6641Z" fill="url(#paint13_linear_220_99548)"/>
<path d="M77.0741 14.8188C78.6776 14.8188 79.9772 28.6074 79.9772 45.6156C79.9772 62.6239 78.6776 76.4114 77.0741 76.4114C75.4706 76.4114 74.1736 62.6239 74.1736 45.6156C74.1736 28.6074 75.4706 14.8188 77.0741 14.8188Z" fill="url(#paint14_linear_220_99548)"/>
<path d="M67.5568 16.7095C69.1603 16.7095 70.4599 29.5905 70.4599 45.4799C70.4599 61.3693 69.1603 74.2493 67.5568 74.2493C65.9533 74.2493 64.6562 61.3693 64.6562 45.4799C64.6562 29.5905 65.9558 16.7095 67.5568 16.7095Z" fill="url(#paint15_linear_220_99548)"/>
<path d="M58.0422 16.5977C59.6432 16.5977 60.9427 29.4766 60.9427 45.364C60.9427 61.2514 59.6432 74.1293 58.0422 74.1293C56.4412 74.1293 55.1341 61.2504 55.1341 45.364C55.1341 29.4776 56.4387 16.5977 58.0422 16.5977Z" fill="url(#paint16_linear_220_99548)"/>
<path d="M48.525 18.1558C50.1285 18.1558 51.4257 30.3497 51.4257 45.3919C51.4257 60.434 50.1285 72.628 48.525 72.628C46.9215 72.628 45.6219 60.434 45.6219 45.3919C45.6219 30.3497 46.9215 18.1558 48.525 18.1558Z" fill="url(#paint17_linear_220_99548)"/>
<path d="M39.0077 25.1616C40.4259 25.1616 41.5773 34.1532 41.5773 45.2437C41.5773 56.3341 40.4259 65.3257 39.0077 65.3257C37.5896 65.3257 36.4382 56.3351 36.4382 45.2437C36.4382 34.1522 37.592 25.1616 39.0077 25.1616Z" fill="url(#paint18_linear_220_99548)"/>
<path d="M29.4238 29.9443C30.8445 29.9443 31.9933 36.9106 31.9933 45.504C31.9933 54.0975 30.8445 61.0627 29.4238 61.0627C28.0032 61.0627 26.8543 54.0965 26.8543 45.504C26.8543 36.9116 28.0056 29.9443 29.4238 29.9443Z" fill="url(#paint19_linear_220_99548)"/>
<path d="M10.4586 40.9961C10.9775 40.9961 11.4 42.8214 11.4 45.0733C11.4 47.3253 10.9775 49.1506 10.4586 49.1506C9.93975 49.1506 9.51724 47.3253 9.51724 45.0733C9.51724 42.8214 9.93728 40.9961 10.4586 40.9961Z" fill="url(#paint20_linear_220_99548)"/>
<path d="M19.9758 38.3716C20.8085 38.3716 21.4829 41.2963 21.4829 44.905C21.4829 48.5137 20.8085 51.4384 19.9758 51.4384C19.1432 51.4384 18.4661 48.5147 18.4661 44.905C18.4661 41.2953 19.1407 38.3716 19.9758 38.3716Z" fill="url(#paint21_linear_220_99548)"/>
<path d="M0.941392 43.5952C1.46271 43.5952 1.88275 44.3925 1.88275 45.3756C1.88275 46.3586 1.46271 47.1549 0.941392 47.1549C0.42007 47.1549 3.27826e-05 46.3576 3.27826e-05 45.3756C3.27826e-05 44.3935 0.42007 43.5952 0.941392 43.5952Z" fill="url(#paint22_linear_220_99548)"/>
<defs>
<linearGradient id="paint0_linear_220_99548" x1="213.154" y1="45.4866" x2="207.437" y2="45.4866" gradientUnits="userSpaceOnUse">
<stop stop-color="#F6929F"/>
<stop offset="1" stop-color="#FFC0C8"/>
</linearGradient>
<linearGradient id="paint1_linear_220_99548" x1="203.617" y1="45.6947" x2="197.902" y2="45.6947" gradientUnits="userSpaceOnUse">
<stop stop-color="#F6929F"/>
<stop offset="1" stop-color="#FFC0C8"/>
</linearGradient>
<linearGradient id="paint2_linear_220_99548" x1="193.882" y1="45.628" x2="188.743" y2="45.628" gradientUnits="userSpaceOnUse">
<stop stop-color="#F6929F"/>
<stop offset="1" stop-color="#FFC0C8"/>
</linearGradient>
<linearGradient id="paint3_linear_220_99548" x1="184.615" y1="45.0691" x2="178.9" y2="45.0691" gradientUnits="userSpaceOnUse">
<stop stop-color="#F6929F"/>
<stop offset="1" stop-color="#FFC0C8"/>
</linearGradient>
<linearGradient id="paint4_linear_220_99548" x1="174.816" y1="45.3326" x2="169.677" y2="45.3326" gradientUnits="userSpaceOnUse">
<stop stop-color="#F6929F"/>
<stop offset="1" stop-color="#FFC0C8"/>
</linearGradient>
<linearGradient id="paint5_linear_220_99548" x1="165.583" y1="45.4234" x2="159.868" y2="45.4234" gradientUnits="userSpaceOnUse">
<stop stop-color="#F6929F"/>
<stop offset="1" stop-color="#FFC0C8"/>
</linearGradient>
<linearGradient id="paint6_linear_220_99548" x1="156.066" y1="45.4424" x2="150.351" y2="45.4424" gradientUnits="userSpaceOnUse">
<stop stop-color="#F6929F"/>
<stop offset="1" stop-color="#FFC0C8"/>
</linearGradient>
<linearGradient id="paint7_linear_220_99548" x1="146.262" y1="45.3823" x2="141.123" y2="45.3823" gradientUnits="userSpaceOnUse">
<stop stop-color="#F6929F"/>
<stop offset="1" stop-color="#FFC0C8"/>
</linearGradient>
<linearGradient id="paint8_linear_220_99548" x1="136.745" y1="45.4811" x2="131.605" y2="45.4811" gradientUnits="userSpaceOnUse">
<stop stop-color="#F6929F"/>
<stop offset="1" stop-color="#FFC0C8"/>
</linearGradient>
<linearGradient id="paint9_linear_220_99548" x1="127.18" y1="45.158" x2="122.041" y2="45.158" gradientUnits="userSpaceOnUse">
<stop stop-color="#F6929F"/>
<stop offset="1" stop-color="#FFC0C8"/>
</linearGradient>
<linearGradient id="paint10_linear_220_99548" x1="117.71" y1="45.231" x2="112.571" y2="45.231" gradientUnits="userSpaceOnUse">
<stop stop-color="#F6929F"/>
<stop offset="1" stop-color="#FFC0C8"/>
</linearGradient>
<linearGradient id="paint11_linear_220_99548" x1="108.193" y1="45.4086" x2="103.056" y2="45.4086" gradientUnits="userSpaceOnUse">
<stop stop-color="#F6929F"/>
<stop offset="1" stop-color="#FFC0C8"/>
</linearGradient>
<linearGradient id="paint12_linear_220_99548" x1="98.6782" y1="45.5387" x2="93.539" y2="45.5387" gradientUnits="userSpaceOnUse">
<stop stop-color="#F6929F"/>
<stop offset="1" stop-color="#FFC0C8"/>
</linearGradient>
<linearGradient id="paint13_linear_220_99548" x1="89.4944" y1="45.2762" x2="83.6882" y2="45.2762" gradientUnits="userSpaceOnUse">
<stop stop-color="#F6929F"/>
<stop offset="1" stop-color="#FFC0C8"/>
</linearGradient>
<linearGradient id="paint14_linear_220_99548" x1="79.9772" y1="45.6151" x2="74.1736" y2="45.6151" gradientUnits="userSpaceOnUse">
<stop stop-color="#F6929F"/>
<stop offset="1" stop-color="#FFC0C8"/>
</linearGradient>
<linearGradient id="paint15_linear_220_99548" x1="70.4599" y1="45.4794" x2="64.6562" y2="45.4794" gradientUnits="userSpaceOnUse">
<stop stop-color="#F6929F"/>
<stop offset="1" stop-color="#FFC0C8"/>
</linearGradient>
<linearGradient id="paint16_linear_220_99548" x1="60.9427" y1="45.3635" x2="55.1341" y2="45.3635" gradientUnits="userSpaceOnUse">
<stop stop-color="#F6929F"/>
<stop offset="1" stop-color="#FFC0C8"/>
</linearGradient>
<linearGradient id="paint17_linear_220_99548" x1="51.4257" y1="45.3919" x2="45.6219" y2="45.3919" gradientUnits="userSpaceOnUse">
<stop stop-color="#F6929F"/>
<stop offset="1" stop-color="#FFC0C8"/>
</linearGradient>
<linearGradient id="paint18_linear_220_99548" x1="41.5773" y1="45.2437" x2="36.4382" y2="45.2437" gradientUnits="userSpaceOnUse">
<stop stop-color="#F6929F"/>
<stop offset="1" stop-color="#FFC0C8"/>
</linearGradient>
<linearGradient id="paint19_linear_220_99548" x1="31.9933" y1="45.5035" x2="26.8543" y2="45.5035" gradientUnits="userSpaceOnUse">
<stop stop-color="#F6929F"/>
<stop offset="1" stop-color="#FFC0C8"/>
</linearGradient>
<linearGradient id="paint20_linear_220_99548" x1="11.4" y1="45.0733" x2="9.51724" y2="45.0733" gradientUnits="userSpaceOnUse">
<stop stop-color="#F6929F"/>
<stop offset="1" stop-color="#FFC0C8"/>
</linearGradient>
<linearGradient id="paint21_linear_220_99548" x1="21.4829" y1="44.905" x2="18.4661" y2="44.905" gradientUnits="userSpaceOnUse">
<stop stop-color="#F6929F"/>
<stop offset="1" stop-color="#FFC0C8"/>
</linearGradient>
<linearGradient id="paint22_linear_220_99548" x1="1.88275" y1="45.3751" x2="3.27826e-05" y2="45.3751" gradientUnits="userSpaceOnUse">
<stop stop-color="#F6929F"/>
<stop offset="1" stop-color="#FFC0C8"/>
</linearGradient>
</defs>
</svg>
