<svg width="36" height="36" viewBox="0 0 36 36" fill="none" xmlns="http://www.w3.org/2000/svg">
<path d="M18 7.29643C12.158 7.29643 7.40893 12.0455 7.40089 17.8875C7.40089 19.8884 7.96339 21.8411 9.02411 23.5205L9.27321 23.9223L8.20446 27.8277L12.2143 26.775L12.6 27.008C14.2232 27.9723 16.0875 28.4866 17.992 28.4866H18C23.8339 28.4866 28.7116 23.7375 28.7116 17.8955C28.7116 15.067 27.4902 12.4071 25.4893 10.4062C23.4804 8.39732 20.8286 7.29643 18 7.29643ZM24.2277 22.4357C23.9625 23.183 22.6929 23.858 22.0821 23.9464C21.0696 24.0991 20.2821 24.0187 18.2652 23.1509C15.075 21.7687 12.9857 18.5545 12.825 18.3455C12.6643 18.1366 11.5232 16.6179 11.5232 15.0509C11.5232 13.4839 12.3429 12.7125 12.6402 12.3911C12.9295 12.0696 13.275 11.9893 13.492 11.9893C13.7009 11.9893 13.9179 11.9893 14.1027 11.9973C14.2955 12.0054 14.5607 11.925 14.8179 12.5437C15.083 13.1786 15.7179 14.7455 15.7982 14.9062C15.8786 15.067 15.9348 15.2518 15.8223 15.4607C15.2116 16.6821 14.5607 16.6339 14.8902 17.1964C16.1196 19.3098 17.3491 20.0411 19.2214 20.9812C19.5429 21.142 19.7277 21.1179 19.9125 20.9009C20.0973 20.692 20.708 19.9688 20.917 19.6554C21.1259 19.3339 21.3429 19.3902 21.6321 19.4946C21.9214 19.5991 23.4884 20.3705 23.8098 20.5312C24.1312 20.692 24.3402 20.7723 24.4205 20.9009C24.4929 21.0536 24.4929 21.6964 24.2277 22.4357ZM32.1429 0H3.85714C1.72768 0 0 1.72768 0 3.85714V32.1429C0 34.2723 1.72768 36 3.85714 36H32.1429C34.2723 36 36 34.2723 36 32.1429V3.85714C36 1.72768 34.2723 0 32.1429 0ZM17.992 30.6321C15.8545 30.6321 13.7571 30.0938 11.9009 29.0812L5.14286 30.8571L6.95089 24.2518C5.83393 22.3232 5.24732 20.1295 5.24732 17.8795C5.25536 10.8562 10.9687 5.14286 17.992 5.14286C21.3991 5.14286 24.5973 6.46875 27.008 8.87946C29.4107 11.2902 30.8571 14.4884 30.8571 17.8955C30.8571 24.9187 25.0152 30.6321 17.992 30.6321Z" fill="url(#paint0_linear_212_98014)"/>
<defs>
<linearGradient id="paint0_linear_212_98014" x1="0" y1="18" x2="36" y2="18" gradientUnits="userSpaceOnUse">
<stop stop-color="#F6929F"/>
<stop offset="1" stop-color="#FFC0C8"/>
</linearGradient>
</defs>
</svg>
