<svg width="30" height="30" viewBox="0 0 30 30" fill="none" xmlns="http://www.w3.org/2000/svg">
<circle cx="15" cy="15" r="15" fill="white"/>
<path d="M17.774 16.26C17.5767 16.1394 17.2809 16.1726 17.1165 16.3349L15.8093 17.6207C15.73 17.6987 15.6226 17.7426 15.5106 17.7426C15.3985 17.7426 15.2911 17.6987 15.2118 17.6207L12.2749 14.7287C12.1957 14.6507 12.1512 14.5449 12.1512 14.4345C12.1512 14.3242 12.1957 14.2184 12.2749 14.1403L13.5057 12.9286C13.6705 12.7663 13.6946 12.4813 13.5606 12.2945L11.3213 9.16818C11.2903 9.12401 11.2504 9.08661 11.2041 9.05835C11.1577 9.03009 11.106 9.01156 11.052 9.00394C10.998 8.99632 10.9431 8.99977 10.8905 9.01407C10.838 9.02837 10.789 9.05322 10.7467 9.08704C10.7467 9.08704 9 10.4519 9 11.7065C9 16.8393 13.2252 21 18.4361 21C19.7099 21 20.9492 18.6972 20.9492 18.6972C21.0014 18.5972 21.0139 18.4815 20.9842 18.3729C20.9545 18.2642 20.8848 18.1704 20.7886 18.1097L17.774 16.26Z" fill="url(#paint0_linear_203_47031)"/>
<defs>
<linearGradient id="paint0_linear_203_47031" x1="9" y1="15" x2="21" y2="15" gradientUnits="userSpaceOnUse">
<stop stop-color="#F6929F"/>
<stop offset="1" stop-color="#FFC0C8"/>
</linearGradient>
</defs>
</svg>
